{
  "accessors": [
    {
      "bufferView": 3,
      "componentType": 5126,
      "count": 1377,
      "max": [
        0.24811570346355438,
        0.8964072465896606,
        0.31306523084640503
      ],
      "min": [
        -0.24811570346355438,
        -1.7160635579216432e-08,
        -0.28732964396476746
      ],
      "type": "VEC3"
    },
    {
      "bufferView": 3,
      "byteOffset": 16524,
      "componentType": 5126,
      "count": 1377,
      "max": [
        1.0,
        1.0,
        1.0
      ],
      "min": [
        -1.0,
        -1.0,
        -1.0
      ],
      "type": "VEC3"
    },
    {
      "bufferView": 2,
      "componentType": 5126,
      "count": 1377,
      "max": [
        2.433000087738037,
        1.642953634262085
      ],
      "min": [
        0.0,
        -0.9588979482650757
      ],
      "type": "VEC2"
    },
    {
      "bufferView": 1,
      "componentType": 5125,
      "count": 4176,
      "type": "SCALAR"
    },
    {
      "bufferView": 5,
      "componentType": 5126,
      "count": 14,
      "max": [
        100.0,
        0.0,
        2.3841860752327193e-07,
        0.0,
        0.0,
        100.00000762939453,
        1.0000001192092896,
        0.0,
        2.2784871589465183e-07,
        0.0,
        100.0,
        0.0,
        6.268166430345445e-08,
        0.47665533423423767,
        0.0,
        1.0
      ],
      "min": [
        1.0,
        -2.8657343831934787e-14,
        0.0,
        0.0,
        -7.020253889322703e-08,
        -0.955666720867157,
        0.0,
        0.0,
        -1.2869794777780198e-16,
        -1.0000001192092896,
        -0.9556666612625122,
        0.0,
        0.0,
        -0.21818801760673523,
        -0.43725499510765076,
        1.0
      ],
      "type": "MAT4"
    },
    {
      "bufferView": 0,
      "componentType": 5123,
      "count": 1377,
      "type": "VEC4"
    },
    {
      "bufferView": 4,
      "componentType": 5126,
      "count": 1377,
      "max": [
        1.0,
        0.0,
        0.0,
        0.0
      ],
      "min": [
        1.0,
        0.0,
        0.0,
        0.0
      ],
      "type": "VEC4"
    }
  ],
  "asset": {
    "extras": {
      "author": "3leggedmagpie (https://sketchfab.com/3leggedmagpie)",
      "license": "SKETCHFAB Standard (https://sketchfab.com/licenses)",
      "source": "https://sketchfab.com/3d-models/metal-folding-chair-497d360fcea14423bcc3a8e66e9e6466",
      "title": "Metal Folding Chair"
    },
    "generator": "Sketchfab-17.8.0",
    "version": "2.0"
  },
  "bufferViews": [
    {
      "buffer": 0,
      "byteLength": 11016,
      "byteStride": 8,
      "name": "shortBufferViews",
      "target": 34962
    },
    {
      "buffer": 0,
      "byteLength": 16704,
      "byteOffset": 11016,
      "name": "floatBufferViews",
      "target": 34963
    },
    {
      "buffer": 0,
      "byteLength": 11016,
      "byteOffset": 27720,
      "byteStride": 8,
      "name": "floatBufferViews",
      "target": 34962
    },
    {
      "buffer": 0,
      "byteLength": 33048,
      "byteOffset": 38736,
      "byteStride": 12,
      "name": "floatBufferViews",
      "target": 34962
    },
    {
      "buffer": 0,
      "byteLength": 22032,
      "byteOffset": 71784,
      "byteStride": 16,
      "name": "floatBufferViews",
      "target": 34962
    },
    {
      "buffer": 0,
      "byteLength": 896,
      "byteOffset": 93816,
      "name": "floatBufferViews"
    }
  ],
  "buffers": [
    {
      "byteLength": 94712,
      "uri": "scene.bin"
    }
  ],
  "materials": [
    {
      "doubleSided": true,
      "name": "MetalFoldingChair_Mat",
      "pbrMetallicRoughness": {
        "baseColorFactor": [
          0.0,
          0.0,
          0.0,
          1.0
        ],
        "metallicFactor": 0.0,
        "roughnessFactor": 0.13882040252496108
      }
    }
  ],
  "meshes": [
    {
      "name": "MetalFoldingChair_MetalFoldingChair_Mat_0",
      "primitives": [
        {
          "attributes": {
            "JOINTS_0": 5,
            "NORMAL": 1,
            "POSITION": 0,
            "TEXCOORD_0": 2,
            "WEIGHTS_0": 6
          },
          "indices": 3,
          "material": 0,
          "mode": 4
        }
      ]
    }
  ],
  "nodes": [
    {
      "children": [
        1
      ],
      "matrix": [
        1.0,
        0.0,
        0.0,
        0.0,
        0.0,
        2.220446049250313e-16,
        -1.0,
        0.0,
        0.0,
        1.0,
        2.220446049250313e-16,
        0.0,
        0.0,
        0.0,
        0.0,
        1.0
      ],
      "name": "Sketchfab_model"
    },
    {
      "children": [
        2
      ],
      "matrix": [
        0.009999999776482582,
        0.0,
        0.0,
        0.0,
        0.0,
        0.0,
        0.009999999776482582,
        0.0,
        0.0,
        -0.009999999776482582,
        0.0,
        0.0,
        0.0,
        0.0,
        0.0,
        1.0
      ],
      "name": "ca44e7aced8541648d21fba759b1cd06.fbx"
    },
    {
      "children": [
        3
      ],
      "name": "RootNode"
    },
    {
      "children": [
        4
      ],
      "matrix": [
        100.0,
        0.0,
        0.0,
        0.0,
        0.0,
        -1.629206793918314e-05,
        -99.99999999999868,
        0.0,
        0.0,
        99.99999999999868,
        -1.629206793918314e-05,
        0.0,
        0.0,
        0.0,
        0.0,
        1.0
      ],
      "name": "Chair_Armature"
    },
    {
      "children": [
        5,
        20,
        19
      ],
      "name": "Object_4"
    },
    {
      "children": [
        6,
        17
      ],
      "name": "_rootJoint"
    },
    {
      "children": [
        7,
        10
      ],
      "name": "Frame_00",
      "rotation": [
        0.47790199518203735,
        0.0,
        0.0,
        0.8784131407737732
      ],
      "scale": [
        1.0,
        0.9999999403953552,
        1.0
      ],
      "translation": [
        0.0,
        -0.29946368932724,
        0.009319273754954338
      ]
    },
    {
      "children": [
        8
      ],
      "name": "Seat_01",
      "rotation": [
        -0.47790199518203735,
        3.0752500605745286e-17,
        5.652502319934162e-17,
        0.8784131407737732
      ],
      "scale": [
        1.0,
        0.9999999403953552,
        0.9999999403953552
      ],
      "translation": [
        -2.465190328815662e-31,
        0.5096957087516785,
        -9.499490261077881e-08
      ]
    },
    {
      "children": [
        9
      ],
      "name": "IK_Seat_02",
      "rotation": [
        1.4901161193847656e-08,
        -5.094777692557572e-24,
        -6.434897388890099e-17,
        1.0
      ],
      "translation": [
        -6.990266086258008e-25,
        0.16296623647212982,
        4.183630775145275e-09
      ]
    },
    {
      "name": "IK_Seat_end_08",
      "rotation": [
        -1.3234889800848443e-23,
        -6.368200871124131e-39,
        -0.0,
        1.0
      ],
      "translation": [
        -3.0814879110195774e-33,
        0.09999999403953552,
        0.0
      ]
    },
    {
      "children": [
        11,
        13,
        15
      ],
      "name": "Hinge_03",
      "rotation": [
        -0.26549163460731506,
        -0.0,
        0.0,
        0.964113175868988
      ],
      "scale": [
        1.0,
        0.9999999403953552,
        0.9999998807907104
      ],
      "translation": [
        0.0,
        0.5616958141326904,
        1.0710209608078003e-08
      ]
    },
    {
      "children": [
        12
      ],
      "name": "Hinge.001_04",
      "rotation": [
        0.6710947155952454,
        8.837838549879962e-08,
        8.000071005653808e-08,
        0.7413716316223145
      ],
      "scale": [
        1.0,
        0.9999999403953552,
        0.9999999403953552
      ],
      "translation": [
        0.0,
        0.11739447712898254,
        -3.3527612686157227e-08
      ]
    },
    {
      "name": "Hinge.001_end_09",
      "rotation": [
        -5.551115123125783e-17,
        2.6469779601696886e-23,
        1.4693679385278594e-39,
        1.0
      ],
      "translation": [
        0.0,
        0.008525141514837742,
        0.0
      ]
    },
    {
      "children": [
        14
      ],
      "name": "Hinge.002_05",
      "rotation": [
        0.6710947155952454,
        8.837838549879962e-08,
        8.000071005653808e-08,
        0.7413716316223145
      ],
      "scale": [
        1.0,
        0.9999999403953552,
        0.9999999403953552
      ],
      "translation": [
        0.0,
        0.11739447712898254,
        -3.3527612686157227e-08
      ]
    },
    {
      "name": "Hinge.002_end_010",
      "rotation": [
        -5.551115123125783e-17,
        2.6469779601696886e-23,
        1.4693679385278594e-39,
        1.0
      ],
      "translation": [
        0.0,
        0.008525141514837742,
        0.0
      ]
    },
    {
      "children": [
        16
      ],
      "name": "Legs_06",
      "rotation": [
        -0.7614251971244812,
        7.727780371169501e-08,
        -9.076897811155504e-08,
        0.6482527852058411
      ],
      "scale": [
        1.0,
        1.0,
        1.0000001192092896
      ],
      "translation": [
        0.0,
        0.11739449203014374,
        2.9802322387695313e-08
      ]
    },
    {
      "name": "Legs_end_011",
      "rotation": [
        2.7755575615628914e-17,
        -2.6469779601696886e-23,
        -6.617444900424222e-24,
        1.0
      ],
      "translation": [
        0.0,
        0.10012005269527435,
        5.551115123125783e-17
      ]
    },
    {
      "children": [
        18
      ],
      "name": "Root_07",
      "rotation": [
        0.7071068286895752,
        0.0,
        0.0,
        0.7071067094802856
      ]
    },
    {
      "name": "Root_end_012",
      "translation": [
        0.0,
        0.10000000149011612,
        0.0
      ]
    },
    {
      "matrix": [
        100.0,
        0.0,
        0.0,
        0.0,
        0.0,
        -4.768573087926679e-06,
        -100.0000042347878,
        0.0,
        0.0,
        100.0000030691649,
        -4.7685730323431025e-06,
        0.0,
        0.0,
        -4.774003627971979e-07,
        1.6986166428978322e-06,
        1.0
      ],
      "name": "Object_19"
    },
    {
      "mesh": 0,
      "name": "Object_20",
      "skin": 0
    }
  ],
  "scene": 0,
  "scenes": [
    {
      "name": "Sketchfab_Scene",
      "nodes": [
        0
      ]
    }
  ],
  "skins": [
    {
      "inverseBindMatrices": 4,
      "joints": [
        5,
        6,
        7,
        8,
        9,
        10,
        11,
        12,
        13,
        14,
        15,
        16,
        17,
        18
      ],
      "skeleton": 5
    }
  ]
}
