<svg width="1500" height="1000" viewBox="0 0 1500 1000" fill="none" xmlns="http://www.w3.org/2000/svg">
<g filter="url(#filter0_d_33_13763)">
<rect x="302.854" y="402.926" width="298.689" height="179.213" rx="5.07007" fill="white"/>
</g>
<rect x="310.321" y="440.262" width="59.7378" height="14.9345" rx="2.53504" fill="#E0CCF1"/>
<rect x="310.321" y="470.131" width="59.7378" height="14.9345" rx="2.53504" fill="#E0CCF1"/>
<rect x="310.321" y="500" width="59.7378" height="14.9345" rx="2.53504" fill="#E0CCF1"/>
<rect x="310.321" y="529.869" width="59.7378" height="14.9345" rx="2.53504" fill="#E0CCF1"/>
<rect x="384.992" y="440.262" width="59.7378" height="59.7378" rx="2.53504" fill="#E0CCF1"/>
<rect x="384.992" y="514.934" width="59.7378" height="59.7378" rx="2.53504" fill="#E0CCF1"/>
<rect x="459.664" y="440.262" width="59.7378" height="59.7378" rx="2.53504" fill="#E0CCF1"/>
<rect x="459.664" y="514.934" width="59.7378" height="59.7378" rx="2.53504" fill="#E0CCF1"/>
<rect x="534.338" y="440.262" width="59.7378" height="59.7378" rx="2.53504" fill="#E0CCF1"/>
<path d="M316.143 425.53C315.15 425.53 314.284 425.307 313.544 424.861C312.814 424.405 312.247 423.767 311.841 422.946C311.446 422.125 311.249 421.152 311.249 420.027C311.249 419.176 311.36 418.416 311.583 417.747C311.816 417.068 312.145 416.495 312.571 416.029C312.997 415.553 313.508 415.188 314.106 414.935C314.714 414.671 315.393 414.54 316.143 414.54C317.157 414.54 318.028 414.763 318.758 415.208C319.498 415.654 320.065 416.288 320.46 417.109C320.866 417.919 321.068 418.887 321.068 420.012C321.068 420.863 320.952 421.628 320.719 422.307C320.486 422.986 320.156 423.564 319.731 424.04C319.305 424.517 318.788 424.886 318.18 425.15C317.582 425.403 316.903 425.53 316.143 425.53ZM316.143 424.42C316.914 424.42 317.562 424.248 318.089 423.903C318.626 423.559 319.037 423.057 319.32 422.399C319.604 421.74 319.746 420.949 319.746 420.027C319.746 418.639 319.432 417.565 318.804 416.805C318.185 416.034 317.299 415.649 316.143 415.649C315.393 415.649 314.75 415.822 314.213 416.166C313.686 416.511 313.28 417.012 312.997 417.671C312.713 418.32 312.571 419.105 312.571 420.027C312.571 421.405 312.885 422.485 313.514 423.265C314.142 424.035 315.018 424.42 316.143 424.42ZM325.881 425.5C325.709 425.5 325.557 425.454 325.425 425.363C325.293 425.261 325.182 425.109 325.091 424.907L322.461 418.765C322.39 418.613 322.365 418.472 322.385 418.34C322.405 418.208 322.466 418.102 322.567 418.021C322.669 417.94 322.811 417.899 322.993 417.899C323.155 417.899 323.282 417.934 323.373 418.005C323.464 418.076 323.545 418.203 323.616 418.385L326.109 424.481H325.699L328.237 418.385C328.308 418.203 328.389 418.076 328.481 418.005C328.572 417.934 328.704 417.899 328.876 417.899C329.038 417.899 329.16 417.94 329.241 418.021C329.332 418.102 329.383 418.208 329.393 418.34C329.413 418.461 329.393 418.598 329.332 418.75L326.672 424.907C326.601 425.109 326.494 425.261 326.352 425.363C326.221 425.454 326.064 425.5 325.881 425.5ZM334.178 425.53C333.398 425.53 332.724 425.378 332.156 425.074C331.599 424.76 331.163 424.319 330.849 423.751C330.545 423.184 330.393 422.505 330.393 421.715C330.393 420.944 330.545 420.275 330.849 419.708C331.153 419.13 331.569 418.679 332.096 418.355C332.633 418.031 333.251 417.869 333.95 417.869C334.447 417.869 334.893 417.955 335.288 418.127C335.683 418.289 336.018 418.527 336.291 418.841C336.575 419.156 336.788 419.536 336.93 419.982C337.082 420.427 337.158 420.929 337.158 421.486C337.158 421.649 337.112 421.77 337.021 421.851C336.93 421.922 336.798 421.958 336.626 421.958H331.336V421.152H336.337L336.094 421.35C336.094 420.802 336.012 420.341 335.85 419.966C335.688 419.581 335.45 419.287 335.136 419.085C334.832 418.882 334.447 418.781 333.981 418.781C333.464 418.781 333.023 418.902 332.658 419.146C332.303 419.379 332.035 419.708 331.852 420.134C331.67 420.549 331.579 421.036 331.579 421.593V421.684C331.579 422.616 331.802 423.326 332.248 423.812C332.704 424.299 333.347 424.542 334.178 424.542C334.523 424.542 334.862 424.496 335.197 424.405C335.541 424.314 335.876 424.162 336.2 423.949C336.342 423.858 336.468 423.817 336.58 423.827C336.702 423.827 336.798 423.863 336.869 423.934C336.94 423.995 336.985 424.076 337.006 424.177C337.036 424.268 337.026 424.37 336.975 424.481C336.935 424.593 336.849 424.689 336.717 424.77C336.382 425.013 335.987 425.201 335.531 425.332C335.075 425.464 334.624 425.53 334.178 425.53ZM339.563 425.5C339.36 425.5 339.203 425.444 339.092 425.332C338.99 425.221 338.94 425.064 338.94 424.861V418.522C338.94 418.32 338.99 418.168 339.092 418.066C339.193 417.955 339.34 417.899 339.532 417.899C339.725 417.899 339.872 417.955 339.973 418.066C340.085 418.168 340.14 418.32 340.14 418.522V419.754H339.988C340.151 419.156 340.46 418.695 340.916 418.37C341.372 418.046 341.934 417.874 342.603 417.853C342.755 417.843 342.877 417.879 342.968 417.96C343.059 418.031 343.11 418.157 343.12 418.34C343.13 418.512 343.089 418.649 342.998 418.75C342.907 418.852 342.765 418.912 342.573 418.933L342.329 418.963C341.64 419.024 341.108 419.247 340.733 419.632C340.368 420.007 340.186 420.524 340.186 421.182V424.861C340.186 425.064 340.13 425.221 340.019 425.332C339.918 425.444 339.765 425.5 339.563 425.5ZM347.599 425.5C347.427 425.5 347.275 425.454 347.143 425.363C347.011 425.261 346.9 425.109 346.809 424.907L344.179 418.765C344.108 418.613 344.083 418.472 344.103 418.34C344.123 418.208 344.184 418.102 344.285 418.021C344.387 417.94 344.529 417.899 344.711 417.899C344.873 417.899 345 417.934 345.091 418.005C345.182 418.076 345.263 418.203 345.334 418.385L347.827 424.481H347.417L349.955 418.385C350.026 418.203 350.107 418.076 350.199 418.005C350.29 417.934 350.422 417.899 350.594 417.899C350.756 417.899 350.878 417.94 350.959 418.021C351.05 418.102 351.101 418.208 351.111 418.34C351.131 418.461 351.111 418.598 351.05 418.75L348.39 424.907C348.319 425.109 348.212 425.261 348.07 425.363C347.939 425.454 347.782 425.5 347.599 425.5ZM353.279 425.469C353.076 425.469 352.924 425.413 352.823 425.302C352.722 425.18 352.671 425.013 352.671 424.8V418.583C352.671 418.37 352.722 418.208 352.823 418.097C352.924 417.985 353.076 417.929 353.279 417.929C353.472 417.929 353.624 417.985 353.735 418.097C353.847 418.208 353.902 418.37 353.902 418.583V424.8C353.902 425.013 353.847 425.18 353.735 425.302C353.634 425.413 353.482 425.469 353.279 425.469ZM353.279 416.227C353.026 416.227 352.828 416.161 352.686 416.029C352.544 415.887 352.473 415.7 352.473 415.467C352.473 415.224 352.544 415.041 352.686 414.92C352.828 414.788 353.026 414.722 353.279 414.722C353.543 414.722 353.74 414.788 353.872 414.92C354.014 415.041 354.085 415.224 354.085 415.467C354.085 415.7 354.014 415.887 353.872 416.029C353.74 416.161 353.543 416.227 353.279 416.227ZM359.533 425.53C358.753 425.53 358.079 425.378 357.511 425.074C356.954 424.76 356.518 424.319 356.204 423.751C355.9 423.184 355.748 422.505 355.748 421.715C355.748 420.944 355.9 420.275 356.204 419.708C356.508 419.13 356.924 418.679 357.451 418.355C357.988 418.031 358.606 417.869 359.305 417.869C359.802 417.869 360.248 417.955 360.643 418.127C361.038 418.289 361.373 418.527 361.646 418.841C361.93 419.156 362.143 419.536 362.285 419.982C362.437 420.427 362.513 420.929 362.513 421.486C362.513 421.649 362.467 421.77 362.376 421.851C362.285 421.922 362.153 421.958 361.981 421.958H356.691V421.152H361.692L361.449 421.35C361.449 420.802 361.367 420.341 361.205 419.966C361.043 419.581 360.805 419.287 360.491 419.085C360.187 418.882 359.802 418.781 359.336 418.781C358.819 418.781 358.378 418.902 358.013 419.146C357.658 419.379 357.39 419.708 357.207 420.134C357.025 420.549 356.934 421.036 356.934 421.593V421.684C356.934 422.616 357.157 423.326 357.603 423.812C358.059 424.299 358.702 424.542 359.533 424.542C359.878 424.542 360.217 424.496 360.552 424.405C360.896 424.314 361.231 424.162 361.555 423.949C361.697 423.858 361.823 423.817 361.935 423.827C362.057 423.827 362.153 423.863 362.224 423.934C362.295 423.995 362.34 424.076 362.361 424.177C362.391 424.268 362.381 424.37 362.33 424.481C362.29 424.593 362.204 424.689 362.072 424.77C361.737 425.013 361.342 425.201 360.886 425.332C360.43 425.464 359.979 425.53 359.533 425.53ZM366.759 425.5C366.587 425.5 366.435 425.454 366.303 425.363C366.172 425.272 366.065 425.125 365.984 424.922L363.719 418.765C363.658 418.593 363.638 418.441 363.658 418.309C363.689 418.178 363.755 418.076 363.856 418.005C363.957 417.934 364.084 417.899 364.236 417.899C364.388 417.899 364.51 417.934 364.601 418.005C364.702 418.076 364.783 418.208 364.844 418.401L366.972 424.481H366.607L368.796 418.401C368.867 418.218 368.953 418.092 369.055 418.021C369.166 417.94 369.308 417.899 369.48 417.899C369.642 417.899 369.779 417.94 369.891 418.021C370.002 418.102 370.088 418.228 370.149 418.401L372.293 424.481H371.943L374.101 418.37C374.172 418.188 374.259 418.066 374.36 418.005C374.461 417.934 374.583 417.899 374.725 417.899C374.887 417.899 375.008 417.94 375.09 418.021C375.181 418.102 375.231 418.208 375.242 418.34C375.252 418.472 375.226 418.613 375.166 418.765L372.901 424.922C372.83 425.115 372.723 425.261 372.581 425.363C372.45 425.454 372.298 425.5 372.125 425.5C371.953 425.5 371.801 425.454 371.669 425.363C371.538 425.261 371.436 425.115 371.365 424.922L369.115 418.75H369.769L367.535 424.922C367.464 425.115 367.362 425.261 367.231 425.363C367.099 425.454 366.942 425.5 366.759 425.5Z" fill="#2B2F43"/>
<g filter="url(#filter1_d_33_13763)">
<rect x="729.417" y="216.245" width="298.689" height="179.213" rx="5.07007" fill="white"/>
</g>
<rect x="736.884" y="253.582" width="66.494" height="134.41" rx="2.53504" fill="#E0CCF1"/>
<rect x="811.557" y="253.582" width="209.082" height="134.41" rx="2.53504" fill="#E0CCF1"/>
<path d="M741.459 238.819C741.267 238.819 741.115 238.763 741.003 238.652C740.892 238.53 740.836 238.368 740.836 238.166V229.075H737.416C737.233 229.075 737.092 229.025 736.99 228.923C736.889 228.822 736.838 228.69 736.838 228.528C736.838 228.356 736.889 228.224 736.99 228.133C737.092 228.042 737.233 227.996 737.416 227.996H745.518C745.7 227.996 745.842 228.042 745.944 228.133C746.045 228.224 746.096 228.356 746.096 228.528C746.096 228.7 746.045 228.837 745.944 228.938C745.842 229.03 745.7 229.075 745.518 229.075H742.098V238.166C742.098 238.368 742.042 238.53 741.931 238.652C741.829 238.763 741.672 238.819 741.459 238.819ZM749.096 238.85C748.377 238.85 747.753 238.693 747.227 238.378C746.7 238.064 746.289 237.623 745.995 237.056C745.711 236.478 745.57 235.799 745.57 235.019C745.57 234.431 745.651 233.904 745.813 233.438C745.975 232.962 746.213 232.556 746.527 232.222C746.841 231.887 747.211 231.634 747.637 231.462C748.073 231.279 748.559 231.188 749.096 231.188C749.816 231.188 750.439 231.345 750.966 231.659C751.493 231.974 751.898 232.419 752.182 232.997C752.476 233.565 752.623 234.239 752.623 235.019C752.623 235.607 752.542 236.134 752.38 236.6C752.218 237.066 751.979 237.471 751.665 237.816C751.351 238.15 750.976 238.409 750.54 238.591C750.115 238.763 749.633 238.85 749.096 238.85ZM749.096 237.862C749.552 237.862 749.953 237.75 750.297 237.527C750.642 237.304 750.905 236.98 751.088 236.554C751.28 236.129 751.376 235.617 751.376 235.019C751.376 234.097 751.169 233.392 750.753 232.906C750.348 232.419 749.795 232.176 749.096 232.176C748.63 232.176 748.225 232.288 747.88 232.511C747.546 232.724 747.282 233.043 747.09 233.468C746.907 233.884 746.816 234.401 746.816 235.019C746.816 235.931 747.024 236.635 747.439 237.132C747.855 237.618 748.407 237.862 749.096 237.862ZM755.08 241.555C754.878 241.555 754.726 241.5 754.624 241.388C754.523 241.287 754.472 241.135 754.472 240.932V231.842C754.472 231.639 754.523 231.487 754.624 231.386C754.726 231.274 754.873 231.219 755.065 231.219C755.268 231.219 755.42 231.274 755.521 231.386C755.633 231.487 755.688 231.639 755.688 231.842V233.286L755.521 233.073C755.683 232.496 756.003 232.039 756.479 231.705C756.965 231.36 757.543 231.188 758.212 231.188C758.871 231.188 759.443 231.345 759.93 231.659C760.426 231.963 760.806 232.404 761.07 232.982C761.343 233.549 761.48 234.228 761.48 235.019C761.48 235.799 761.343 236.478 761.07 237.056C760.806 237.623 760.431 238.064 759.945 238.378C759.458 238.693 758.881 238.85 758.212 238.85C757.543 238.85 756.97 238.682 756.494 238.348C756.018 238.003 755.693 237.547 755.521 236.98H755.704V240.932C755.704 241.135 755.648 241.287 755.536 241.388C755.425 241.5 755.273 241.555 755.08 241.555ZM757.953 237.862C758.42 237.862 758.82 237.75 759.154 237.527C759.499 237.304 759.762 236.98 759.945 236.554C760.137 236.129 760.234 235.617 760.234 235.019C760.234 234.097 760.026 233.392 759.61 232.906C759.205 232.419 758.653 232.176 757.953 232.176C757.497 232.176 757.097 232.288 756.753 232.511C756.408 232.724 756.139 233.043 755.947 233.468C755.764 233.884 755.673 234.401 755.673 235.019C755.673 235.931 755.881 236.635 756.296 237.132C756.712 237.618 757.264 237.862 757.953 237.862ZM772.057 238.85C771.003 238.85 770.101 238.627 769.352 238.181C768.602 237.735 768.024 237.101 767.619 236.281C767.223 235.46 767.026 234.482 767.026 233.347C767.026 232.496 767.137 231.735 767.36 231.067C767.593 230.388 767.923 229.815 768.348 229.349C768.784 228.873 769.316 228.508 769.944 228.254C770.573 227.991 771.277 227.859 772.057 227.859C772.686 227.859 773.284 227.95 773.851 228.133C774.419 228.305 774.91 228.563 775.326 228.908C775.457 229.009 775.543 229.126 775.584 229.258C775.635 229.379 775.64 229.501 775.599 229.622C775.569 229.734 775.508 229.83 775.417 229.911C775.336 229.982 775.234 230.018 775.113 230.018C774.991 230.018 774.854 229.967 774.702 229.866C774.337 229.572 773.937 229.354 773.501 229.212C773.066 229.07 772.594 228.999 772.088 228.999C771.287 228.999 770.608 229.172 770.051 229.516C769.493 229.851 769.073 230.342 768.789 230.991C768.505 231.639 768.363 232.425 768.363 233.347C768.363 234.269 768.505 235.059 768.789 235.718C769.073 236.367 769.493 236.863 770.051 237.208C770.608 237.542 771.287 237.709 772.088 237.709C772.584 237.709 773.056 237.639 773.501 237.497C773.947 237.345 774.358 237.122 774.733 236.828C774.885 236.726 775.022 236.681 775.143 236.691C775.265 236.691 775.366 236.726 775.447 236.797C775.528 236.868 775.584 236.96 775.614 237.071C775.655 237.183 775.655 237.299 775.614 237.421C775.584 237.542 775.508 237.649 775.386 237.74C774.961 238.105 774.459 238.383 773.881 238.576C773.314 238.758 772.706 238.85 772.057 238.85ZM780.018 238.85C779.299 238.85 778.675 238.693 778.148 238.378C777.621 238.064 777.211 237.623 776.917 237.056C776.633 236.478 776.491 235.799 776.491 235.019C776.491 234.431 776.572 233.904 776.735 233.438C776.897 232.962 777.135 232.556 777.449 232.222C777.763 231.887 778.133 231.634 778.559 231.462C778.995 231.279 779.481 231.188 780.018 231.188C780.738 231.188 781.361 231.345 781.888 231.659C782.415 231.974 782.82 232.419 783.104 232.997C783.398 233.565 783.545 234.239 783.545 235.019C783.545 235.607 783.464 236.134 783.302 236.6C783.139 237.066 782.901 237.471 782.587 237.816C782.273 238.15 781.898 238.409 781.462 238.591C781.037 238.763 780.555 238.85 780.018 238.85ZM780.018 237.862C780.474 237.862 780.874 237.75 781.219 237.527C781.564 237.304 781.827 236.98 782.009 236.554C782.202 236.129 782.298 235.617 782.298 235.019C782.298 234.097 782.091 233.392 781.675 232.906C781.27 232.419 780.717 232.176 780.018 232.176C779.552 232.176 779.147 232.288 778.802 232.511C778.468 232.724 778.204 233.043 778.012 233.468C777.829 233.884 777.738 234.401 777.738 235.019C777.738 235.931 777.946 236.635 778.361 237.132C778.777 237.618 779.329 237.862 780.018 237.862ZM786.002 238.819C785.8 238.819 785.648 238.763 785.546 238.652C785.445 238.54 785.394 238.383 785.394 238.181V231.842C785.394 231.639 785.445 231.487 785.546 231.386C785.648 231.274 785.794 231.219 785.987 231.219C786.18 231.219 786.327 231.274 786.428 231.386C786.539 231.487 786.595 231.639 786.595 231.842V233.149L786.428 232.967C786.641 232.379 786.985 231.938 787.462 231.644C787.948 231.34 788.505 231.188 789.134 231.188C789.721 231.188 790.208 231.295 790.593 231.507C790.988 231.72 791.282 232.045 791.475 232.48C791.667 232.906 791.763 233.448 791.763 234.107V238.181C791.763 238.383 791.708 238.54 791.596 238.652C791.495 238.763 791.348 238.819 791.155 238.819C790.953 238.819 790.796 238.763 790.684 238.652C790.583 238.54 790.532 238.383 790.532 238.181V234.183C790.532 233.494 790.395 232.992 790.122 232.678C789.858 232.354 789.433 232.191 788.845 232.191C788.166 232.191 787.624 232.404 787.218 232.83C786.823 233.245 786.625 233.803 786.625 234.502V238.181C786.625 238.606 786.418 238.819 786.002 238.819ZM797.165 238.85C796.426 238.85 795.787 238.687 795.25 238.363C794.713 238.039 794.297 237.588 794.003 237.01C793.72 236.422 793.578 235.743 793.578 234.973C793.578 234.386 793.659 233.859 793.821 233.392C793.983 232.926 794.221 232.531 794.536 232.207C794.85 231.872 795.225 231.619 795.66 231.447C796.106 231.274 796.608 231.188 797.165 231.188C797.53 231.188 797.91 231.244 798.305 231.355C798.701 231.467 799.06 231.659 799.385 231.933C799.486 232.004 799.552 232.09 799.582 232.191C799.613 232.293 799.613 232.394 799.582 232.496C799.552 232.587 799.501 232.668 799.43 232.739C799.359 232.8 799.268 232.835 799.157 232.845C799.055 232.855 798.949 232.82 798.837 232.739C798.574 232.536 798.305 232.394 798.032 232.313C797.758 232.232 797.495 232.191 797.241 232.191C796.846 232.191 796.502 232.257 796.208 232.389C795.914 232.511 795.665 232.688 795.463 232.921C795.26 233.154 795.103 233.443 794.992 233.788C794.89 234.132 794.84 234.532 794.84 234.988C794.84 235.87 795.047 236.569 795.463 237.086C795.878 237.593 796.471 237.846 797.241 237.846C797.495 237.846 797.753 237.806 798.017 237.725C798.29 237.644 798.564 237.502 798.837 237.299C798.949 237.218 799.055 237.183 799.157 237.193C799.258 237.203 799.344 237.243 799.415 237.314C799.486 237.375 799.532 237.456 799.552 237.557C799.582 237.659 799.582 237.76 799.552 237.862C799.522 237.953 799.456 238.034 799.354 238.105C799.03 238.368 798.675 238.561 798.29 238.682C797.905 238.794 797.53 238.85 797.165 238.85ZM804.251 238.85C803.471 238.85 802.797 238.698 802.229 238.394C801.672 238.079 801.236 237.639 800.922 237.071C800.618 236.504 800.466 235.825 800.466 235.034C800.466 234.264 800.618 233.595 800.922 233.028C801.226 232.45 801.641 231.999 802.168 231.675C802.706 231.35 803.324 231.188 804.023 231.188C804.52 231.188 804.965 231.274 805.361 231.447C805.756 231.609 806.09 231.847 806.364 232.161C806.648 232.475 806.86 232.855 807.002 233.301C807.154 233.747 807.23 234.249 807.23 234.806C807.23 234.968 807.185 235.09 807.094 235.171C807.002 235.242 806.871 235.277 806.698 235.277H801.408V234.472H806.41L806.166 234.669C806.166 234.122 806.085 233.661 805.923 233.286C805.761 232.901 805.523 232.607 805.209 232.404C804.905 232.202 804.52 232.1 804.053 232.1C803.537 232.1 803.096 232.222 802.731 232.465C802.376 232.698 802.108 233.028 801.925 233.453C801.743 233.869 801.652 234.355 801.652 234.912V235.004C801.652 235.936 801.875 236.645 802.32 237.132C802.776 237.618 803.42 237.862 804.251 237.862C804.596 237.862 804.935 237.816 805.269 237.725C805.614 237.633 805.948 237.481 806.273 237.269C806.415 237.177 806.541 237.137 806.653 237.147C806.774 237.147 806.871 237.183 806.942 237.253C807.013 237.314 807.058 237.395 807.078 237.497C807.109 237.588 807.099 237.689 807.048 237.801C807.007 237.912 806.921 238.008 806.79 238.09C806.455 238.333 806.06 238.52 805.604 238.652C805.148 238.784 804.697 238.85 804.251 238.85ZM809.62 241.555C809.418 241.555 809.266 241.5 809.164 241.388C809.063 241.287 809.012 241.135 809.012 240.932V231.842C809.012 231.639 809.063 231.487 809.164 231.386C809.266 231.274 809.413 231.219 809.605 231.219C809.808 231.219 809.96 231.274 810.061 231.386C810.173 231.487 810.228 231.639 810.228 231.842V233.286L810.061 233.073C810.223 232.496 810.543 232.039 811.019 231.705C811.505 231.36 812.083 231.188 812.752 231.188C813.411 231.188 813.983 231.345 814.47 231.659C814.966 231.963 815.346 232.404 815.61 232.982C815.883 233.549 816.02 234.228 816.02 235.019C816.02 235.799 815.883 236.478 815.61 237.056C815.346 237.623 814.971 238.064 814.485 238.378C813.998 238.693 813.421 238.85 812.752 238.85C812.083 238.85 811.51 238.682 811.034 238.348C810.558 238.003 810.234 237.547 810.061 236.98H810.244V240.932C810.244 241.135 810.188 241.287 810.076 241.388C809.965 241.5 809.813 241.555 809.62 241.555ZM812.493 237.862C812.96 237.862 813.36 237.75 813.694 237.527C814.039 237.304 814.302 236.98 814.485 236.554C814.677 236.129 814.774 235.617 814.774 235.019C814.774 234.097 814.566 233.392 814.15 232.906C813.745 232.419 813.193 232.176 812.493 232.176C812.037 232.176 811.637 232.288 811.293 232.511C810.948 232.724 810.679 233.043 810.487 233.468C810.304 233.884 810.213 234.401 810.213 235.019C810.213 235.931 810.421 236.635 810.836 237.132C811.252 237.618 811.804 237.862 812.493 237.862ZM820.765 238.85C820.187 238.85 819.701 238.748 819.305 238.546C818.92 238.333 818.632 238.029 818.439 237.633C818.246 237.228 818.15 236.737 818.15 236.159V232.283H817.132C816.959 232.283 816.828 232.242 816.736 232.161C816.645 232.07 816.6 231.948 816.6 231.796C816.6 231.644 816.645 231.528 816.736 231.447C816.828 231.366 816.959 231.325 817.132 231.325H818.15V229.577C818.15 229.374 818.206 229.222 818.317 229.121C818.429 229.009 818.581 228.954 818.773 228.954C818.966 228.954 819.113 229.009 819.214 229.121C819.326 229.222 819.381 229.374 819.381 229.577V231.325H821.297C821.469 231.325 821.601 231.366 821.692 231.447C821.783 231.528 821.829 231.644 821.829 231.796C821.829 231.948 821.783 232.07 821.692 232.161C821.601 232.242 821.469 232.283 821.297 232.283H819.381V236.037C819.381 236.615 819.503 237.056 819.746 237.36C819.989 237.654 820.385 237.801 820.932 237.801C821.125 237.801 821.287 237.78 821.418 237.74C821.56 237.699 821.677 237.679 821.768 237.679C821.859 237.669 821.935 237.699 821.996 237.77C822.057 237.841 822.087 237.963 822.087 238.135C822.087 238.257 822.062 238.368 822.011 238.47C821.971 238.571 821.895 238.642 821.783 238.682C821.662 238.723 821.499 238.758 821.297 238.789C821.104 238.829 820.927 238.85 820.765 238.85ZM825.608 238.85C825.152 238.85 824.691 238.794 824.225 238.682C823.769 238.571 823.343 238.378 822.948 238.105C822.846 238.034 822.775 237.953 822.735 237.862C822.694 237.76 822.679 237.664 822.689 237.573C822.71 237.471 822.75 237.385 822.811 237.314C822.882 237.243 822.963 237.203 823.054 237.193C823.156 237.172 823.267 237.193 823.389 237.253C823.784 237.497 824.164 237.669 824.529 237.77C824.904 237.862 825.274 237.907 825.638 237.907C826.216 237.907 826.652 237.801 826.946 237.588C827.24 237.375 827.387 237.086 827.387 236.721C827.387 236.438 827.29 236.215 827.098 236.053C826.905 235.88 826.601 235.749 826.186 235.657L824.802 235.353C824.164 235.222 823.688 234.994 823.373 234.669C823.069 234.345 822.917 233.924 822.917 233.408C822.917 232.952 823.034 232.561 823.267 232.237C823.51 231.903 823.85 231.644 824.285 231.462C824.721 231.279 825.228 231.188 825.806 231.188C826.251 231.188 826.672 231.249 827.067 231.371C827.473 231.482 827.837 231.665 828.162 231.918C828.263 231.989 828.329 232.075 828.359 232.176C828.4 232.267 828.405 232.364 828.375 232.465C828.354 232.556 828.309 232.637 828.238 232.708C828.167 232.769 828.081 232.805 827.979 232.815C827.878 232.825 827.772 232.794 827.66 232.724C827.356 232.521 827.047 232.374 826.733 232.283C826.419 232.181 826.11 232.131 825.806 232.131C825.238 232.131 824.807 232.242 824.513 232.465C824.22 232.688 824.073 232.982 824.073 233.347C824.073 233.631 824.164 233.864 824.346 234.046C824.529 234.228 824.812 234.36 825.198 234.441L826.581 234.73C827.24 234.872 827.731 235.1 828.055 235.414C828.39 235.718 828.557 236.134 828.557 236.661C828.557 237.329 828.288 237.862 827.751 238.257C827.214 238.652 826.5 238.85 825.608 238.85Z" fill="#2B2F43"/>
<path d="M483.524 457.464C483.524 461.195 486.549 464.22 490.28 464.22C494.012 464.22 497.036 461.195 497.036 457.464C497.036 453.732 494.012 450.707 490.28 450.707C486.549 450.707 483.524 453.732 483.524 457.464ZM706.99 305.852L694.322 298.539V313.166L706.99 305.852ZM491.547 457.464V315.986H489.014V457.464H491.547ZM500.414 307.119H695.589V304.585H500.414V307.119ZM491.547 315.986C491.547 311.089 495.517 307.119 500.414 307.119V304.585C494.118 304.585 489.014 309.69 489.014 315.986H491.547Z" fill="#AB83D4"/>
<g filter="url(#filter2_d_33_13763)">
<path d="M1114.86 313.32H1197V246.115L1167.13 216.246H1114.86V313.32Z" fill="white"/>
</g>
<path d="M1132.71 299.944H1131.41C1131.3 299.944 1131.21 299.916 1131.15 299.86C1131.08 299.8 1131.03 299.734 1130.99 299.663L1129.05 296.645C1129.03 296.716 1129.01 296.787 1128.99 296.858C1128.97 296.924 1128.94 296.985 1128.9 297.041L1127.1 299.663C1127.05 299.734 1127 299.8 1126.93 299.86C1126.88 299.916 1126.8 299.944 1126.7 299.944H1125.49L1128.19 295.992L1125.6 292.245H1126.9C1127.01 292.245 1127.09 292.262 1127.14 292.298C1127.19 292.333 1127.24 292.384 1127.28 292.45L1129.17 295.338C1129.21 295.191 1129.27 295.049 1129.36 294.913L1131.02 292.48C1131.06 292.409 1131.11 292.354 1131.16 292.313C1131.22 292.268 1131.28 292.245 1131.36 292.245H1132.6L1130.01 295.923L1132.71 299.944ZM1135.36 288.748V299.944H1134V288.748H1135.36ZM1142.03 293.514C1141.97 293.625 1141.88 293.681 1141.75 293.681C1141.68 293.681 1141.59 293.653 1141.5 293.598C1141.4 293.542 1141.28 293.481 1141.14 293.415C1141 293.344 1140.84 293.281 1140.64 293.225C1140.45 293.164 1140.22 293.134 1139.96 293.134C1139.73 293.134 1139.53 293.164 1139.34 293.225C1139.16 293.281 1139 293.359 1138.87 293.461C1138.75 293.562 1138.65 293.681 1138.58 293.818C1138.51 293.95 1138.48 294.094 1138.48 294.251C1138.48 294.449 1138.53 294.614 1138.64 294.745C1138.76 294.877 1138.91 294.991 1139.1 295.087C1139.29 295.184 1139.5 295.27 1139.74 295.346C1139.98 295.417 1140.22 295.495 1140.47 295.581C1140.72 295.662 1140.97 295.754 1141.21 295.855C1141.44 295.956 1141.66 296.083 1141.84 296.235C1142.03 296.387 1142.18 296.575 1142.29 296.797C1142.41 297.015 1142.47 297.279 1142.47 297.588C1142.47 297.943 1142.4 298.272 1142.28 298.576C1142.15 298.875 1141.96 299.136 1141.72 299.359C1141.47 299.577 1141.16 299.749 1140.8 299.876C1140.44 300.002 1140.03 300.066 1139.56 300.066C1139.02 300.066 1138.53 299.98 1138.1 299.807C1137.66 299.63 1137.29 299.404 1136.99 299.131L1137.31 298.614C1137.35 298.548 1137.4 298.497 1137.45 298.462C1137.51 298.427 1137.58 298.409 1137.66 298.409C1137.76 298.409 1137.85 298.444 1137.95 298.515C1138.05 298.586 1138.18 298.665 1138.32 298.751C1138.47 298.837 1138.64 298.915 1138.85 298.986C1139.06 299.057 1139.32 299.093 1139.63 299.093C1139.89 299.093 1140.12 299.06 1140.32 298.994C1140.51 298.923 1140.68 298.829 1140.81 298.713C1140.94 298.596 1141.04 298.462 1141.1 298.31C1141.17 298.158 1141.2 297.996 1141.2 297.824C1141.2 297.611 1141.14 297.436 1141.02 297.299C1140.91 297.157 1140.76 297.038 1140.58 296.942C1140.39 296.841 1140.17 296.754 1139.93 296.683C1139.69 296.607 1139.45 296.529 1139.19 296.448C1138.94 296.367 1138.7 296.276 1138.45 296.174C1138.22 296.068 1138 295.936 1137.82 295.779C1137.63 295.622 1137.48 295.429 1137.36 295.201C1137.25 294.968 1137.19 294.687 1137.19 294.358C1137.19 294.064 1137.25 293.783 1137.38 293.514C1137.5 293.24 1137.67 293.002 1137.91 292.8C1138.14 292.592 1138.43 292.427 1138.77 292.306C1139.11 292.184 1139.49 292.123 1139.93 292.123C1140.44 292.123 1140.89 292.204 1141.29 292.366C1141.7 292.523 1142.04 292.741 1142.34 293.02L1142.03 293.514ZM1150.45 299.944H1149.15C1149.04 299.944 1148.95 299.916 1148.88 299.86C1148.82 299.8 1148.77 299.734 1148.73 299.663L1146.79 296.645C1146.77 296.716 1146.75 296.787 1146.73 296.858C1146.71 296.924 1146.68 296.985 1146.63 297.041L1144.84 299.663C1144.79 299.734 1144.73 299.8 1144.67 299.86C1144.62 299.916 1144.54 299.944 1144.44 299.944H1143.23L1145.93 295.992L1143.34 292.245H1144.64C1144.75 292.245 1144.83 292.262 1144.88 292.298C1144.93 292.333 1144.98 292.384 1145.02 292.45L1146.91 295.338C1146.95 295.191 1147.01 295.049 1147.1 294.913L1148.76 292.48C1148.8 292.409 1148.85 292.354 1148.9 292.313C1148.96 292.268 1149.02 292.245 1149.1 292.245H1150.34L1147.75 295.923L1150.45 299.944Z" fill="#AB83D4"/>
<g filter="url(#filter3_d_33_13763)">
<path d="M1167.13 216.246L1197 246.115H1167.13V216.246Z" fill="#F2F4FF"/>
</g>
<path d="M1036.35 235.66C1036.35 239.392 1039.38 242.416 1043.11 242.416C1046.84 242.416 1049.87 239.392 1049.87 235.66C1049.87 231.929 1046.84 228.904 1043.11 228.904C1039.38 228.904 1036.35 231.929 1036.35 235.66ZM1095.45 235.66L1082.78 228.347V242.974L1095.45 235.66ZM1043.11 236.927H1084.05V234.394H1043.11V236.927Z" fill="#AB83D4"/>
<g filter="url(#filter4_d_33_13763)">
<rect x="729.418" y="410.393" width="298.689" height="179.213" rx="5.07007" fill="white"/>
</g>
<rect x="736.885" y="447.729" width="66.494" height="134.41" rx="2.53504" fill="#E0CCF1"/>
<rect x="811.558" y="447.729" width="209.082" height="134.41" rx="2.53504" fill="#E0CCF1"/>
<path d="M741.673 432.997C741.197 432.997 740.731 432.957 740.275 432.876C739.819 432.795 739.393 432.678 738.998 432.526C738.613 432.374 738.263 432.182 737.949 431.949C737.827 431.857 737.741 431.756 737.69 431.645C737.65 431.523 737.64 431.406 737.66 431.295C737.69 431.173 737.741 431.072 737.812 430.991C737.893 430.91 737.989 430.864 738.101 430.854C738.212 430.844 738.334 430.879 738.466 430.96C738.922 431.285 739.408 431.523 739.925 431.675C740.442 431.817 741.025 431.888 741.673 431.888C742.585 431.888 743.259 431.721 743.695 431.386C744.141 431.042 744.364 430.591 744.364 430.033C744.364 429.577 744.202 429.222 743.877 428.969C743.563 428.706 743.031 428.498 742.281 428.346L740.7 428.027C739.748 427.824 739.033 427.495 738.557 427.039C738.091 426.572 737.858 425.954 737.858 425.184C737.858 424.708 737.954 424.277 738.146 423.892C738.339 423.497 738.608 423.162 738.952 422.889C739.297 422.605 739.707 422.387 740.183 422.235C740.66 422.083 741.187 422.007 741.764 422.007C742.403 422.007 742.996 422.098 743.543 422.281C744.1 422.453 744.602 422.716 745.048 423.071C745.159 423.162 745.235 423.269 745.276 423.39C745.316 423.502 745.321 423.613 745.291 423.725C745.261 423.826 745.205 423.912 745.124 423.983C745.053 424.054 744.957 424.095 744.835 424.105C744.723 424.115 744.597 424.074 744.455 423.983C744.05 423.679 743.629 423.461 743.193 423.329C742.757 423.188 742.276 423.117 741.749 423.117C741.212 423.117 740.746 423.198 740.351 423.36C739.966 423.522 739.662 423.76 739.439 424.074C739.226 424.378 739.119 424.733 739.119 425.138C739.119 425.625 739.266 426.01 739.56 426.294C739.864 426.577 740.356 426.785 741.035 426.917L742.616 427.251C743.639 427.464 744.394 427.788 744.881 428.224C745.377 428.65 745.625 429.233 745.625 429.972C745.625 430.418 745.534 430.829 745.352 431.204C745.169 431.579 744.906 431.903 744.561 432.177C744.217 432.44 743.801 432.643 743.315 432.785C742.828 432.926 742.281 432.997 741.673 432.997ZM750.524 432.997C749.784 432.997 749.146 432.835 748.608 432.511C748.071 432.187 747.656 431.736 747.362 431.158C747.078 430.57 746.936 429.891 746.936 429.121C746.936 428.533 747.017 428.006 747.179 427.54C747.342 427.074 747.58 426.679 747.894 426.355C748.208 426.02 748.583 425.767 749.019 425.594C749.465 425.422 749.966 425.336 750.524 425.336C750.889 425.336 751.269 425.392 751.664 425.503C752.059 425.615 752.419 425.807 752.743 426.081C752.844 426.152 752.91 426.238 752.941 426.339C752.971 426.441 752.971 426.542 752.941 426.643C752.91 426.735 752.86 426.816 752.789 426.887C752.718 426.947 752.627 426.983 752.515 426.993C752.414 427.003 752.307 426.968 752.196 426.887C751.932 426.684 751.664 426.542 751.39 426.461C751.117 426.38 750.853 426.339 750.6 426.339C750.205 426.339 749.86 426.405 749.566 426.537C749.272 426.659 749.024 426.836 748.821 427.069C748.619 427.302 748.461 427.591 748.35 427.935C748.249 428.28 748.198 428.68 748.198 429.136C748.198 430.018 748.406 430.717 748.821 431.234C749.237 431.741 749.83 431.994 750.6 431.994C750.853 431.994 751.112 431.954 751.375 431.873C751.649 431.791 751.922 431.65 752.196 431.447C752.307 431.366 752.414 431.33 752.515 431.34C752.616 431.351 752.703 431.391 752.774 431.462C752.844 431.523 752.89 431.604 752.91 431.705C752.941 431.807 752.941 431.908 752.91 432.009C752.88 432.101 752.814 432.182 752.713 432.253C752.388 432.516 752.034 432.709 751.649 432.83C751.264 432.942 750.889 432.997 750.524 432.997ZM757.351 432.997C756.631 432.997 756.008 432.84 755.481 432.526C754.954 432.212 754.544 431.771 754.25 431.204C753.966 430.626 753.824 429.947 753.824 429.167C753.824 428.579 753.905 428.052 754.068 427.586C754.23 427.109 754.468 426.704 754.782 426.37C755.096 426.035 755.466 425.782 755.892 425.61C756.327 425.427 756.814 425.336 757.351 425.336C758.07 425.336 758.694 425.493 759.221 425.807C759.748 426.121 760.153 426.567 760.437 427.145C760.731 427.712 760.878 428.386 760.878 429.167C760.878 429.754 760.797 430.281 760.634 430.748C760.472 431.214 760.234 431.619 759.92 431.964C759.606 432.298 759.231 432.557 758.795 432.739C758.369 432.911 757.888 432.997 757.351 432.997ZM757.351 432.009C757.807 432.009 758.207 431.898 758.552 431.675C758.896 431.452 759.16 431.128 759.342 430.702C759.535 430.276 759.631 429.765 759.631 429.167C759.631 428.245 759.423 427.54 759.008 427.054C758.603 426.567 758.05 426.324 757.351 426.324C756.885 426.324 756.479 426.436 756.135 426.659C755.8 426.871 755.537 427.191 755.344 427.616C755.162 428.032 755.071 428.549 755.071 429.167C755.071 430.079 755.279 430.783 755.694 431.28C756.11 431.766 756.662 432.009 757.351 432.009ZM763.35 432.967C763.148 432.967 762.991 432.911 762.879 432.8C762.778 432.688 762.727 432.531 762.727 432.329V425.99C762.727 425.787 762.778 425.635 762.879 425.534C762.98 425.422 763.127 425.366 763.32 425.366C763.512 425.366 763.659 425.422 763.761 425.534C763.872 425.635 763.928 425.787 763.928 425.99V427.221H763.776C763.938 426.623 764.247 426.162 764.703 425.838C765.159 425.513 765.722 425.341 766.391 425.321C766.543 425.311 766.664 425.346 766.755 425.427C766.847 425.498 766.897 425.625 766.907 425.807C766.918 425.98 766.877 426.116 766.786 426.218C766.695 426.319 766.553 426.38 766.36 426.4L766.117 426.431C765.428 426.491 764.896 426.714 764.521 427.099C764.156 427.474 763.974 427.991 763.974 428.65V432.329C763.974 432.531 763.918 432.688 763.806 432.8C763.705 432.911 763.553 432.967 763.35 432.967ZM771.415 432.997C770.635 432.997 769.961 432.845 769.393 432.541C768.836 432.227 768.4 431.786 768.086 431.219C767.782 430.651 767.63 429.972 767.63 429.182C767.63 428.412 767.782 427.743 768.086 427.175C768.39 426.598 768.806 426.147 769.333 425.822C769.87 425.498 770.488 425.336 771.187 425.336C771.684 425.336 772.13 425.422 772.525 425.594C772.92 425.757 773.254 425.995 773.528 426.309C773.812 426.623 774.025 427.003 774.167 427.449C774.319 427.895 774.395 428.397 774.395 428.954C774.395 429.116 774.349 429.238 774.258 429.319C774.167 429.39 774.035 429.425 773.862 429.425H768.572V428.619H773.574L773.33 428.817C773.33 428.27 773.249 427.809 773.087 427.434C772.925 427.049 772.687 426.755 772.373 426.552C772.069 426.349 771.684 426.248 771.217 426.248C770.701 426.248 770.26 426.37 769.895 426.613C769.54 426.846 769.272 427.175 769.089 427.601C768.907 428.016 768.816 428.503 768.816 429.06V429.152C768.816 430.084 769.039 430.793 769.485 431.28C769.941 431.766 770.584 432.009 771.415 432.009C771.76 432.009 772.099 431.964 772.434 431.873C772.778 431.781 773.113 431.629 773.437 431.416C773.579 431.325 773.705 431.285 773.817 431.295C773.938 431.295 774.035 431.33 774.106 431.401C774.177 431.462 774.222 431.543 774.243 431.645C774.273 431.736 774.263 431.837 774.212 431.949C774.172 432.06 774.085 432.156 773.954 432.237C773.619 432.481 773.224 432.668 772.768 432.8C772.312 432.932 771.861 432.997 771.415 432.997ZM780.947 432.861C780.724 432.861 780.552 432.805 780.43 432.693C780.318 432.572 780.263 432.399 780.263 432.177V422.828C780.263 422.605 780.318 422.438 780.43 422.326C780.552 422.205 780.724 422.144 780.947 422.144H783.881C785.614 422.144 786.951 422.6 787.894 423.512C788.836 424.424 789.307 425.752 789.307 427.495C789.307 428.366 789.186 429.136 788.943 429.805C788.71 430.464 788.36 431.021 787.894 431.477C787.428 431.933 786.86 432.278 786.191 432.511C785.522 432.744 784.752 432.861 783.881 432.861H780.947ZM781.509 431.797H783.789C784.499 431.797 785.112 431.705 785.629 431.523C786.156 431.34 786.591 431.072 786.936 430.717C787.291 430.363 787.554 429.917 787.727 429.38C787.899 428.832 787.985 428.204 787.985 427.495C787.985 426.066 787.635 424.997 786.936 424.287C786.237 423.568 785.188 423.208 783.789 423.208H781.509V431.797ZM792.001 432.967C791.798 432.967 791.641 432.911 791.53 432.8C791.428 432.688 791.378 432.531 791.378 432.329V425.99C791.378 425.787 791.428 425.635 791.53 425.534C791.631 425.422 791.778 425.366 791.97 425.366C792.163 425.366 792.31 425.422 792.411 425.534C792.523 425.635 792.579 425.787 792.579 425.99V427.221H792.427C792.589 426.623 792.898 426.162 793.354 425.838C793.81 425.513 794.372 425.341 795.041 425.321C795.193 425.311 795.315 425.346 795.406 425.427C795.497 425.498 795.548 425.625 795.558 425.807C795.568 425.98 795.528 426.116 795.436 426.218C795.345 426.319 795.203 426.38 795.011 426.4L794.767 426.431C794.078 426.491 793.546 426.714 793.171 427.099C792.807 427.474 792.624 427.991 792.624 428.65V432.329C792.624 432.531 792.568 432.688 792.457 432.8C792.356 432.911 792.204 432.967 792.001 432.967ZM797.434 432.937C797.231 432.937 797.079 432.881 796.978 432.769C796.876 432.648 796.826 432.481 796.826 432.268V426.05C796.826 425.838 796.876 425.676 796.978 425.564C797.079 425.453 797.231 425.397 797.434 425.397C797.626 425.397 797.778 425.453 797.89 425.564C798.001 425.676 798.057 425.838 798.057 426.05V432.268C798.057 432.481 798.001 432.648 797.89 432.769C797.788 432.881 797.636 432.937 797.434 432.937ZM797.434 423.694C797.18 423.694 796.983 423.628 796.841 423.497C796.699 423.355 796.628 423.167 796.628 422.934C796.628 422.691 796.699 422.509 796.841 422.387C796.983 422.255 797.18 422.189 797.434 422.189C797.697 422.189 797.895 422.255 798.027 422.387C798.168 422.509 798.239 422.691 798.239 422.934C798.239 423.167 798.168 423.355 798.027 423.497C797.895 423.628 797.697 423.694 797.434 423.694ZM803.11 432.967C802.938 432.967 802.786 432.921 802.654 432.83C802.522 432.729 802.411 432.577 802.32 432.374L799.69 426.233C799.619 426.081 799.594 425.939 799.614 425.807C799.634 425.676 799.695 425.569 799.796 425.488C799.898 425.407 800.04 425.366 800.222 425.366C800.384 425.366 800.511 425.402 800.602 425.473C800.693 425.544 800.774 425.67 800.845 425.853L803.338 431.949H802.928L805.466 425.853C805.537 425.67 805.618 425.544 805.71 425.473C805.801 425.402 805.933 425.366 806.105 425.366C806.267 425.366 806.389 425.407 806.47 425.488C806.561 425.569 806.612 425.676 806.622 425.807C806.642 425.929 806.622 426.066 806.561 426.218L803.901 432.374C803.83 432.577 803.723 432.729 803.581 432.83C803.45 432.921 803.293 432.967 803.11 432.967ZM811.407 432.997C810.627 432.997 809.953 432.845 809.385 432.541C808.828 432.227 808.392 431.786 808.078 431.219C807.774 430.651 807.622 429.972 807.622 429.182C807.622 428.412 807.774 427.743 808.078 427.175C808.382 426.598 808.798 426.147 809.325 425.822C809.862 425.498 810.48 425.336 811.179 425.336C811.676 425.336 812.122 425.422 812.517 425.594C812.912 425.757 813.246 425.995 813.52 426.309C813.804 426.623 814.017 427.003 814.159 427.449C814.311 427.895 814.387 428.397 814.387 428.954C814.387 429.116 814.341 429.238 814.25 429.319C814.159 429.39 814.027 429.425 813.855 429.425H808.565V428.619H813.566L813.323 428.817C813.323 428.27 813.241 427.809 813.079 427.434C812.917 427.049 812.679 426.755 812.365 426.552C812.061 426.349 811.676 426.248 811.21 426.248C810.693 426.248 810.252 426.37 809.887 426.613C809.532 426.846 809.264 427.175 809.081 427.601C808.899 428.016 808.808 428.503 808.808 429.06V429.152C808.808 430.084 809.031 430.793 809.477 431.28C809.933 431.766 810.576 432.009 811.407 432.009C811.752 432.009 812.091 431.964 812.426 431.873C812.77 431.781 813.105 431.629 813.429 431.416C813.571 431.325 813.697 431.285 813.809 431.295C813.931 431.295 814.027 431.33 814.098 431.401C814.169 431.462 814.214 431.543 814.235 431.645C814.265 431.736 814.255 431.837 814.204 431.949C814.164 432.06 814.077 432.156 813.946 432.237C813.611 432.481 813.216 432.668 812.76 432.8C812.304 432.932 811.853 432.997 811.407 432.997ZM816.792 432.967C816.589 432.967 816.432 432.911 816.321 432.8C816.219 432.688 816.169 432.531 816.169 432.329V425.99C816.169 425.787 816.219 425.635 816.321 425.534C816.422 425.422 816.569 425.366 816.761 425.366C816.954 425.366 817.101 425.422 817.202 425.534C817.314 425.635 817.369 425.787 817.369 425.99V427.221H817.217C817.38 426.623 817.689 426.162 818.145 425.838C818.601 425.513 819.163 425.341 819.832 425.321C819.984 425.311 820.106 425.346 820.197 425.427C820.288 425.498 820.339 425.625 820.349 425.807C820.359 425.98 820.318 426.116 820.227 426.218C820.136 426.319 819.994 426.38 819.802 426.4L819.558 426.431C818.869 426.491 818.337 426.714 817.962 427.099C817.597 427.474 817.415 427.991 817.415 428.65V432.329C817.415 432.531 817.359 432.688 817.248 432.8C817.147 432.911 816.994 432.967 816.792 432.967ZM824.035 432.997C823.579 432.997 823.118 432.942 822.652 432.83C822.196 432.719 821.77 432.526 821.375 432.253C821.274 432.182 821.203 432.101 821.162 432.009C821.122 431.908 821.107 431.812 821.117 431.721C821.137 431.619 821.178 431.533 821.238 431.462C821.309 431.391 821.39 431.351 821.482 431.34C821.583 431.32 821.694 431.34 821.816 431.401C822.211 431.645 822.591 431.817 822.956 431.918C823.331 432.009 823.701 432.055 824.066 432.055C824.643 432.055 825.079 431.949 825.373 431.736C825.667 431.523 825.814 431.234 825.814 430.869C825.814 430.585 825.718 430.363 825.525 430.2C825.333 430.028 825.029 429.896 824.613 429.805L823.23 429.501C822.591 429.369 822.115 429.141 821.801 428.817C821.497 428.493 821.345 428.072 821.345 427.555C821.345 427.099 821.461 426.709 821.694 426.385C821.938 426.05 822.277 425.792 822.713 425.61C823.149 425.427 823.655 425.336 824.233 425.336C824.679 425.336 825.099 425.397 825.495 425.518C825.9 425.63 826.265 425.812 826.589 426.066C826.691 426.137 826.756 426.223 826.787 426.324C826.827 426.415 826.832 426.512 826.802 426.613C826.782 426.704 826.736 426.785 826.665 426.856C826.594 426.917 826.508 426.952 826.407 426.963C826.305 426.973 826.199 426.942 826.088 426.871C825.784 426.669 825.474 426.522 825.16 426.431C824.846 426.329 824.537 426.279 824.233 426.279C823.665 426.279 823.235 426.39 822.941 426.613C822.647 426.836 822.5 427.13 822.5 427.495C822.5 427.778 822.591 428.011 822.774 428.194C822.956 428.376 823.24 428.508 823.625 428.589L825.008 428.878C825.667 429.02 826.158 429.248 826.483 429.562C826.817 429.866 826.984 430.281 826.984 430.808C826.984 431.477 826.716 432.009 826.179 432.405C825.642 432.8 824.927 432.997 824.035 432.997Z" fill="#2B2F43"/>
<path d="M706.991 507.467L694.323 500.153V514.781L706.991 507.467ZM569.372 470.131C569.372 473.862 572.397 476.887 576.128 476.887C579.859 476.887 582.884 473.862 582.884 470.131C582.884 466.4 579.859 463.375 576.128 463.375C572.397 463.375 569.372 466.4 569.372 470.131ZM635.372 480.265V497.333H637.906V480.265H635.372ZM646.773 508.734H695.59V506.2H646.773V508.734ZM626.505 468.864H576.128V471.398H626.505V468.864ZM635.372 497.333C635.372 503.63 640.477 508.734 646.773 508.734V506.2C641.876 506.2 637.906 502.23 637.906 497.333H635.372ZM637.906 480.265C637.906 473.969 632.802 468.864 626.505 468.864V471.398C631.402 471.398 635.372 475.368 635.372 480.265H637.906Z" fill="#AB83D4"/>
<g filter="url(#filter5_d_33_13763)">
<path d="M1114.86 507.467H1197V440.262L1167.13 410.393H1114.86V507.467Z" fill="white"/>
</g>
<g filter="url(#filter6_d_33_13763)">
<path d="M1167.13 410.393L1197 440.262H1167.13V410.393Z" fill="#F2F4FF"/>
</g>
<path d="M1131.75 487.761C1131.7 487.816 1131.66 487.859 1131.62 487.89C1131.58 487.92 1131.53 487.935 1131.46 487.935C1131.38 487.935 1131.3 487.905 1131.21 487.844C1131.11 487.778 1131 487.707 1130.86 487.631C1130.73 487.555 1130.57 487.487 1130.37 487.426C1130.18 487.36 1129.94 487.327 1129.66 487.327C1129.28 487.327 1128.94 487.396 1128.65 487.533C1128.36 487.664 1128.12 487.857 1127.92 488.11C1127.73 488.364 1127.58 488.67 1127.48 489.03C1127.39 489.39 1127.34 489.793 1127.34 490.238C1127.34 490.705 1127.39 491.12 1127.5 491.485C1127.6 491.845 1127.75 492.149 1127.95 492.397C1128.14 492.64 1128.38 492.828 1128.65 492.959C1128.93 493.086 1129.24 493.149 1129.59 493.149C1129.92 493.149 1130.19 493.111 1130.4 493.035C1130.61 492.954 1130.79 492.866 1130.92 492.769C1131.07 492.673 1131.18 492.587 1131.27 492.511C1131.37 492.43 1131.46 492.389 1131.56 492.389C1131.67 492.389 1131.75 492.432 1131.81 492.519L1132.19 493.013C1132.03 493.22 1131.84 493.398 1131.62 493.545C1131.41 493.692 1131.18 493.816 1130.93 493.917C1130.69 494.013 1130.43 494.084 1130.16 494.13C1129.9 494.176 1129.62 494.198 1129.34 494.198C1128.86 494.198 1128.41 494.11 1128 493.932C1127.59 493.755 1127.23 493.499 1126.93 493.165C1126.62 492.825 1126.38 492.41 1126.21 491.918C1126.04 491.427 1125.95 490.867 1125.95 490.238C1125.95 489.666 1126.03 489.136 1126.19 488.65C1126.35 488.163 1126.58 487.745 1126.89 487.396C1127.2 487.041 1127.58 486.765 1128.02 486.567C1128.47 486.37 1128.99 486.271 1129.57 486.271C1130.11 486.271 1130.59 486.36 1131 486.537C1131.42 486.709 1131.78 486.955 1132.1 487.274L1131.75 487.761ZM1138.13 487.662C1138.07 487.773 1137.98 487.829 1137.85 487.829C1137.77 487.829 1137.69 487.801 1137.59 487.745C1137.49 487.69 1137.38 487.629 1137.23 487.563C1137.1 487.492 1136.93 487.429 1136.74 487.373C1136.55 487.312 1136.32 487.282 1136.06 487.282C1135.83 487.282 1135.62 487.312 1135.44 487.373C1135.26 487.429 1135.1 487.507 1134.97 487.609C1134.84 487.71 1134.74 487.829 1134.67 487.966C1134.61 488.098 1134.57 488.242 1134.57 488.399C1134.57 488.597 1134.63 488.761 1134.74 488.893C1134.86 489.025 1135.01 489.139 1135.2 489.235C1135.38 489.331 1135.6 489.418 1135.84 489.494C1136.07 489.565 1136.32 489.643 1136.56 489.729C1136.82 489.81 1137.06 489.901 1137.3 490.003C1137.54 490.104 1137.75 490.231 1137.94 490.383C1138.13 490.535 1138.28 490.722 1138.39 490.945C1138.51 491.163 1138.56 491.427 1138.56 491.736C1138.56 492.09 1138.5 492.42 1138.37 492.724C1138.25 493.023 1138.06 493.284 1137.81 493.507C1137.56 493.725 1137.26 493.897 1136.9 494.024C1136.54 494.15 1136.12 494.214 1135.65 494.214C1135.12 494.214 1134.63 494.127 1134.19 493.955C1133.76 493.778 1133.39 493.552 1133.08 493.279L1133.4 492.762C1133.44 492.696 1133.49 492.645 1133.55 492.61C1133.6 492.574 1133.67 492.557 1133.76 492.557C1133.85 492.557 1133.95 492.592 1134.05 492.663C1134.15 492.734 1134.27 492.812 1134.41 492.899C1134.56 492.985 1134.74 493.063 1134.95 493.134C1135.15 493.205 1135.41 493.241 1135.72 493.241C1135.98 493.241 1136.22 493.208 1136.41 493.142C1136.61 493.071 1136.78 492.977 1136.91 492.861C1137.04 492.744 1137.13 492.61 1137.2 492.458C1137.26 492.306 1137.29 492.144 1137.29 491.971C1137.29 491.759 1137.24 491.584 1137.12 491.447C1137.01 491.305 1136.86 491.186 1136.67 491.09C1136.48 490.988 1136.27 490.902 1136.03 490.831C1135.79 490.755 1135.54 490.677 1135.29 490.596C1135.04 490.515 1134.79 490.423 1134.55 490.322C1134.31 490.216 1134.1 490.084 1133.91 489.927C1133.72 489.77 1133.57 489.577 1133.46 489.349C1133.34 489.116 1133.29 488.835 1133.29 488.506C1133.29 488.212 1133.35 487.93 1133.47 487.662C1133.59 487.388 1133.77 487.15 1134 486.947C1134.24 486.74 1134.52 486.575 1134.86 486.453C1135.2 486.332 1135.59 486.271 1136.03 486.271C1136.53 486.271 1136.99 486.352 1137.39 486.514C1137.79 486.671 1138.14 486.889 1138.43 487.168L1138.13 487.662ZM1146.7 486.393L1143.56 494.092H1142.35L1139.21 486.393H1140.31C1140.42 486.393 1140.51 486.42 1140.58 486.476C1140.65 486.532 1140.7 486.598 1140.73 486.674L1142.68 491.629C1142.74 491.817 1142.79 491.999 1142.84 492.177C1142.89 492.354 1142.93 492.531 1142.97 492.709C1143.01 492.531 1143.05 492.354 1143.1 492.177C1143.14 491.999 1143.2 491.817 1143.27 491.629L1145.24 486.674C1145.27 486.593 1145.32 486.527 1145.39 486.476C1145.46 486.42 1145.55 486.393 1145.64 486.393H1146.7Z" fill="#AB83D4"/>
<path d="M1036.35 429.808C1036.35 433.539 1039.38 436.564 1043.11 436.564C1046.84 436.564 1049.87 433.539 1049.87 429.808C1049.87 426.077 1046.84 423.052 1043.11 423.052C1039.38 423.052 1036.35 426.077 1036.35 429.808ZM1095.45 429.808L1082.78 422.495V437.122L1095.45 429.808ZM1043.11 431.075H1084.05V428.541H1043.11V431.075Z" fill="#AB83D4"/>
<g filter="url(#filter7_d_33_13763)">
<rect x="729.417" y="604.541" width="298.689" height="179.213" rx="5.07007" fill="white"/>
</g>
<rect x="736.885" y="641.877" width="66.494" height="134.41" rx="2.53504" fill="#E0CCF1"/>
<rect x="811.558" y="641.877" width="209.082" height="134.41" rx="2.53504" fill="#E0CCF1"/>
<path d="M742.844 627.145C741.79 627.145 740.888 626.922 740.138 626.477C739.388 626.031 738.81 625.397 738.405 624.576C738.01 623.756 737.812 622.778 737.812 621.643C737.812 620.791 737.924 620.031 738.146 619.362C738.38 618.683 738.709 618.111 739.135 617.645C739.57 617.168 740.102 616.804 740.731 616.55C741.359 616.287 742.063 616.155 742.844 616.155C743.472 616.155 744.07 616.246 744.637 616.429C745.205 616.601 745.696 616.859 746.112 617.204C746.244 617.305 746.33 617.422 746.37 617.553C746.421 617.675 746.426 617.797 746.385 617.918C746.355 618.03 746.294 618.126 746.203 618.207C746.122 618.278 746.021 618.313 745.899 618.313C745.777 618.313 745.641 618.263 745.489 618.161C745.124 617.868 744.723 617.65 744.288 617.508C743.852 617.366 743.381 617.295 742.874 617.295C742.073 617.295 741.394 617.467 740.837 617.812C740.28 618.146 739.859 618.638 739.575 619.286C739.292 619.935 739.15 620.72 739.15 621.643C739.15 622.565 739.292 623.355 739.575 624.014C739.859 624.663 740.28 625.159 740.837 625.504C741.394 625.838 742.073 626.005 742.874 626.005C743.371 626.005 743.842 625.934 744.288 625.792C744.734 625.64 745.144 625.417 745.519 625.124C745.671 625.022 745.808 624.977 745.929 624.987C746.051 624.987 746.152 625.022 746.233 625.093C746.315 625.164 746.37 625.255 746.401 625.367C746.441 625.478 746.441 625.595 746.401 625.716C746.37 625.838 746.294 625.944 746.173 626.036C745.747 626.4 745.245 626.679 744.668 626.872C744.1 627.054 743.492 627.145 742.844 627.145ZM750.804 627.145C750.085 627.145 749.462 626.988 748.935 626.674C748.408 626.36 747.997 625.919 747.703 625.352C747.42 624.774 747.278 624.095 747.278 623.315C747.278 622.727 747.359 622.2 747.521 621.734C747.683 621.257 747.921 620.852 748.235 620.518C748.55 620.183 748.919 619.93 749.345 619.758C749.781 619.575 750.267 619.484 750.804 619.484C751.524 619.484 752.147 619.641 752.674 619.955C753.201 620.269 753.606 620.715 753.89 621.293C754.184 621.86 754.331 622.534 754.331 623.315C754.331 623.902 754.25 624.429 754.088 624.896C753.926 625.362 753.688 625.767 753.373 626.112C753.059 626.446 752.684 626.705 752.248 626.887C751.823 627.059 751.341 627.145 750.804 627.145ZM750.804 626.157C751.26 626.157 751.661 626.046 752.005 625.823C752.35 625.6 752.613 625.276 752.796 624.85C752.988 624.424 753.085 623.913 753.085 623.315C753.085 622.392 752.877 621.688 752.461 621.202C752.056 620.715 751.504 620.472 750.804 620.472C750.338 620.472 749.933 620.584 749.588 620.806C749.254 621.019 748.99 621.339 748.798 621.764C748.615 622.18 748.524 622.696 748.524 623.315C748.524 624.227 748.732 624.931 749.147 625.428C749.563 625.914 750.115 626.157 750.804 626.157ZM756.789 627.115C756.586 627.115 756.434 627.059 756.332 626.948C756.231 626.836 756.18 626.679 756.18 626.477V620.138C756.18 619.935 756.231 619.783 756.332 619.682C756.434 619.57 756.581 619.514 756.773 619.514C756.966 619.514 757.113 619.57 757.214 619.682C757.326 619.783 757.381 619.935 757.381 620.138V621.445L757.214 621.263C757.427 620.675 757.772 620.234 758.248 619.94C758.734 619.636 759.292 619.484 759.92 619.484C760.508 619.484 760.994 619.59 761.379 619.803C761.774 620.016 762.068 620.34 762.261 620.776C762.453 621.202 762.55 621.744 762.55 622.403V626.477C762.55 626.679 762.494 626.836 762.383 626.948C762.281 627.059 762.134 627.115 761.942 627.115C761.739 627.115 761.582 627.059 761.47 626.948C761.369 626.836 761.318 626.679 761.318 626.477V622.479C761.318 621.789 761.182 621.288 760.908 620.974C760.645 620.649 760.219 620.487 759.631 620.487C758.952 620.487 758.41 620.7 758.005 621.126C757.609 621.541 757.412 622.099 757.412 622.798V626.477C757.412 626.902 757.204 627.115 756.789 627.115ZM767.952 627.145C767.212 627.145 766.573 626.983 766.036 626.659C765.499 626.335 765.084 625.884 764.79 625.306C764.506 624.718 764.364 624.039 764.364 623.269C764.364 622.681 764.445 622.154 764.607 621.688C764.77 621.222 765.008 620.827 765.322 620.502C765.636 620.168 766.011 619.915 766.447 619.742C766.893 619.57 767.394 619.484 767.952 619.484C768.316 619.484 768.696 619.54 769.092 619.651C769.487 619.763 769.847 619.955 770.171 620.229C770.272 620.3 770.338 620.386 770.369 620.487C770.399 620.589 770.399 620.69 770.369 620.791C770.338 620.882 770.288 620.964 770.217 621.034C770.146 621.095 770.054 621.131 769.943 621.141C769.842 621.151 769.735 621.116 769.624 621.034C769.36 620.832 769.092 620.69 768.818 620.609C768.544 620.528 768.281 620.487 768.028 620.487C767.632 620.487 767.288 620.553 766.994 620.685C766.7 620.806 766.452 620.984 766.249 621.217C766.046 621.45 765.889 621.739 765.778 622.083C765.677 622.428 765.626 622.828 765.626 623.284C765.626 624.166 765.834 624.865 766.249 625.382C766.665 625.889 767.257 626.142 768.028 626.142C768.281 626.142 768.539 626.102 768.803 626.02C769.077 625.939 769.35 625.798 769.624 625.595C769.735 625.514 769.842 625.478 769.943 625.488C770.044 625.499 770.13 625.539 770.201 625.61C770.272 625.671 770.318 625.752 770.338 625.853C770.369 625.955 770.369 626.056 770.338 626.157C770.308 626.248 770.242 626.33 770.141 626.4C769.816 626.664 769.462 626.857 769.077 626.978C768.691 627.09 768.316 627.145 767.952 627.145ZM775.037 627.145C774.257 627.145 773.583 626.993 773.015 626.689C772.458 626.375 772.022 625.934 771.708 625.367C771.404 624.799 771.252 624.12 771.252 623.33C771.252 622.56 771.404 621.891 771.708 621.323C772.012 620.746 772.428 620.295 772.955 619.97C773.492 619.646 774.11 619.484 774.809 619.484C775.306 619.484 775.752 619.57 776.147 619.742C776.542 619.905 776.877 620.143 777.15 620.457C777.434 620.771 777.647 621.151 777.789 621.597C777.941 622.043 778.017 622.544 778.017 623.102C778.017 623.264 777.971 623.386 777.88 623.467C777.789 623.538 777.657 623.573 777.485 623.573H772.195V622.767H777.196L776.953 622.965C776.953 622.418 776.872 621.957 776.709 621.582C776.547 621.197 776.309 620.903 775.995 620.7C775.691 620.497 775.306 620.396 774.84 620.396C774.323 620.396 773.882 620.518 773.517 620.761C773.162 620.994 772.894 621.323 772.711 621.749C772.529 622.164 772.438 622.651 772.438 623.208V623.299C772.438 624.232 772.661 624.941 773.107 625.428C773.563 625.914 774.206 626.157 775.037 626.157C775.382 626.157 775.721 626.112 776.056 626.02C776.4 625.929 776.735 625.777 777.059 625.564C777.201 625.473 777.328 625.433 777.439 625.443C777.561 625.443 777.657 625.478 777.728 625.549C777.799 625.61 777.844 625.691 777.865 625.792C777.895 625.884 777.885 625.985 777.834 626.096C777.794 626.208 777.708 626.304 777.576 626.385C777.241 626.629 776.846 626.816 776.39 626.948C775.934 627.079 775.483 627.145 775.037 627.145ZM780.407 629.851C780.204 629.851 780.052 629.795 779.951 629.684C779.849 629.583 779.799 629.431 779.799 629.228V620.138C779.799 619.935 779.849 619.783 779.951 619.682C780.052 619.57 780.199 619.514 780.391 619.514C780.594 619.514 780.746 619.57 780.848 619.682C780.959 619.783 781.015 619.935 781.015 620.138V621.582L780.848 621.369C781.01 620.791 781.329 620.335 781.805 620.001C782.292 619.656 782.869 619.484 783.538 619.484C784.197 619.484 784.769 619.641 785.256 619.955C785.752 620.259 786.132 620.7 786.396 621.278C786.67 621.845 786.806 622.524 786.806 623.315C786.806 624.095 786.67 624.774 786.396 625.352C786.132 625.919 785.757 626.36 785.271 626.674C784.785 626.988 784.207 627.145 783.538 627.145C782.869 627.145 782.297 626.978 781.82 626.644C781.344 626.299 781.02 625.843 780.848 625.276H781.03V629.228C781.03 629.431 780.974 629.583 780.863 629.684C780.751 629.795 780.599 629.851 780.407 629.851ZM783.28 626.157C783.746 626.157 784.146 626.046 784.481 625.823C784.825 625.6 785.089 625.276 785.271 624.85C785.464 624.424 785.56 623.913 785.56 623.315C785.56 622.392 785.352 621.688 784.937 621.202C784.531 620.715 783.979 620.472 783.28 620.472C782.824 620.472 782.423 620.584 782.079 620.806C781.734 621.019 781.466 621.339 781.273 621.764C781.091 622.18 781 622.696 781 623.315C781 624.227 781.207 624.931 781.623 625.428C782.038 625.914 782.591 626.157 783.28 626.157ZM791.551 627.145C790.973 627.145 790.487 627.044 790.092 626.841C789.707 626.629 789.418 626.324 789.225 625.929C789.033 625.524 788.936 625.032 788.936 624.455V620.578H787.918C787.746 620.578 787.614 620.538 787.523 620.457C787.432 620.366 787.386 620.244 787.386 620.092C787.386 619.94 787.432 619.823 787.523 619.742C787.614 619.661 787.746 619.621 787.918 619.621H788.936V617.873C788.936 617.67 788.992 617.518 789.104 617.417C789.215 617.305 789.367 617.249 789.56 617.249C789.752 617.249 789.899 617.305 790.001 617.417C790.112 617.518 790.168 617.67 790.168 617.873V619.621H792.083C792.255 619.621 792.387 619.661 792.478 619.742C792.57 619.823 792.615 619.94 792.615 620.092C792.615 620.244 792.57 620.366 792.478 620.457C792.387 620.538 792.255 620.578 792.083 620.578H790.168V624.333C790.168 624.911 790.289 625.352 790.533 625.656C790.776 625.95 791.171 626.096 791.718 626.096C791.911 626.096 792.073 626.076 792.205 626.036C792.347 625.995 792.463 625.975 792.554 625.975C792.646 625.965 792.722 625.995 792.782 626.066C792.843 626.137 792.874 626.259 792.874 626.431C792.874 626.553 792.848 626.664 792.798 626.765C792.757 626.867 792.681 626.938 792.57 626.978C792.448 627.019 792.286 627.054 792.083 627.085C791.891 627.125 791.713 627.145 791.551 627.145ZM801.453 627.145C800.977 627.145 800.511 627.105 800.055 627.024C799.599 626.943 799.173 626.826 798.778 626.674C798.393 626.522 798.043 626.33 797.729 626.096C797.607 626.005 797.521 625.904 797.471 625.792C797.43 625.671 797.42 625.554 797.44 625.443C797.471 625.321 797.521 625.22 797.592 625.139C797.673 625.058 797.77 625.012 797.881 625.002C797.993 624.992 798.114 625.027 798.246 625.108C798.702 625.433 799.188 625.671 799.705 625.823C800.222 625.965 800.805 626.036 801.453 626.036C802.365 626.036 803.039 625.868 803.475 625.534C803.921 625.189 804.144 624.739 804.144 624.181C804.144 623.725 803.982 623.37 803.658 623.117C803.343 622.854 802.811 622.646 802.061 622.494L800.481 622.175C799.528 621.972 798.813 621.643 798.337 621.187C797.871 620.72 797.638 620.102 797.638 619.332C797.638 618.856 797.734 618.425 797.927 618.04C798.119 617.645 798.388 617.31 798.732 617.037C799.077 616.753 799.487 616.535 799.964 616.383C800.44 616.231 800.967 616.155 801.545 616.155C802.183 616.155 802.776 616.246 803.323 616.429C803.88 616.601 804.382 616.864 804.828 617.219C804.94 617.31 805.016 617.417 805.056 617.538C805.097 617.65 805.102 617.761 805.071 617.873C805.041 617.974 804.985 618.06 804.904 618.131C804.833 618.202 804.737 618.243 804.615 618.253C804.504 618.263 804.377 618.222 804.235 618.131C803.83 617.827 803.409 617.609 802.973 617.477C802.538 617.336 802.056 617.265 801.529 617.265C800.992 617.265 800.526 617.346 800.131 617.508C799.746 617.67 799.442 617.908 799.219 618.222C799.006 618.526 798.9 618.881 798.9 619.286C798.9 619.773 799.047 620.158 799.34 620.442C799.644 620.725 800.136 620.933 800.815 621.065L802.396 621.399C803.419 621.612 804.174 621.936 804.661 622.372C805.157 622.798 805.406 623.381 805.406 624.12C805.406 624.566 805.314 624.977 805.132 625.352C804.95 625.727 804.686 626.051 804.342 626.324C803.997 626.588 803.582 626.791 803.095 626.933C802.609 627.074 802.061 627.145 801.453 627.145ZM810.502 627.145C809.721 627.145 809.047 626.993 808.48 626.689C807.922 626.375 807.487 625.934 807.173 625.367C806.869 624.799 806.717 624.12 806.717 623.33C806.717 622.56 806.869 621.891 807.173 621.323C807.477 620.746 807.892 620.295 808.419 619.97C808.956 619.646 809.574 619.484 810.274 619.484C810.77 619.484 811.216 619.57 811.611 619.742C812.007 619.905 812.341 620.143 812.615 620.457C812.898 620.771 813.111 621.151 813.253 621.597C813.405 622.043 813.481 622.544 813.481 623.102C813.481 623.264 813.435 623.386 813.344 623.467C813.253 623.538 813.121 623.573 812.949 623.573H807.659V622.767H812.66L812.417 622.965C812.417 622.418 812.336 621.957 812.174 621.582C812.012 621.197 811.773 620.903 811.459 620.7C811.155 620.497 810.77 620.396 810.304 620.396C809.787 620.396 809.346 620.518 808.982 620.761C808.627 620.994 808.358 621.323 808.176 621.749C807.993 622.164 807.902 622.651 807.902 623.208V623.299C807.902 624.232 808.125 624.941 808.571 625.428C809.027 625.914 809.671 626.157 810.502 626.157C810.846 626.157 811.186 626.112 811.52 626.02C811.865 625.929 812.199 625.777 812.523 625.564C812.665 625.473 812.792 625.433 812.903 625.443C813.025 625.443 813.121 625.478 813.192 625.549C813.263 625.61 813.309 625.691 813.329 625.792C813.359 625.884 813.349 625.985 813.299 626.096C813.258 626.208 813.172 626.304 813.04 626.385C812.706 626.629 812.311 626.816 811.855 626.948C811.398 627.079 810.948 627.145 810.502 627.145ZM815.871 627.115C815.668 627.115 815.516 627.059 815.415 626.948C815.314 626.836 815.263 626.679 815.263 626.477V620.138C815.263 619.935 815.314 619.783 815.415 619.682C815.516 619.57 815.663 619.514 815.856 619.514C816.048 619.514 816.195 619.57 816.297 619.682C816.408 619.783 816.464 619.935 816.464 620.138V621.445L816.297 621.263C816.51 620.675 816.854 620.234 817.33 619.94C817.817 619.636 818.374 619.484 819.003 619.484C819.59 619.484 820.077 619.59 820.462 619.803C820.857 620.016 821.151 620.34 821.343 620.776C821.536 621.202 821.632 621.744 821.632 622.403V626.477C821.632 626.679 821.577 626.836 821.465 626.948C821.364 627.059 821.217 627.115 821.024 627.115C820.822 627.115 820.664 627.059 820.553 626.948C820.452 626.836 820.401 626.679 820.401 626.477V622.479C820.401 621.789 820.264 621.288 819.991 620.974C819.727 620.649 819.301 620.487 818.714 620.487C818.035 620.487 817.493 620.7 817.087 621.126C816.692 621.541 816.494 622.099 816.494 622.798V626.477C816.494 626.902 816.287 627.115 815.871 627.115ZM826.867 627.145C826.289 627.145 825.803 627.044 825.408 626.841C825.023 626.629 824.734 626.324 824.541 625.929C824.349 625.524 824.252 625.032 824.252 624.455V620.578H823.234C823.062 620.578 822.93 620.538 822.839 620.457C822.747 620.366 822.702 620.244 822.702 620.092C822.702 619.94 822.747 619.823 822.839 619.742C822.93 619.661 823.062 619.621 823.234 619.621H824.252V617.873C824.252 617.67 824.308 617.518 824.42 617.417C824.531 617.305 824.683 617.249 824.876 617.249C825.068 617.249 825.215 617.305 825.316 617.417C825.428 617.518 825.484 617.67 825.484 617.873V619.621H827.399C827.571 619.621 827.703 619.661 827.794 619.742C827.885 619.823 827.931 619.94 827.931 620.092C827.931 620.244 827.885 620.366 827.794 620.457C827.703 620.538 827.571 620.578 827.399 620.578H825.484V624.333C825.484 624.911 825.605 625.352 825.848 625.656C826.092 625.95 826.487 626.096 827.034 626.096C827.227 626.096 827.389 626.076 827.521 626.036C827.662 625.995 827.779 625.975 827.87 625.975C827.961 625.965 828.037 625.995 828.098 626.066C828.159 626.137 828.189 626.259 828.189 626.431C828.189 626.553 828.164 626.664 828.113 626.765C828.073 626.867 827.997 626.938 827.885 626.978C827.764 627.019 827.602 627.054 827.399 627.085C827.206 627.125 827.029 627.145 826.867 627.145ZM829.914 627.085C829.712 627.085 829.56 627.029 829.458 626.917C829.357 626.796 829.306 626.629 829.306 626.416V620.198C829.306 619.986 829.357 619.823 829.458 619.712C829.56 619.601 829.712 619.545 829.914 619.545C830.107 619.545 830.259 619.601 830.37 619.712C830.482 619.823 830.538 619.986 830.538 620.198V626.416C830.538 626.629 830.482 626.796 830.37 626.917C830.269 627.029 830.117 627.085 829.914 627.085ZM829.914 617.842C829.661 617.842 829.463 617.776 829.321 617.645C829.18 617.503 829.109 617.315 829.109 617.082C829.109 616.839 829.18 616.657 829.321 616.535C829.463 616.403 829.661 616.337 829.914 616.337C830.178 616.337 830.375 616.403 830.507 616.535C830.649 616.657 830.72 616.839 830.72 617.082C830.72 617.315 830.649 617.503 830.507 617.645C830.375 617.776 830.178 617.842 829.914 617.842ZM833.478 627.115C833.275 627.115 833.123 627.059 833.022 626.948C832.92 626.836 832.87 626.679 832.87 626.477V620.138C832.87 619.935 832.92 619.783 833.022 619.682C833.123 619.57 833.27 619.514 833.463 619.514C833.655 619.514 833.802 619.57 833.903 619.682C834.015 619.783 834.071 619.935 834.071 620.138V621.475L833.903 621.263C834.096 620.695 834.405 620.259 834.831 619.955C835.266 619.641 835.783 619.484 836.381 619.484C837.01 619.484 837.516 619.636 837.901 619.94C838.297 620.234 838.56 620.695 838.692 621.323H838.464C838.646 620.756 838.97 620.31 839.437 619.986C839.913 619.651 840.465 619.484 841.094 619.484C841.651 619.484 842.107 619.59 842.462 619.803C842.826 620.016 843.1 620.34 843.283 620.776C843.465 621.202 843.556 621.744 843.556 622.403V626.477C843.556 626.679 843.5 626.836 843.389 626.948C843.288 627.059 843.136 627.115 842.933 627.115C842.74 627.115 842.588 627.059 842.477 626.948C842.376 626.836 842.325 626.679 842.325 626.477V622.463C842.325 621.784 842.208 621.288 841.975 620.974C841.742 620.649 841.347 620.487 840.79 620.487C840.181 620.487 839.7 620.7 839.345 621.126C839.001 621.541 838.829 622.109 838.829 622.828V626.477C838.829 626.679 838.773 626.836 838.661 626.948C838.56 627.059 838.408 627.115 838.205 627.115C838.013 627.115 837.861 627.059 837.749 626.948C837.648 626.836 837.597 626.679 837.597 626.477V622.463C837.597 621.784 837.476 621.288 837.232 620.974C836.999 620.649 836.609 620.487 836.062 620.487C835.454 620.487 834.973 620.7 834.618 621.126C834.273 621.541 834.101 622.109 834.101 622.828V626.477C834.101 626.902 833.893 627.115 833.478 627.115ZM849.187 627.145C848.407 627.145 847.733 626.993 847.166 626.689C846.608 626.375 846.172 625.934 845.858 625.367C845.554 624.799 845.402 624.12 845.402 623.33C845.402 622.56 845.554 621.891 845.858 621.323C846.162 620.746 846.578 620.295 847.105 619.97C847.642 619.646 848.26 619.484 848.959 619.484C849.456 619.484 849.902 619.57 850.297 619.742C850.692 619.905 851.027 620.143 851.3 620.457C851.584 620.771 851.797 621.151 851.939 621.597C852.091 622.043 852.167 622.544 852.167 623.102C852.167 623.264 852.121 623.386 852.03 623.467C851.939 623.538 851.807 623.573 851.635 623.573H846.345V622.767H851.346L851.103 622.965C851.103 622.418 851.022 621.957 850.859 621.582C850.697 621.197 850.459 620.903 850.145 620.7C849.841 620.497 849.456 620.396 848.99 620.396C848.473 620.396 848.032 620.518 847.667 620.761C847.313 620.994 847.044 621.323 846.862 621.749C846.679 622.164 846.588 622.651 846.588 623.208V623.299C846.588 624.232 846.811 624.941 847.257 625.428C847.713 625.914 848.356 626.157 849.187 626.157C849.532 626.157 849.871 626.112 850.206 626.02C850.55 625.929 850.885 625.777 851.209 625.564C851.351 625.473 851.478 625.433 851.589 625.443C851.711 625.443 851.807 625.478 851.878 625.549C851.949 625.61 851.994 625.691 852.015 625.792C852.045 625.884 852.035 625.985 851.984 626.096C851.944 626.208 851.858 626.304 851.726 626.385C851.391 626.629 850.996 626.816 850.54 626.948C850.084 627.079 849.633 627.145 849.187 627.145ZM854.557 627.115C854.354 627.115 854.202 627.059 854.101 626.948C853.999 626.836 853.949 626.679 853.949 626.477V620.138C853.949 619.935 853.999 619.783 854.101 619.682C854.202 619.57 854.349 619.514 854.542 619.514C854.734 619.514 854.881 619.57 854.982 619.682C855.094 619.783 855.15 619.935 855.15 620.138V621.445L854.982 621.263C855.195 620.675 855.54 620.234 856.016 619.94C856.503 619.636 857.06 619.484 857.688 619.484C858.276 619.484 858.762 619.59 859.148 619.803C859.543 620.016 859.837 620.34 860.029 620.776C860.222 621.202 860.318 621.744 860.318 622.403V626.477C860.318 626.679 860.262 626.836 860.151 626.948C860.049 627.059 859.903 627.115 859.71 627.115C859.507 627.115 859.35 627.059 859.239 626.948C859.137 626.836 859.087 626.679 859.087 626.477V622.479C859.087 621.789 858.95 621.288 858.676 620.974C858.413 620.649 857.987 620.487 857.399 620.487C856.72 620.487 856.178 620.7 855.773 621.126C855.378 621.541 855.18 622.099 855.18 622.798V626.477C855.18 626.902 854.972 627.115 854.557 627.115ZM865.553 627.145C864.975 627.145 864.489 627.044 864.093 626.841C863.708 626.629 863.419 626.324 863.227 625.929C863.034 625.524 862.938 625.032 862.938 624.455V620.578H861.92C861.747 620.578 861.616 620.538 861.524 620.457C861.433 620.366 861.388 620.244 861.388 620.092C861.388 619.94 861.433 619.823 861.524 619.742C861.616 619.661 861.747 619.621 861.92 619.621H862.938V617.873C862.938 617.67 862.994 617.518 863.105 617.417C863.217 617.305 863.369 617.249 863.561 617.249C863.754 617.249 863.901 617.305 864.002 617.417C864.114 617.518 864.169 617.67 864.169 617.873V619.621H866.085C866.257 619.621 866.389 619.661 866.48 619.742C866.571 619.823 866.617 619.94 866.617 620.092C866.617 620.244 866.571 620.366 866.48 620.457C866.389 620.538 866.257 620.578 866.085 620.578H864.169V624.333C864.169 624.911 864.291 625.352 864.534 625.656C864.777 625.95 865.173 626.096 865.72 626.096C865.912 626.096 866.075 626.076 866.206 626.036C866.348 625.995 866.465 625.975 866.556 625.975C866.647 625.965 866.723 625.995 866.784 626.066C866.845 626.137 866.875 626.259 866.875 626.431C866.875 626.553 866.85 626.664 866.799 626.765C866.759 626.867 866.683 626.938 866.571 626.978C866.45 627.019 866.287 627.054 866.085 627.085C865.892 627.125 865.715 627.145 865.553 627.145Z" fill="#2B2F43"/>
<path d="M482.778 557.471C482.778 561.202 485.803 564.227 489.534 564.227C493.265 564.227 496.29 561.202 496.29 557.471C496.29 553.74 493.265 550.715 489.534 550.715C485.803 550.715 482.778 553.74 482.778 557.471ZM707.737 694.148L695.07 686.834V701.462L707.737 694.148ZM488.267 557.471V684.014H490.801V557.471H488.267ZM499.668 695.415H696.336V692.881H499.668V695.415ZM488.267 684.014C488.267 690.31 493.372 695.415 499.668 695.415V692.881C494.771 692.881 490.801 688.911 490.801 684.014H488.267Z" fill="#AB83D4"/>
<g filter="url(#filter8_d_33_13763)">
<path d="M1114.86 701.615H1197V634.41L1167.13 604.541H1114.86V701.615Z" fill="white"/>
</g>
<g filter="url(#filter9_d_33_13763)">
<path d="M1167.13 604.541L1197 634.41H1167.13V604.541Z" fill="#F2F4FF"/>
</g>
<path d="M1127.82 680.54V688.81C1127.82 689.119 1127.78 689.405 1127.69 689.669C1127.61 689.937 1127.48 690.17 1127.31 690.368C1127.13 690.566 1126.9 690.72 1126.62 690.832C1126.35 690.948 1126.02 691.006 1125.63 691.006C1125.47 691.006 1125.32 690.994 1125.19 690.968C1125.05 690.943 1124.91 690.905 1124.78 690.854L1124.83 690.125C1124.84 690.079 1124.86 690.044 1124.88 690.018C1124.9 689.998 1124.93 689.985 1124.97 689.98C1125.01 689.975 1125.07 689.973 1125.13 689.973C1125.19 689.978 1125.27 689.98 1125.37 689.98C1125.76 689.98 1126.05 689.887 1126.21 689.699C1126.38 689.517 1126.46 689.22 1126.46 688.81V680.54H1127.82ZM1128.1 678.124C1128.1 678.255 1128.07 678.379 1128.01 678.496C1127.96 678.607 1127.89 678.709 1127.8 678.8C1127.71 678.886 1127.61 678.955 1127.5 679.005C1127.38 679.056 1127.26 679.081 1127.12 679.081C1126.99 679.081 1126.87 679.056 1126.75 679.005C1126.64 678.955 1126.54 678.886 1126.46 678.8C1126.37 678.709 1126.3 678.607 1126.25 678.496C1126.2 678.379 1126.17 678.255 1126.17 678.124C1126.17 677.992 1126.2 677.868 1126.25 677.751C1126.3 677.629 1126.37 677.526 1126.46 677.439C1126.54 677.348 1126.64 677.277 1126.75 677.227C1126.87 677.176 1126.99 677.151 1127.12 677.151C1127.26 677.151 1127.38 677.176 1127.5 677.227C1127.61 677.277 1127.71 677.348 1127.8 677.439C1127.89 677.526 1127.96 677.629 1128.01 677.751C1128.07 677.868 1128.1 677.992 1128.1 678.124ZM1131.4 686.385C1131.65 686.72 1131.92 686.955 1132.21 687.092C1132.51 687.229 1132.84 687.297 1133.2 687.297C1133.92 687.297 1134.47 687.042 1134.86 686.53C1135.24 686.018 1135.44 685.288 1135.44 684.341C1135.44 683.839 1135.39 683.408 1135.3 683.049C1135.21 682.689 1135.09 682.395 1134.92 682.167C1134.75 681.934 1134.55 681.764 1134.3 681.658C1134.06 681.551 1133.78 681.498 1133.47 681.498C1133.03 681.498 1132.65 681.6 1132.31 681.802C1131.98 682.005 1131.68 682.291 1131.4 682.661V686.385ZM1131.33 681.734C1131.66 681.333 1132.03 681.012 1132.46 680.769C1132.88 680.525 1133.37 680.404 1133.92 680.404C1134.36 680.404 1134.76 680.49 1135.12 680.662C1135.48 680.829 1135.79 681.08 1136.04 681.415C1136.3 681.744 1136.49 682.154 1136.63 682.646C1136.77 683.137 1136.83 683.702 1136.83 684.341C1136.83 684.908 1136.76 685.438 1136.61 685.929C1136.45 686.416 1136.23 686.839 1135.94 687.199C1135.66 687.553 1135.31 687.835 1134.9 688.042C1134.49 688.245 1134.02 688.346 1133.5 688.346C1133.03 688.346 1132.63 688.268 1132.29 688.111C1131.95 687.949 1131.66 687.726 1131.4 687.442V690.847H1130.04V680.54H1130.85C1131.04 680.54 1131.16 680.634 1131.21 680.822L1131.33 681.734ZM1143.71 683.55C1143.71 683.236 1143.67 682.95 1143.58 682.691C1143.49 682.428 1143.36 682.202 1143.19 682.015C1143.02 681.822 1142.82 681.676 1142.57 681.574C1142.33 681.468 1142.05 681.415 1141.74 681.415C1141.1 681.415 1140.58 681.605 1140.2 681.985C1139.83 682.36 1139.59 682.881 1139.5 683.55H1143.71ZM1144.81 687.161C1144.64 687.363 1144.44 687.541 1144.21 687.693C1143.97 687.84 1143.72 687.961 1143.45 688.057C1143.19 688.154 1142.92 688.225 1142.63 688.27C1142.35 688.321 1142.07 688.346 1141.79 688.346C1141.26 688.346 1140.77 688.258 1140.32 688.08C1139.87 687.898 1139.48 687.634 1139.15 687.29C1138.83 686.94 1138.58 686.509 1138.39 685.998C1138.21 685.486 1138.12 684.898 1138.12 684.234C1138.12 683.697 1138.2 683.196 1138.36 682.729C1138.53 682.263 1138.77 681.86 1139.08 681.521C1139.39 681.176 1139.76 680.908 1140.21 680.715C1140.66 680.518 1141.16 680.419 1141.71 680.419C1142.18 680.419 1142.6 680.497 1142.99 680.654C1143.39 680.807 1143.73 681.029 1144.01 681.323C1144.3 681.612 1144.52 681.972 1144.69 682.403C1144.85 682.828 1144.93 683.315 1144.93 683.862C1144.93 684.075 1144.91 684.217 1144.86 684.288C1144.82 684.359 1144.73 684.394 1144.6 684.394H1139.46C1139.47 684.88 1139.54 685.304 1139.65 685.663C1139.78 686.023 1139.94 686.325 1140.16 686.568C1140.37 686.806 1140.62 686.986 1140.92 687.107C1141.21 687.224 1141.54 687.282 1141.9 687.282C1142.24 687.282 1142.53 687.244 1142.78 687.168C1143.03 687.087 1143.24 687.001 1143.42 686.91C1143.59 686.819 1143.74 686.735 1143.86 686.659C1143.98 686.578 1144.08 686.537 1144.17 686.537C1144.28 686.537 1144.37 686.58 1144.43 686.667L1144.81 687.161ZM1149.27 684.478C1149.55 684.478 1149.79 684.44 1150 684.364C1150.2 684.288 1150.38 684.181 1150.52 684.044C1150.66 683.908 1150.77 683.745 1150.84 683.558C1150.91 683.365 1150.95 683.155 1150.95 682.927C1150.95 682.456 1150.8 682.081 1150.51 681.802C1150.23 681.523 1149.82 681.384 1149.27 681.384C1148.73 681.384 1148.31 681.523 1148.02 681.802C1147.74 682.081 1147.59 682.456 1147.59 682.927C1147.59 683.155 1147.63 683.365 1147.7 683.558C1147.78 683.745 1147.89 683.908 1148.03 684.044C1148.17 684.181 1148.34 684.288 1148.55 684.364C1148.76 684.44 1149 684.478 1149.27 684.478ZM1151.71 688.658C1151.71 688.47 1151.66 688.318 1151.55 688.202C1151.45 688.085 1151.3 687.994 1151.12 687.928C1150.94 687.862 1150.74 687.817 1150.5 687.791C1150.26 687.761 1150.01 687.738 1149.74 687.723C1149.47 687.708 1149.21 687.693 1148.93 687.677C1148.66 687.662 1148.39 687.637 1148.14 687.601C1147.86 687.733 1147.62 687.9 1147.44 688.103C1147.26 688.301 1147.18 688.534 1147.18 688.802C1147.18 688.975 1147.22 689.134 1147.31 689.281C1147.4 689.433 1147.53 689.562 1147.72 689.669C1147.9 689.78 1148.13 689.866 1148.4 689.927C1148.68 689.993 1149.01 690.026 1149.38 690.026C1149.75 690.026 1150.07 689.993 1150.36 689.927C1150.65 689.861 1150.89 689.768 1151.09 689.646C1151.29 689.524 1151.45 689.38 1151.55 689.213C1151.66 689.046 1151.71 688.861 1151.71 688.658ZM1153.09 680.845V681.346C1153.09 681.513 1152.98 681.62 1152.77 681.665L1151.9 681.779C1152.07 682.114 1152.15 682.484 1152.15 682.889C1152.15 683.264 1152.08 683.606 1151.93 683.915C1151.79 684.219 1151.59 684.48 1151.34 684.698C1151.09 684.916 1150.78 685.083 1150.43 685.2C1150.07 685.316 1149.69 685.374 1149.27 685.374C1148.91 685.374 1148.57 685.331 1148.26 685.245C1148.09 685.347 1147.97 685.456 1147.88 685.572C1147.8 685.684 1147.75 685.798 1147.75 685.914C1147.75 686.097 1147.83 686.236 1147.97 686.332C1148.13 686.423 1148.32 686.489 1148.57 686.53C1148.81 686.57 1149.09 686.596 1149.4 686.606C1149.71 686.616 1150.03 686.634 1150.35 686.659C1150.68 686.679 1151 686.717 1151.31 686.773C1151.63 686.829 1151.9 686.92 1152.15 687.047C1152.39 687.173 1152.59 687.348 1152.73 687.571C1152.88 687.794 1152.96 688.083 1152.96 688.437C1152.96 688.767 1152.88 689.086 1152.71 689.395C1152.55 689.704 1152.31 689.978 1152 690.216C1151.69 690.459 1151.31 690.652 1150.86 690.794C1150.42 690.941 1149.91 691.014 1149.35 691.014C1148.79 691.014 1148.3 690.958 1147.88 690.847C1147.45 690.735 1147.11 690.586 1146.83 690.398C1146.55 690.211 1146.34 689.993 1146.2 689.745C1146.06 689.502 1145.99 689.246 1145.99 688.977C1145.99 688.597 1146.11 688.275 1146.35 688.012C1146.59 687.748 1146.91 687.538 1147.33 687.381C1147.1 687.28 1146.92 687.145 1146.78 686.978C1146.65 686.806 1146.58 686.575 1146.58 686.287C1146.58 686.175 1146.6 686.061 1146.64 685.944C1146.68 685.823 1146.75 685.704 1146.83 685.587C1146.91 685.466 1147.02 685.352 1147.14 685.245C1147.26 685.139 1147.4 685.045 1147.56 684.964C1147.18 684.751 1146.89 684.47 1146.67 684.12C1146.46 683.766 1146.36 683.355 1146.36 682.889C1146.36 682.514 1146.43 682.175 1146.57 681.871C1146.72 681.562 1146.92 681.301 1147.18 681.088C1147.43 680.87 1147.74 680.703 1148.1 680.586C1148.46 680.47 1148.85 680.411 1149.27 680.411C1149.61 680.411 1149.92 680.449 1150.21 680.525C1150.5 680.596 1150.76 680.703 1151 680.845H1153.09Z" fill="#AB83D4"/>
<path d="M1036.35 623.956C1036.35 627.687 1039.38 630.712 1043.11 630.712C1046.84 630.712 1049.87 627.687 1049.87 623.956C1049.87 620.225 1046.84 617.2 1043.11 617.2C1039.38 617.2 1036.35 620.225 1036.35 623.956ZM1095.45 623.956L1082.78 616.643V631.27L1095.45 623.956ZM1043.11 625.223H1084.05V622.689H1043.11V625.223Z" fill="#AB83D4"/>
<circle cx="883.401" cy="314.635" r="44.3367" fill="#AB83D4"/>
<path d="M876.843 329.299C876.053 329.299 875.429 329.086 874.973 328.66C874.548 328.204 874.335 327.596 874.335 326.836C874.335 326.046 874.548 325.453 874.973 325.058C875.429 324.662 876.053 324.465 876.843 324.465H881.951V302.074H884.778L878.074 306.132C877.497 306.467 876.95 306.604 876.433 306.543C875.946 306.452 875.521 306.239 875.156 305.904C874.821 305.539 874.593 305.114 874.472 304.627C874.35 304.141 874.381 303.655 874.563 303.168C874.776 302.651 875.171 302.226 875.749 301.891L882.042 298.106C882.65 297.741 883.258 297.437 883.866 297.194C884.474 296.92 885.037 296.784 885.553 296.784C886.192 296.784 886.724 296.966 887.149 297.331C887.575 297.665 887.788 298.228 887.788 299.018V324.465H892.439C893.23 324.465 893.838 324.662 894.264 325.058C894.72 325.453 894.948 326.046 894.948 326.836C894.948 327.627 894.72 328.235 894.264 328.66C893.838 329.086 893.23 329.299 892.439 329.299H876.843Z" fill="#F8F0FF"/>
<circle cx="883.401" cy="508.45" r="44.3367" fill="#AB83D4"/>
<path d="M875.794 523.113C874.821 523.113 874.107 522.901 873.651 522.475C873.225 522.019 873.012 521.365 873.012 520.514C873.012 519.997 873.149 519.496 873.423 519.009C873.696 518.523 874.092 518.006 874.609 517.459L883.775 507.699C885.173 506.24 886.177 504.918 886.785 503.732C887.393 502.516 887.697 501.3 887.697 500.084C887.697 498.564 887.21 497.408 886.237 496.618C885.295 495.827 883.912 495.432 882.088 495.432C881.054 495.432 880.02 495.584 878.986 495.888C877.953 496.162 876.904 496.648 875.84 497.347C875.293 497.712 874.776 497.864 874.289 497.804C873.833 497.743 873.423 497.545 873.058 497.211C872.724 496.876 872.496 496.466 872.374 495.979C872.252 495.493 872.268 495.006 872.42 494.52C872.602 494.003 872.967 493.562 873.514 493.198C874.821 492.316 876.281 491.647 877.892 491.191C879.534 490.735 881.175 490.507 882.817 490.507C885.128 490.507 887.073 490.857 888.654 491.556C890.235 492.255 891.436 493.274 892.257 494.611C893.078 495.949 893.488 497.575 893.488 499.491C893.488 500.768 893.276 502.014 892.85 503.23C892.455 504.446 891.831 505.678 890.98 506.924C890.159 508.171 889.08 509.493 887.742 510.892L879.169 519.83V518.279H892.576C893.397 518.279 894.02 518.477 894.446 518.872C894.872 519.268 895.084 519.86 895.084 520.651C895.084 521.441 894.872 522.049 894.446 522.475C894.02 522.901 893.397 523.113 892.576 523.113H875.794Z" fill="#F8F0FF"/>
<circle cx="452.331" cy="500" r="44.3367" fill="#AB83D4"/>
<path d="M451.701 515.119C450.06 515.119 448.357 514.906 446.594 514.481C444.83 514.055 443.295 513.417 441.988 512.565C441.38 512.17 440.969 511.714 440.756 511.197C440.544 510.681 440.483 510.194 440.574 509.738C440.696 509.252 440.924 508.841 441.258 508.507C441.623 508.172 442.064 507.975 442.581 507.914C443.128 507.853 443.721 507.99 444.359 508.324C445.606 508.993 446.806 509.48 447.962 509.784C449.117 510.057 450.303 510.194 451.519 510.194C452.857 510.194 453.981 510.012 454.893 509.647C455.806 509.282 456.49 508.735 456.946 508.005C457.432 507.275 457.675 506.394 457.675 505.36C457.675 503.84 457.158 502.715 456.125 501.985C455.122 501.225 453.647 500.845 451.701 500.845H448.783C447.931 500.845 447.278 500.633 446.822 500.207C446.396 499.781 446.183 499.188 446.183 498.428C446.183 497.668 446.396 497.075 446.822 496.65C447.278 496.224 447.931 496.011 448.783 496.011H451.154C452.309 496.011 453.297 495.829 454.118 495.464C454.939 495.069 455.578 494.522 456.034 493.822C456.49 493.123 456.718 492.272 456.718 491.269C456.718 489.87 456.246 488.806 455.304 488.076C454.392 487.347 453.054 486.982 451.291 486.982C450.166 486.982 449.102 487.119 448.099 487.392C447.126 487.636 446.046 488.107 444.861 488.806C444.314 489.14 443.781 489.277 443.265 489.217C442.778 489.156 442.368 488.958 442.033 488.624C441.699 488.289 441.471 487.894 441.349 487.438C441.228 486.952 441.258 486.465 441.44 485.979C441.623 485.462 442.003 485.021 442.581 484.656C443.888 483.805 445.332 483.166 446.913 482.741C448.494 482.285 450.12 482.057 451.792 482.057C454.012 482.057 455.912 482.406 457.493 483.106C459.074 483.774 460.275 484.747 461.096 486.024C461.947 487.271 462.372 488.791 462.372 490.585C462.372 491.861 462.129 493.032 461.643 494.096C461.156 495.13 460.472 496.011 459.591 496.741C458.709 497.471 457.645 497.988 456.398 498.292V497.744C458.587 498.109 460.29 499.021 461.506 500.481C462.722 501.909 463.33 503.703 463.33 505.862C463.33 507.747 462.859 509.388 461.916 510.787C460.974 512.185 459.636 513.265 457.903 514.025C456.17 514.754 454.103 515.119 451.701 515.119Z" fill="#F8F0FF"/>
<circle cx="883.401" cy="702.265" r="44.3367" fill="#AB83D4"/>
<path d="M888.563 717.293C887.651 717.293 886.937 717.049 886.42 716.563C885.903 716.046 885.645 715.317 885.645 714.374V710.817H874.381C873.438 710.817 872.678 710.619 872.1 710.224C871.553 709.829 871.28 709.206 871.28 708.354C871.28 707.868 871.401 707.336 871.644 706.758C871.918 706.181 872.389 705.421 873.058 704.478L885.553 686.374C885.979 685.735 886.45 685.249 886.967 684.914C887.484 684.58 888.077 684.413 888.746 684.413C889.536 684.413 890.19 684.656 890.707 685.142C891.223 685.598 891.482 686.328 891.482 687.331V705.983H893.716C894.598 705.983 895.252 706.196 895.677 706.621C896.133 707.017 896.361 707.61 896.361 708.4C896.361 709.19 896.133 709.799 895.677 710.224C895.252 710.619 894.598 710.817 893.716 710.817H891.482V714.374C891.482 715.317 891.223 716.046 890.707 716.563C890.19 717.049 889.475 717.293 888.563 717.293ZM885.645 705.983V691.755H886.967L876.205 707.534V705.983H885.645Z" fill="#F8F0FF"/>
<defs>
<filter id="filter0_d_33_13763" x="297.786" y="399.126" width="308.824" height="189.347" filterUnits="userSpaceOnUse" color-interpolation-filters="sRGB">
<feFlood flood-opacity="0" result="BackgroundImageFix"/>
<feColorMatrix in="SourceAlpha" type="matrix" values="0 0 0 0 0 0 0 0 0 0 0 0 0 0 0 0 0 0 127 0" result="hardAlpha"/>
<feOffset dy="1.26676"/>
<feGaussianBlur stdDeviation="2.53352"/>
<feColorMatrix type="matrix" values="0 0 0 0 0 0 0 0 0 0 0 0 0 0 0 0 0 0 0.25 0"/>
<feBlend mode="normal" in2="BackgroundImageFix" result="effect1_dropShadow_33_13763"/>
<feBlend mode="normal" in="SourceGraphic" in2="effect1_dropShadow_33_13763" result="shape"/>
</filter>
<filter id="filter1_d_33_13763" x="724.35" y="212.445" width="308.824" height="189.347" filterUnits="userSpaceOnUse" color-interpolation-filters="sRGB">
<feFlood flood-opacity="0" result="BackgroundImageFix"/>
<feColorMatrix in="SourceAlpha" type="matrix" values="0 0 0 0 0 0 0 0 0 0 0 0 0 0 0 0 0 0 127 0" result="hardAlpha"/>
<feOffset dy="1.26676"/>
<feGaussianBlur stdDeviation="2.53352"/>
<feColorMatrix type="matrix" values="0 0 0 0 0 0 0 0 0 0 0 0 0 0 0 0 0 0 0.25 0"/>
<feBlend mode="normal" in2="BackgroundImageFix" result="effect1_dropShadow_33_13763"/>
<feBlend mode="normal" in="SourceGraphic" in2="effect1_dropShadow_33_13763" result="shape"/>
</filter>
<filter id="filter2_d_33_13763" x="1109.8" y="212.445" width="92.2737" height="107.208" filterUnits="userSpaceOnUse" color-interpolation-filters="sRGB">
<feFlood flood-opacity="0" result="BackgroundImageFix"/>
<feColorMatrix in="SourceAlpha" type="matrix" values="0 0 0 0 0 0 0 0 0 0 0 0 0 0 0 0 0 0 127 0" result="hardAlpha"/>
<feOffset dy="1.26676"/>
<feGaussianBlur stdDeviation="2.53352"/>
<feColorMatrix type="matrix" values="0 0 0 0 0 0 0 0 0 0 0 0 0 0 0 0 0 0 0.25 0"/>
<feBlend mode="normal" in2="BackgroundImageFix" result="effect1_dropShadow_33_13763"/>
<feBlend mode="normal" in="SourceGraphic" in2="effect1_dropShadow_33_13763" result="shape"/>
</filter>
<filter id="filter3_d_33_13763" x="1159.53" y="211.179" width="45.0703" height="45.07" filterUnits="userSpaceOnUse" color-interpolation-filters="sRGB">
<feFlood flood-opacity="0" result="BackgroundImageFix"/>
<feColorMatrix in="SourceAlpha" type="matrix" values="0 0 0 0 0 0 0 0 0 0 0 0 0 0 0 0 0 0 127 0" result="hardAlpha"/>
<feOffset dy="2.53352"/>
<feGaussianBlur stdDeviation="3.80028"/>
<feColorMatrix type="matrix" values="0 0 0 0 0 0 0 0 0 0 0 0 0 0 0 0 0 0 0.25 0"/>
<feBlend mode="normal" in2="BackgroundImageFix" result="effect1_dropShadow_33_13763"/>
<feBlend mode="normal" in="SourceGraphic" in2="effect1_dropShadow_33_13763" result="shape"/>
</filter>
<filter id="filter4_d_33_13763" x="724.351" y="406.593" width="308.824" height="189.347" filterUnits="userSpaceOnUse" color-interpolation-filters="sRGB">
<feFlood flood-opacity="0" result="BackgroundImageFix"/>
<feColorMatrix in="SourceAlpha" type="matrix" values="0 0 0 0 0 0 0 0 0 0 0 0 0 0 0 0 0 0 127 0" result="hardAlpha"/>
<feOffset dy="1.26676"/>
<feGaussianBlur stdDeviation="2.53352"/>
<feColorMatrix type="matrix" values="0 0 0 0 0 0 0 0 0 0 0 0 0 0 0 0 0 0 0.25 0"/>
<feBlend mode="normal" in2="BackgroundImageFix" result="effect1_dropShadow_33_13763"/>
<feBlend mode="normal" in="SourceGraphic" in2="effect1_dropShadow_33_13763" result="shape"/>
</filter>
<filter id="filter5_d_33_13763" x="1109.8" y="406.593" width="92.2737" height="107.208" filterUnits="userSpaceOnUse" color-interpolation-filters="sRGB">
<feFlood flood-opacity="0" result="BackgroundImageFix"/>
<feColorMatrix in="SourceAlpha" type="matrix" values="0 0 0 0 0 0 0 0 0 0 0 0 0 0 0 0 0 0 127 0" result="hardAlpha"/>
<feOffset dy="1.26676"/>
<feGaussianBlur stdDeviation="2.53352"/>
<feColorMatrix type="matrix" values="0 0 0 0 0 0 0 0 0 0 0 0 0 0 0 0 0 0 0.25 0"/>
<feBlend mode="normal" in2="BackgroundImageFix" result="effect1_dropShadow_33_13763"/>
<feBlend mode="normal" in="SourceGraphic" in2="effect1_dropShadow_33_13763" result="shape"/>
</filter>
<filter id="filter6_d_33_13763" x="1159.53" y="405.326" width="45.0703" height="45.07" filterUnits="userSpaceOnUse" color-interpolation-filters="sRGB">
<feFlood flood-opacity="0" result="BackgroundImageFix"/>
<feColorMatrix in="SourceAlpha" type="matrix" values="0 0 0 0 0 0 0 0 0 0 0 0 0 0 0 0 0 0 127 0" result="hardAlpha"/>
<feOffset dy="2.53352"/>
<feGaussianBlur stdDeviation="3.80028"/>
<feColorMatrix type="matrix" values="0 0 0 0 0 0 0 0 0 0 0 0 0 0 0 0 0 0 0.25 0"/>
<feBlend mode="normal" in2="BackgroundImageFix" result="effect1_dropShadow_33_13763"/>
<feBlend mode="normal" in="SourceGraphic" in2="effect1_dropShadow_33_13763" result="shape"/>
</filter>
<filter id="filter7_d_33_13763" x="724.35" y="600.741" width="308.824" height="189.347" filterUnits="userSpaceOnUse" color-interpolation-filters="sRGB">
<feFlood flood-opacity="0" result="BackgroundImageFix"/>
<feColorMatrix in="SourceAlpha" type="matrix" values="0 0 0 0 0 0 0 0 0 0 0 0 0 0 0 0 0 0 127 0" result="hardAlpha"/>
<feOffset dy="1.26676"/>
<feGaussianBlur stdDeviation="2.53352"/>
<feColorMatrix type="matrix" values="0 0 0 0 0 0 0 0 0 0 0 0 0 0 0 0 0 0 0.25 0"/>
<feBlend mode="normal" in2="BackgroundImageFix" result="effect1_dropShadow_33_13763"/>
<feBlend mode="normal" in="SourceGraphic" in2="effect1_dropShadow_33_13763" result="shape"/>
</filter>
<filter id="filter8_d_33_13763" x="1109.8" y="600.741" width="92.2737" height="107.208" filterUnits="userSpaceOnUse" color-interpolation-filters="sRGB">
<feFlood flood-opacity="0" result="BackgroundImageFix"/>
<feColorMatrix in="SourceAlpha" type="matrix" values="0 0 0 0 0 0 0 0 0 0 0 0 0 0 0 0 0 0 127 0" result="hardAlpha"/>
<feOffset dy="1.26676"/>
<feGaussianBlur stdDeviation="2.53352"/>
<feColorMatrix type="matrix" values="0 0 0 0 0 0 0 0 0 0 0 0 0 0 0 0 0 0 0.25 0"/>
<feBlend mode="normal" in2="BackgroundImageFix" result="effect1_dropShadow_33_13763"/>
<feBlend mode="normal" in="SourceGraphic" in2="effect1_dropShadow_33_13763" result="shape"/>
</filter>
<filter id="filter9_d_33_13763" x="1159.53" y="599.474" width="45.0703" height="45.07" filterUnits="userSpaceOnUse" color-interpolation-filters="sRGB">
<feFlood flood-opacity="0" result="BackgroundImageFix"/>
<feColorMatrix in="SourceAlpha" type="matrix" values="0 0 0 0 0 0 0 0 0 0 0 0 0 0 0 0 0 0 127 0" result="hardAlpha"/>
<feOffset dy="2.53352"/>
<feGaussianBlur stdDeviation="3.80028"/>
<feColorMatrix type="matrix" values="0 0 0 0 0 0 0 0 0 0 0 0 0 0 0 0 0 0 0.25 0"/>
<feBlend mode="normal" in2="BackgroundImageFix" result="effect1_dropShadow_33_13763"/>
<feBlend mode="normal" in="SourceGraphic" in2="effect1_dropShadow_33_13763" result="shape"/>
</filter>
</defs>
</svg>
