<svg width="320" height="760" viewBox="0 0 320 760" fill="none" xmlns="http://www.w3.org/2000/svg">
<g clip-path="url(#clip0_308_506)">
<circle cx="80" cy="662" r="80" transform="rotate(-30 80 662)" fill="#FFF0ED"/>
<path fill-rule="evenodd" clip-rule="evenodd" d="M49.2155 656.68L31.895 666.68L41.895 684L24.5745 694C30.0973 703.566 42.3291 706.844 51.895 701.321C61.4608 695.798 64.7383 683.566 59.2155 674L49.2155 656.68ZM70.0001 644.68L52.6796 654.68L62.6796 672L71.3398 667L81.3398 684.321L98.6603 674.321L88.6603 657L97.3206 652L87.3206 634.68L70.0001 644.68ZM108.105 622.68L90.7847 632.68L100.785 650L110.785 667.321L128.105 657.321C137.671 651.798 140.949 639.566 135.426 630C129.903 620.434 117.671 617.157 108.105 622.68Z" fill="#FACAC8"/>
<path fill-rule="evenodd" clip-rule="evenodd" d="M88.4643 598.355L87.8283 611.119L85.3654 610.997L85.6368 605.549L79.848 605.261L79.5766 610.708L77.0957 610.584L77.7317 597.82L80.2126 597.944L79.9555 603.104L85.7443 603.392L86.0014 598.232L88.4643 598.355ZM67.7014 601.413L71.6972 600.56L71.2421 598.43L60.8389 600.653L61.294 602.782L65.2898 601.929L67.5051 612.297L69.9167 611.781L67.7014 601.413ZM42.611 615.681L47.3612 622.375L45.3355 623.812L37.9393 613.39L39.554 612.244L49.8166 615.291L44.9518 608.436L46.9775 606.998L54.3633 617.406L52.6752 618.604L42.611 615.681ZM42.9686 626.213L32.9021 618.339L31.3828 620.282L35.452 623.464L31.8811 628.03L27.812 624.847L26.2816 626.804L36.3481 634.677L37.8785 632.721L33.5825 629.36L37.1533 624.795L41.4493 628.155L42.9686 626.213ZM32.4977 643.131C32.1505 644 31.6672 644.724 31.048 645.304C30.4333 645.872 29.7393 646.299 28.9662 646.585C28.1864 646.855 27.3843 646.987 26.5598 646.98C25.7241 646.97 24.9274 646.813 24.1697 646.51C23.3785 646.194 22.6841 645.749 22.0867 645.174C21.4825 644.584 21.0042 643.921 20.6518 643.186C20.2927 642.435 20.0918 641.644 20.0491 640.813C19.9997 639.966 20.1442 639.119 20.4825 638.273C20.8253 637.414 21.3096 636.703 21.9355 636.139C22.5659 635.564 23.271 635.142 24.0508 634.872C24.8306 634.602 25.6327 634.47 26.4572 634.476C27.2817 634.482 28.0728 634.637 28.8306 634.94C29.6107 635.251 30.305 635.697 30.9136 636.276C31.511 636.85 31.9893 637.513 32.3484 638.264C32.7008 638.999 32.8962 639.788 32.9344 640.63C32.9771 641.461 32.8316 642.295 32.4977 643.131ZM25.1045 644.17C25.6171 644.375 26.1442 644.495 26.6857 644.53C27.2272 644.566 27.7453 644.514 28.2399 644.376C28.7278 644.222 29.1678 643.978 29.5598 643.643C29.9452 643.293 30.2469 642.845 30.4651 642.299C30.6876 641.742 30.7743 641.202 30.7251 640.678C30.6646 640.15 30.5029 639.665 30.2397 639.224C29.9654 638.779 29.6232 638.39 29.2131 638.058C28.7962 637.711 28.3482 637.441 27.869 637.25C27.3564 637.045 26.8327 636.933 26.2979 636.913C25.7564 636.877 25.2416 636.937 24.7537 637.091C24.2591 637.229 23.8191 637.473 23.4337 637.823C23.0417 638.158 22.7388 638.592 22.5252 639.127C22.2981 639.696 22.2148 640.244 22.2752 640.772C22.3289 641.284 22.4874 641.761 22.7505 642.202C23.0136 642.643 23.3481 643.035 23.7538 643.378C24.1639 643.71 24.6142 643.974 25.1045 644.17ZM26.2211 658.161C26.3488 658.021 26.5163 657.765 26.7234 657.393C26.9186 657.019 27.052 656.565 27.1235 656.03C27.1856 655.566 27.1592 655.175 27.0443 654.857C26.9175 654.537 26.7039 654.279 26.4035 654.081C26.1046 653.872 25.7026 653.709 25.1975 653.593C24.694 653.465 24.0854 653.353 23.3718 653.258L16.7349 652.371L17.0641 649.909L23.5048 650.77C24.4563 650.897 25.3174 651.067 26.0881 651.279C26.8588 651.491 27.5089 651.789 28.0385 652.175C28.5681 652.561 28.9453 653.089 29.1703 653.761C29.3968 654.421 29.4409 655.268 29.3026 656.303C29.2262 656.874 29.0924 657.377 28.9011 657.811C28.7099 658.246 28.4579 658.636 28.1454 658.981L26.2211 658.161ZM100.712 614.885L101.382 612.813L95.3011 610.849L96.3247 607.68L101.446 609.334L102.066 607.416L96.9444 605.761L97.8905 602.832L103.817 604.747L104.486 602.674L96.1962 599.996L92.2679 612.158L100.712 614.885ZM56.5109 722.247L59.6972 709.87L64.1945 711.028C65.5425 711.375 66.598 711.944 67.3608 712.735C68.1266 713.515 68.615 714.434 68.8259 715.492C69.0398 716.538 69.0001 717.631 68.7069 718.769C68.3838 720.025 67.8527 721.053 67.1136 721.854C66.3746 722.655 65.4802 723.193 64.4305 723.468C63.3924 723.746 62.2517 723.725 61.0082 723.404L56.5109 722.247ZM66.2839 718.146C66.4903 717.344 66.5261 716.603 66.3911 715.924C66.2592 715.234 65.9635 714.649 65.5041 714.172C65.0476 713.682 64.4301 713.338 63.6515 713.137L61.5597 712.599L59.4594 720.757L61.5512 721.295C62.3415 721.499 63.0545 721.496 63.6905 721.288C64.3294 721.069 64.8676 720.687 65.3051 720.143C65.7572 719.59 66.0835 718.924 66.2839 718.146ZM83.1506 726.174L83.1202 723.996L76.7308 724.085L76.6843 720.756L82.0658 720.681L82.0376 718.665L76.6562 718.74L76.6132 715.662L82.8406 715.575L82.8101 713.397L74.099 713.519L74.2775 726.298L83.1506 726.174ZM95.249 714.627C95.1459 714.568 94.9654 714.498 94.7076 714.419C94.4614 714.337 94.1646 714.275 93.8173 714.233C93.4816 714.187 93.1217 714.167 92.7375 714.172C92.3502 714.165 91.9713 714.212 91.6008 714.313C90.9523 714.49 90.4933 714.745 90.2236 715.08C89.9656 715.411 89.8964 715.797 90.0161 716.237C90.1074 716.572 90.2841 716.81 90.5461 716.95C90.808 717.091 91.1663 717.173 91.621 717.199C92.0756 717.225 92.6377 717.233 93.307 717.225C94.1711 717.202 94.9378 717.254 95.6071 717.383C96.2848 717.497 96.843 717.743 97.2816 718.122C97.7287 718.485 98.0546 719.043 98.2593 719.796C98.4389 720.456 98.4716 721.056 98.3576 721.597C98.2405 722.126 98.007 722.594 97.6573 723C97.3077 723.406 96.8796 723.753 96.3732 724.04C95.8636 724.315 95.302 724.536 94.6883 724.703C94.0746 724.87 93.4436 724.973 92.7952 725.013C92.1469 725.052 91.5075 725.034 90.8771 724.956C90.2436 724.867 89.6438 724.72 89.0777 724.513L89.5749 722.158C89.7075 722.234 89.9306 722.322 90.2441 722.424C90.5545 722.513 90.9244 722.593 91.3538 722.663C91.78 722.721 92.2347 722.746 92.7178 722.739C93.2008 722.732 93.674 722.666 94.1371 722.54C94.7856 722.363 95.2478 722.12 95.5237 721.808C95.7997 721.497 95.8825 721.139 95.7723 720.733C95.6715 720.363 95.4596 720.11 95.1365 719.974C94.8135 719.838 94.3942 719.759 93.8785 719.737C93.3596 719.705 92.7508 719.684 92.0519 719.675C91.2163 719.666 90.5017 719.599 89.9082 719.474C89.3115 719.338 88.8291 719.096 88.461 718.749C88.0929 718.401 87.8237 717.915 87.6537 717.29C87.4237 716.444 87.4284 715.684 87.6678 715.01C87.9155 714.321 88.3417 713.739 88.9461 713.263C89.5474 712.776 90.2648 712.419 91.0985 712.193C91.6775 712.035 92.2391 711.951 92.7832 711.94C93.3389 711.925 93.8709 711.961 94.3792 712.046C94.8875 712.132 95.3542 712.247 95.7793 712.393L95.249 714.627ZM99.7545 709.63L105.513 721.039L107.731 719.92L101.972 708.511L99.7545 709.63ZM118.867 713.281C118.226 713.805 117.512 714.173 116.723 714.385C115.944 714.589 115.15 714.642 114.341 714.544C113.534 714.43 112.759 714.165 112.015 713.75C111.272 713.335 110.608 712.77 110.022 712.055C109.467 711.377 109.067 710.642 108.822 709.85C108.569 709.049 108.475 708.243 108.539 707.43C108.603 706.618 108.82 705.842 109.192 705.103C109.565 704.365 110.094 703.714 110.781 703.151C111.71 702.391 112.667 701.94 113.653 701.8C114.641 701.642 115.568 701.752 116.434 702.128L115.867 704.361C115.213 704.074 114.552 703.987 113.884 704.1C113.226 704.205 112.632 704.474 112.103 704.907C111.685 705.249 111.377 705.649 111.177 706.107C110.978 706.565 110.879 707.049 110.879 707.561C110.879 708.073 110.973 708.585 111.161 709.098C111.358 709.604 111.639 710.08 112.004 710.525C112.392 710.999 112.819 711.378 113.285 711.663C113.76 711.941 114.25 712.122 114.753 712.206C115.265 712.283 115.77 712.265 116.268 712.152C116.757 712.03 117.216 711.795 117.643 711.445C118.144 711.034 118.516 710.513 118.758 709.88C118.98 709.314 119.1 708.674 119.116 707.96L118.556 707.277L116.565 708.907L115.413 707.501L118.992 704.57L123.155 709.653L121.567 710.953L120.648 709.83C120.504 711.276 119.91 712.426 118.867 713.281ZM130.066 702.622L123.255 698.042L133.702 697.216L134.857 695.498L124.268 688.376L122.881 690.437L129.857 695.128L119.18 695.908L118.075 697.551L128.679 704.684L130.066 702.622ZM139.52 679.564L141.587 680.25L138.791 688.672L126.662 684.646L129.407 676.377L131.474 677.064L129.512 682.974L132.433 683.944L134.129 678.836L136.042 679.472L134.347 684.579L137.507 685.629L139.52 679.564ZM130.87 672.406L143.624 673.216L143.781 670.737L139.506 670.465L139.663 667.986L144.105 665.635L144.279 662.904L139.298 665.51C139.124 665.03 138.862 664.605 138.513 664.234C138.164 663.863 137.749 663.572 137.27 663.361C136.779 663.138 136.264 663.009 135.725 662.974C135.198 662.941 134.677 663.01 134.161 663.182C133.646 663.341 133.173 663.594 132.742 663.939C132.312 664.273 131.961 664.683 131.69 665.171C131.419 665.647 131.265 666.178 131.228 666.765L130.87 672.406ZM137.53 667.219L137.332 670.327L133.201 670.065L133.391 667.065C133.41 666.765 133.517 666.496 133.713 666.256C133.909 666.003 134.169 665.804 134.491 665.656C134.801 665.507 135.159 665.446 135.566 665.471C135.95 665.496 136.292 665.59 136.595 665.753C136.897 665.917 137.136 666.124 137.313 666.376C137.477 666.627 137.549 666.908 137.53 667.219Z" fill="#FACAC8"/>
<circle cx="240" cy="380" r="80" transform="rotate(-30 240 380)" fill="#FFF0ED"/>
<path fill-rule="evenodd" clip-rule="evenodd" d="M209.215 374.68L191.895 384.68L201.895 402L184.574 412C190.097 421.566 202.329 424.844 211.895 419.321C221.461 413.798 224.738 401.566 219.215 392L209.215 374.68ZM230 362.68L212.68 372.68L222.68 390L231.34 385L241.34 402.321L258.66 392.321L248.66 375L257.321 370L247.321 352.68L230 362.68ZM268.105 340.68L250.785 350.68L260.785 368L270.785 385.321L288.105 375.321C297.671 369.798 300.949 357.566 295.426 348C289.903 338.434 277.671 335.157 268.105 340.68Z" fill="#FACAC8"/>
<path fill-rule="evenodd" clip-rule="evenodd" d="M248.464 316.355L247.828 329.119L245.365 328.997L245.637 323.549L239.848 323.261L239.577 328.708L237.096 328.584L237.732 315.82L240.213 315.944L239.955 321.104L245.744 321.392L246.001 316.232L248.464 316.355ZM227.701 319.413L231.697 318.56L231.242 316.43L220.839 318.653L221.294 320.782L225.29 319.929L227.505 330.297L229.917 329.781L227.701 319.413ZM202.611 333.681L207.361 340.375L205.335 341.812L197.939 331.39L199.554 330.244L209.817 333.291L204.952 326.436L206.978 324.998L214.363 335.406L212.675 336.604L202.611 333.681ZM202.969 344.213L192.902 336.339L191.383 338.282L195.452 341.464L191.881 346.03L187.812 342.847L186.282 344.804L196.348 352.677L197.878 350.721L193.582 347.36L197.153 342.795L201.449 346.155L202.969 344.213ZM192.498 361.131C192.15 362 191.667 362.724 191.048 363.304C190.433 363.872 189.739 364.299 188.966 364.585C188.186 364.855 187.384 364.987 186.56 364.98C185.724 364.97 184.927 364.813 184.17 364.51C183.378 364.194 182.684 363.749 182.087 363.174C181.483 362.584 181.004 361.921 180.652 361.186C180.293 360.435 180.092 359.644 180.049 358.813C180 357.966 180.144 357.119 180.482 356.273C180.825 355.414 181.31 354.703 181.936 354.139C182.566 353.564 183.271 353.142 184.051 352.872C184.831 352.602 185.633 352.47 186.457 352.476C187.282 352.482 188.073 352.637 188.831 352.94C189.611 353.251 190.305 353.697 190.914 354.276C191.511 354.85 191.989 355.513 192.348 356.264C192.701 356.999 192.896 357.788 192.934 358.63C192.977 359.461 192.832 360.295 192.498 361.131ZM185.105 362.17C185.617 362.375 186.144 362.495 186.686 362.53C187.227 362.566 187.745 362.514 188.24 362.376C188.728 362.222 189.168 361.978 189.56 361.643C189.945 361.293 190.247 360.845 190.465 360.299C190.688 359.742 190.774 359.202 190.725 358.678C190.665 358.15 190.503 357.665 190.24 357.224C189.965 356.779 189.623 356.39 189.213 356.058C188.796 355.711 188.348 355.441 187.869 355.25C187.356 355.045 186.833 354.933 186.298 354.913C185.756 354.877 185.242 354.937 184.754 355.091C184.259 355.229 183.819 355.473 183.434 355.823C183.042 356.158 182.739 356.592 182.525 357.127C182.298 357.696 182.215 358.244 182.275 358.772C182.329 359.284 182.487 359.761 182.75 360.202C183.014 360.643 183.348 361.035 183.754 361.378C184.164 361.71 184.614 361.974 185.105 362.17ZM186.221 376.161C186.349 376.021 186.516 375.765 186.723 375.393C186.919 375.019 187.052 374.565 187.124 374.03C187.186 373.566 187.159 373.175 187.044 372.857C186.918 372.537 186.704 372.279 186.403 372.081C186.105 371.872 185.703 371.709 185.198 371.593C184.694 371.465 184.085 371.353 183.372 371.258L176.735 370.371L177.064 367.909L183.505 368.77C184.456 368.897 185.317 369.067 186.088 369.279C186.859 369.491 187.509 369.789 188.039 370.175C188.568 370.561 188.945 371.089 189.17 371.761C189.397 372.421 189.441 373.268 189.303 374.303C189.226 374.874 189.092 375.377 188.901 375.811C188.71 376.246 188.458 376.636 188.145 376.981L186.221 376.161ZM260.712 332.885L261.382 330.813L255.301 328.849L256.325 325.68L261.446 327.334L262.066 325.416L256.944 323.761L257.89 320.832L263.817 322.747L264.486 320.674L256.196 317.996L252.268 330.158L260.712 332.885ZM216.511 440.247L219.697 427.87L224.194 429.028C225.543 429.375 226.598 429.944 227.361 430.735C228.127 431.515 228.615 432.434 228.826 433.492C229.04 434.538 229 435.631 228.707 436.769C228.384 438.025 227.853 439.053 227.114 439.854C226.375 440.655 225.48 441.193 224.431 441.468C223.392 441.746 222.252 441.725 221.008 441.404L216.511 440.247ZM226.284 436.146C226.49 435.344 226.526 434.603 226.391 433.924C226.259 433.234 225.963 432.649 225.504 432.172C225.048 431.682 224.43 431.338 223.651 431.137L221.56 430.599L219.459 438.757L221.551 439.295C222.341 439.499 223.055 439.496 223.69 439.288C224.329 439.069 224.868 438.687 225.305 438.143C225.757 437.59 226.083 436.924 226.284 436.146ZM243.151 444.174L243.12 441.996L236.731 442.085L236.684 438.756L242.066 438.681L242.038 436.665L236.656 436.74L236.613 433.662L242.841 433.575L242.81 431.397L234.099 431.519L234.277 444.298L243.151 444.174ZM255.249 432.627C255.146 432.568 254.965 432.498 254.708 432.419C254.461 432.337 254.165 432.275 253.817 432.233C253.482 432.187 253.122 432.167 252.738 432.172C252.35 432.165 251.971 432.212 251.601 432.313C250.952 432.49 250.493 432.745 250.224 433.08C249.966 433.411 249.896 433.797 250.016 434.237C250.107 434.572 250.284 434.81 250.546 434.95C250.808 435.091 251.166 435.173 251.621 435.199C252.076 435.225 252.638 435.233 253.307 435.225C254.171 435.202 254.938 435.254 255.607 435.383C256.285 435.497 256.843 435.743 257.282 436.122C257.729 436.485 258.055 437.043 258.259 437.796C258.439 438.456 258.472 439.056 258.358 439.597C258.24 440.126 258.007 440.594 257.657 441C257.308 441.406 256.88 441.753 256.373 442.04C255.864 442.315 255.302 442.536 254.688 442.703C254.075 442.87 253.444 442.973 252.795 443.013C252.147 443.052 251.507 443.034 250.877 442.956C250.244 442.867 249.644 442.72 249.078 442.513L249.575 440.158C249.707 440.234 249.931 440.322 250.244 440.424C250.555 440.513 250.924 440.593 251.354 440.663C251.78 440.721 252.235 440.746 252.718 440.739C253.201 440.732 253.674 440.666 254.137 440.54C254.786 440.363 255.248 440.12 255.524 439.808C255.8 439.497 255.883 439.139 255.772 438.733C255.671 438.363 255.46 438.11 255.137 437.974C254.814 437.838 254.394 437.759 253.878 437.737C253.36 437.705 252.751 437.684 252.052 437.675C251.216 437.666 250.502 437.599 249.908 437.474C249.312 437.338 248.829 437.096 248.461 436.749C248.093 436.401 247.824 435.915 247.654 435.29C247.424 434.444 247.428 433.684 247.668 433.01C247.916 432.321 248.342 431.739 248.946 431.263C249.547 430.776 250.265 430.419 251.099 430.193C251.678 430.035 252.239 429.951 252.783 429.94C253.339 429.925 253.871 429.961 254.379 430.046C254.887 430.132 255.354 430.247 255.779 430.393L255.249 432.627ZM259.755 427.63L265.513 439.039L267.731 437.92L261.972 426.511L259.755 427.63ZM278.867 431.281C278.226 431.805 277.512 432.173 276.723 432.385C275.944 432.589 275.15 432.642 274.341 432.544C273.534 432.43 272.759 432.165 272.015 431.75C271.272 431.335 270.608 430.77 270.022 430.055C269.467 429.377 269.067 428.642 268.822 427.85C268.569 427.049 268.475 426.243 268.539 425.43C268.603 424.618 268.82 423.842 269.192 423.103C269.565 422.365 270.094 421.714 270.781 421.151C271.71 420.391 272.667 419.94 273.653 419.8C274.641 419.642 275.568 419.752 276.434 420.128L275.867 422.361C275.213 422.074 274.552 421.987 273.884 422.1C273.226 422.205 272.632 422.474 272.103 422.907C271.685 423.249 271.377 423.649 271.177 424.107C270.978 424.565 270.879 425.049 270.879 425.561C270.879 426.073 270.973 426.585 271.161 427.098C271.358 427.604 271.639 428.08 272.004 428.525C272.392 428.999 272.819 429.378 273.285 429.663C273.76 429.941 274.25 430.122 274.753 430.206C275.265 430.283 275.77 430.265 276.268 430.152C276.757 430.03 277.216 429.795 277.643 429.445C278.144 429.034 278.516 428.513 278.758 427.88C278.98 427.314 279.1 426.674 279.116 425.96L278.556 425.277L276.565 426.907L275.413 425.501L278.992 422.57L283.155 427.653L281.567 428.953L280.648 427.83C280.504 429.276 279.91 430.426 278.867 431.281ZM290.066 420.622L283.255 416.042L293.702 415.216L294.857 413.498L284.268 406.376L282.881 408.437L289.857 413.128L279.18 413.908L278.075 415.551L288.679 422.684L290.066 420.622ZM299.52 397.564L301.587 398.25L298.791 406.672L286.662 402.646L289.407 394.377L291.474 395.064L289.512 400.974L292.433 401.944L294.129 396.836L296.042 397.472L294.347 402.579L297.507 403.629L299.52 397.564ZM290.87 390.406L303.624 391.216L303.781 388.737L299.506 388.465L299.663 385.986L304.105 383.635L304.279 380.904L299.298 383.51C299.124 383.03 298.862 382.605 298.513 382.234C298.164 381.863 297.749 381.572 297.27 381.361C296.779 381.138 296.264 381.009 295.725 380.974C295.198 380.941 294.677 381.01 294.161 381.182C293.646 381.341 293.173 381.594 292.742 381.939C292.312 382.273 291.961 382.683 291.69 383.171C291.419 383.647 291.265 384.178 291.228 384.765L290.87 390.406ZM297.53 385.219L297.332 388.327L293.201 388.065L293.391 385.065C293.41 384.765 293.517 384.496 293.713 384.256C293.909 384.003 294.169 383.804 294.491 383.656C294.801 383.507 295.159 383.446 295.566 383.471C295.95 383.496 296.292 383.59 296.595 383.753C296.897 383.917 297.136 384.124 297.313 384.376C297.477 384.627 297.549 384.908 297.53 385.219Z" fill="#FACAC8"/>
<circle cx="80" cy="91.9998" r="80" transform="rotate(-30 80 91.9998)" fill="#F0F3FF"/>
<path fill-rule="evenodd" clip-rule="evenodd" d="M49.2155 86.6797L31.895 96.6797L41.895 114L24.5745 124C30.0973 133.566 42.3291 136.844 51.895 131.321C61.4608 125.798 64.7383 113.566 59.2155 104L49.2155 86.6797ZM70.0001 74.6797L52.6796 84.6797L62.6796 102L71.3398 97.0002L81.3398 114.321L98.6603 104.321L88.6603 87.0002L97.3206 82.0002L87.3206 64.6797L70.0001 74.6797ZM108.105 52.6797L90.7847 62.6797L100.785 80.0002L110.785 97.3207L128.105 87.3207C137.671 81.7979 140.949 69.566 135.426 60.0002C129.903 50.4343 117.671 47.1568 108.105 52.6797Z" fill="#C0D6FB"/>
<path fill-rule="evenodd" clip-rule="evenodd" d="M88.4643 28.3551L87.8283 41.1192L85.3654 40.9965L85.6368 35.5493L79.848 35.2609L79.5766 40.7081L77.0957 40.5845L77.7317 27.8203L80.2126 27.9439L79.9555 33.1035L85.7443 33.392L86.0014 28.2324L88.4643 28.3551ZM67.7014 31.4134L71.6972 30.5596L71.2421 28.4297L60.8389 30.6525L61.294 32.7824L65.2898 31.9287L67.5051 42.2966L69.9167 41.7814L67.7014 31.4134ZM42.611 45.681L47.3612 52.3748L45.3355 53.8124L37.9393 43.39L39.554 42.2441L49.8166 45.291L44.9518 38.4357L46.9775 36.9982L54.3633 47.4058L52.6752 48.6038L42.611 45.681ZM42.9686 56.2129L32.9021 48.3392L31.3828 50.2816L35.452 53.4644L31.8811 58.0297L27.812 54.847L26.2816 56.8036L36.3481 64.6772L37.8785 62.7206L33.5825 59.3605L37.1533 54.7951L41.4493 58.1553L42.9686 56.2129ZM32.4977 73.1305C32.1505 73.9997 31.6672 74.7241 31.048 75.3038C30.4333 75.8723 29.7393 76.2993 28.9662 76.5849C28.1864 76.8549 27.3843 76.9867 26.5598 76.9804C25.7241 76.9696 24.9274 76.8129 24.1697 76.5102C23.3785 76.1941 22.6841 75.7488 22.0867 75.1741C21.4825 74.5839 21.0042 73.9212 20.6518 73.186C20.2927 72.4352 20.0918 71.6442 20.0491 70.8131C19.9997 69.9663 20.1442 69.1195 20.4825 68.2726C20.8253 67.4145 21.3096 66.7034 21.9355 66.1394C22.5659 65.5642 23.271 65.1416 24.0508 64.8716C24.8306 64.6016 25.6327 64.4698 26.4572 64.4761C27.2817 64.4824 28.0728 64.6369 28.8306 64.9396C29.6107 65.2513 30.305 65.6966 30.9136 66.2757C31.511 66.8504 31.9893 67.5131 32.3484 68.2639C32.7008 68.9991 32.8962 69.7878 32.9344 70.6301C32.9771 71.4613 32.8316 72.2947 32.4977 73.1305ZM25.1045 74.17C25.6171 74.3748 26.1442 74.4949 26.6857 74.5303C27.2272 74.5657 27.7453 74.5142 28.2399 74.3758C28.7278 74.2219 29.1678 73.9777 29.5598 73.6432C29.9452 73.2932 30.2469 72.8452 30.4651 72.2991C30.6876 71.7419 30.7743 71.2015 30.7251 70.6779C30.6646 70.1498 30.5029 69.6652 30.2397 69.2241C29.9654 68.7786 29.6232 68.3899 29.2131 68.058C28.7962 67.7106 28.3482 67.4412 27.869 67.2498C27.3564 67.045 26.8327 66.9327 26.2979 66.9129C25.7564 66.8775 25.2416 66.9367 24.7537 67.0907C24.2591 67.2291 23.8191 67.4733 23.4337 67.8233C23.0417 68.1578 22.7388 68.5924 22.5252 69.1273C22.2981 69.6956 22.2148 70.2439 22.2752 70.7719C22.3289 71.2844 22.4874 71.7612 22.7505 72.2023C23.0136 72.6434 23.3481 73.0355 23.7538 73.3784C24.1639 73.7103 24.6142 73.9741 25.1045 74.17ZM26.2211 88.161C26.3488 88.0207 26.5163 87.7646 26.7234 87.3927C26.9186 87.0193 27.052 86.565 27.1235 86.0298C27.1856 85.5659 27.1592 85.1749 27.0443 84.8569C26.9175 84.5373 26.7039 84.2787 26.4035 84.0811C26.1046 83.8717 25.7026 83.709 25.1975 83.593C24.694 83.4651 24.0854 83.3535 23.3718 83.2581L16.7349 82.3706L17.0641 79.9085L23.5048 80.7697C24.4563 80.897 25.3174 81.0666 26.0881 81.2786C26.8588 81.4906 27.5089 81.7894 28.0385 82.175C28.5681 82.5606 28.9453 83.0893 29.1703 83.761C29.3968 84.4209 29.4409 85.2682 29.3026 86.303C29.2262 86.8739 29.0924 87.3766 28.9011 87.8111C28.7099 88.2456 28.4579 88.6356 28.1454 88.9812L26.2211 88.161ZM100.712 44.8854L101.382 42.8128L95.3011 40.8487L96.3247 37.6799L101.446 39.3342L102.066 37.4158L96.9444 35.7615L97.8905 32.8325L103.817 34.7469L104.486 32.6743L96.1962 29.9964L92.2679 42.1577L100.712 44.8854ZM56.5109 152.247L59.6972 139.87L64.1945 141.028C65.5425 141.375 66.598 141.944 67.3608 142.735C68.1266 143.515 68.615 144.434 68.8259 145.492C69.0398 146.538 69.0001 147.631 68.7069 148.769C68.3838 150.025 67.8527 151.053 67.1136 151.854C66.3746 152.655 65.4802 153.193 64.4305 153.468C63.3924 153.746 62.2517 153.725 61.0082 153.404L56.5109 152.247ZM66.2839 148.146C66.4903 147.344 66.5261 146.603 66.3911 145.924C66.2592 145.234 65.9635 144.649 65.5041 144.172C65.0476 143.682 64.4301 143.338 63.6515 143.137L61.5597 142.599L59.4594 150.757L61.5512 151.295C62.3415 151.499 63.0545 151.496 63.6905 151.288C64.3294 151.069 64.8676 150.687 65.3051 150.143C65.7572 149.59 66.0835 148.924 66.2839 148.146ZM83.1506 156.174L83.1202 153.996L76.7308 154.085L76.6843 150.756L82.0658 150.681L82.0376 148.665L76.6562 148.74L76.6132 145.662L82.8406 145.575L82.8101 143.397L74.099 143.519L74.2775 156.298L83.1506 156.174ZM95.249 144.627C95.1459 144.568 94.9654 144.498 94.7076 144.419C94.4614 144.337 94.1646 144.275 93.8173 144.233C93.4816 144.187 93.1217 144.167 92.7375 144.172C92.3502 144.165 91.9713 144.212 91.6008 144.313C90.9523 144.49 90.4933 144.745 90.2236 145.08C89.9656 145.411 89.8964 145.797 90.0161 146.237C90.1074 146.572 90.2841 146.81 90.5461 146.95C90.808 147.091 91.1663 147.173 91.621 147.199C92.0756 147.225 92.6377 147.233 93.307 147.225C94.1711 147.202 94.9378 147.254 95.6071 147.383C96.2848 147.497 96.843 147.743 97.2816 148.122C97.7287 148.485 98.0546 149.043 98.2593 149.796C98.4389 150.456 98.4716 151.056 98.3576 151.597C98.2405 152.126 98.007 152.594 97.6573 153C97.3077 153.406 96.8796 153.753 96.3732 154.04C95.8636 154.315 95.302 154.536 94.6883 154.703C94.0746 154.87 93.4436 154.973 92.7952 155.013C92.1469 155.052 91.5075 155.034 90.8771 154.956C90.2436 154.867 89.6438 154.72 89.0777 154.513L89.5749 152.158C89.7075 152.234 89.9306 152.322 90.2441 152.424C90.5545 152.513 90.9244 152.593 91.3538 152.663C91.78 152.721 92.2347 152.746 92.7178 152.739C93.2008 152.732 93.674 152.666 94.1371 152.54C94.7856 152.363 95.2478 152.12 95.5237 151.808C95.7997 151.497 95.8825 151.139 95.7723 150.733C95.6715 150.363 95.4596 150.11 95.1365 149.974C94.8135 149.838 94.3942 149.759 93.8785 149.737C93.3596 149.705 92.7508 149.684 92.0519 149.675C91.2163 149.666 90.5017 149.599 89.9082 149.474C89.3115 149.338 88.8291 149.096 88.461 148.749C88.0929 148.401 87.8237 147.915 87.6537 147.29C87.4237 146.444 87.4284 145.684 87.6678 145.01C87.9155 144.321 88.3417 143.739 88.9461 143.263C89.5474 142.776 90.2648 142.419 91.0985 142.193C91.6775 142.035 92.2391 141.951 92.7832 141.94C93.3389 141.925 93.8709 141.961 94.3792 142.046C94.8875 142.132 95.3542 142.247 95.7793 142.393L95.249 144.627ZM99.7545 139.63L105.513 151.039L107.731 149.92L101.972 138.511L99.7545 139.63ZM118.867 143.281C118.226 143.805 117.512 144.173 116.723 144.385C115.944 144.589 115.15 144.642 114.341 144.544C113.534 144.43 112.759 144.165 112.015 143.75C111.272 143.335 110.608 142.77 110.022 142.055C109.467 141.377 109.067 140.642 108.822 139.85C108.569 139.049 108.475 138.243 108.539 137.43C108.603 136.618 108.82 135.842 109.192 135.103C109.565 134.365 110.094 133.714 110.781 133.151C111.71 132.391 112.667 131.94 113.653 131.8C114.641 131.642 115.568 131.752 116.434 132.128L115.867 134.361C115.213 134.074 114.552 133.987 113.884 134.1C113.226 134.205 112.632 134.474 112.103 134.907C111.685 135.249 111.377 135.649 111.177 136.107C110.978 136.565 110.879 137.049 110.879 137.561C110.879 138.073 110.973 138.585 111.161 139.098C111.358 139.604 111.639 140.08 112.004 140.525C112.392 140.999 112.819 141.378 113.285 141.663C113.76 141.941 114.25 142.122 114.753 142.206C115.265 142.283 115.77 142.265 116.268 142.152C116.757 142.03 117.216 141.795 117.643 141.445C118.144 141.034 118.516 140.513 118.758 139.88C118.98 139.314 119.1 138.674 119.116 137.96L118.556 137.277L116.565 138.907L115.413 137.501L118.992 134.57L123.155 139.653L121.567 140.953L120.648 139.83C120.504 141.276 119.91 142.426 118.867 143.281ZM130.066 132.622L123.255 128.042L133.702 127.216L134.857 125.498L124.268 118.376L122.881 120.437L129.857 125.128L119.18 125.908L118.075 127.551L128.679 134.684L130.066 132.622ZM139.52 109.564L141.587 110.25L138.791 118.672L126.662 114.646L129.407 106.377L131.474 107.064L129.512 112.974L132.433 113.944L134.129 108.836L136.042 109.472L134.347 114.579L137.507 115.629L139.52 109.564ZM130.87 102.406L143.624 103.216L143.781 100.737L139.506 100.465L139.663 97.9861L144.105 95.6348L144.279 92.9044L139.298 95.5099C139.124 95.0299 138.862 94.6045 138.513 94.2336C138.164 93.8628 137.749 93.5719 137.27 93.3611C136.779 93.1376 136.264 93.0087 135.725 92.9744C135.198 92.941 134.677 93.0101 134.161 93.1817C133.646 93.3414 133.173 93.594 132.742 93.9394C132.312 94.2728 131.961 94.6834 131.69 95.1712C131.419 95.647 131.265 96.1783 131.228 96.7651L130.87 102.406ZM137.53 97.2193L137.332 100.327L133.201 100.065L133.391 97.0648C133.41 96.7654 133.517 96.4956 133.713 96.2556C133.909 96.0035 134.169 95.8035 134.491 95.6556C134.801 95.507 135.159 95.4456 135.566 95.4714C135.95 95.4958 136.292 95.5897 136.595 95.7532C136.897 95.9166 137.136 96.1242 137.313 96.3759C137.477 96.6268 137.549 96.908 137.53 97.2193Z" fill="#C0D6FB"/>
<circle cx="240" cy="570" r="80" transform="rotate(-30 240 570)" fill="#F0F3FF"/>
<path fill-rule="evenodd" clip-rule="evenodd" d="M209.215 564.68L191.895 574.68L201.895 592L184.574 602C190.097 611.566 202.329 614.844 211.895 609.321C221.461 603.798 224.738 591.566 219.215 582L209.215 564.68ZM230 552.68L212.68 562.68L222.68 580L231.34 575L241.34 592.321L258.66 582.321L248.66 565L257.321 560L247.321 542.68L230 552.68ZM268.105 530.68L250.785 540.68L260.785 558L270.785 575.321L288.105 565.321C297.671 559.798 300.949 547.566 295.426 538C289.903 528.434 277.671 525.157 268.105 530.68Z" fill="#C0D6FB"/>
<path fill-rule="evenodd" clip-rule="evenodd" d="M248.464 506.355L247.828 519.119L245.365 518.997L245.637 513.549L239.848 513.261L239.577 518.708L237.096 518.584L237.732 505.82L240.213 505.944L239.955 511.104L245.744 511.392L246.001 506.232L248.464 506.355ZM227.701 509.413L231.697 508.56L231.242 506.43L220.839 508.653L221.294 510.782L225.29 509.929L227.505 520.297L229.917 519.781L227.701 509.413ZM202.611 523.681L207.361 530.375L205.335 531.812L197.939 521.39L199.554 520.244L209.817 523.291L204.952 516.436L206.978 514.998L214.363 525.406L212.675 526.604L202.611 523.681ZM202.969 534.213L192.902 526.339L191.383 528.282L195.452 531.464L191.881 536.03L187.812 532.847L186.282 534.804L196.348 542.677L197.878 540.721L193.582 537.36L197.153 532.795L201.449 536.155L202.969 534.213ZM192.498 551.131C192.15 552 191.667 552.724 191.048 553.304C190.433 553.872 189.739 554.299 188.966 554.585C188.186 554.855 187.384 554.987 186.56 554.98C185.724 554.97 184.927 554.813 184.17 554.51C183.378 554.194 182.684 553.749 182.087 553.174C181.483 552.584 181.004 551.921 180.652 551.186C180.293 550.435 180.092 549.644 180.049 548.813C180 547.966 180.144 547.119 180.482 546.273C180.825 545.414 181.31 544.703 181.936 544.139C182.566 543.564 183.271 543.142 184.051 542.872C184.831 542.602 185.633 542.47 186.457 542.476C187.282 542.482 188.073 542.637 188.831 542.94C189.611 543.251 190.305 543.697 190.914 544.276C191.511 544.85 191.989 545.513 192.348 546.264C192.701 546.999 192.896 547.788 192.934 548.63C192.977 549.461 192.832 550.295 192.498 551.131ZM185.105 552.17C185.617 552.375 186.144 552.495 186.686 552.53C187.227 552.566 187.745 552.514 188.24 552.376C188.728 552.222 189.168 551.978 189.56 551.643C189.945 551.293 190.247 550.845 190.465 550.299C190.688 549.742 190.774 549.202 190.725 548.678C190.665 548.15 190.503 547.665 190.24 547.224C189.965 546.779 189.623 546.39 189.213 546.058C188.796 545.711 188.348 545.441 187.869 545.25C187.356 545.045 186.833 544.933 186.298 544.913C185.756 544.877 185.242 544.937 184.754 545.091C184.259 545.229 183.819 545.473 183.434 545.823C183.042 546.158 182.739 546.592 182.525 547.127C182.298 547.696 182.215 548.244 182.275 548.772C182.329 549.284 182.487 549.761 182.75 550.202C183.014 550.643 183.348 551.035 183.754 551.378C184.164 551.71 184.614 551.974 185.105 552.17ZM186.221 566.161C186.349 566.021 186.516 565.765 186.723 565.393C186.919 565.019 187.052 564.565 187.124 564.03C187.186 563.566 187.159 563.175 187.044 562.857C186.918 562.537 186.704 562.279 186.403 562.081C186.105 561.872 185.703 561.709 185.198 561.593C184.694 561.465 184.085 561.353 183.372 561.258L176.735 560.371L177.064 557.909L183.505 558.77C184.456 558.897 185.317 559.067 186.088 559.279C186.859 559.491 187.509 559.789 188.039 560.175C188.568 560.561 188.945 561.089 189.17 561.761C189.397 562.421 189.441 563.268 189.303 564.303C189.226 564.874 189.092 565.377 188.901 565.811C188.71 566.246 188.458 566.636 188.145 566.981L186.221 566.161ZM260.712 522.885L261.382 520.813L255.301 518.849L256.325 515.68L261.446 517.334L262.066 515.416L256.944 513.761L257.89 510.832L263.817 512.747L264.486 510.674L256.196 507.996L252.268 520.158L260.712 522.885ZM216.511 630.247L219.697 617.87L224.194 619.028C225.543 619.375 226.598 619.944 227.361 620.735C228.127 621.515 228.615 622.434 228.826 623.492C229.04 624.538 229 625.631 228.707 626.769C228.384 628.025 227.853 629.053 227.114 629.854C226.375 630.655 225.48 631.193 224.431 631.468C223.392 631.746 222.252 631.725 221.008 631.404L216.511 630.247ZM226.284 626.146C226.49 625.344 226.526 624.603 226.391 623.924C226.259 623.234 225.963 622.649 225.504 622.172C225.048 621.682 224.43 621.338 223.651 621.137L221.56 620.599L219.459 628.757L221.551 629.295C222.341 629.499 223.055 629.496 223.69 629.288C224.329 629.069 224.868 628.687 225.305 628.143C225.757 627.59 226.083 626.924 226.284 626.146ZM243.151 634.174L243.12 631.996L236.731 632.085L236.684 628.756L242.066 628.681L242.038 626.665L236.656 626.74L236.613 623.662L242.841 623.575L242.81 621.397L234.099 621.519L234.277 634.298L243.151 634.174ZM255.249 622.627C255.146 622.568 254.965 622.498 254.708 622.419C254.461 622.337 254.165 622.275 253.817 622.233C253.482 622.187 253.122 622.167 252.738 622.172C252.35 622.165 251.971 622.212 251.601 622.313C250.952 622.49 250.493 622.745 250.224 623.08C249.966 623.411 249.896 623.797 250.016 624.237C250.107 624.572 250.284 624.81 250.546 624.95C250.808 625.091 251.166 625.173 251.621 625.199C252.076 625.225 252.638 625.233 253.307 625.225C254.171 625.202 254.938 625.254 255.607 625.383C256.285 625.497 256.843 625.743 257.282 626.122C257.729 626.485 258.055 627.043 258.259 627.796C258.439 628.456 258.472 629.056 258.358 629.597C258.24 630.126 258.007 630.594 257.657 631C257.308 631.406 256.88 631.753 256.373 632.04C255.864 632.315 255.302 632.536 254.688 632.703C254.075 632.87 253.444 632.973 252.795 633.013C252.147 633.052 251.507 633.034 250.877 632.956C250.244 632.867 249.644 632.72 249.078 632.513L249.575 630.158C249.707 630.234 249.931 630.322 250.244 630.424C250.555 630.513 250.924 630.593 251.354 630.663C251.78 630.721 252.235 630.746 252.718 630.739C253.201 630.732 253.674 630.666 254.137 630.54C254.786 630.363 255.248 630.12 255.524 629.808C255.8 629.497 255.883 629.139 255.772 628.733C255.671 628.363 255.46 628.11 255.137 627.974C254.814 627.838 254.394 627.759 253.878 627.737C253.36 627.705 252.751 627.684 252.052 627.675C251.216 627.666 250.502 627.599 249.908 627.474C249.312 627.338 248.829 627.096 248.461 626.749C248.093 626.401 247.824 625.915 247.654 625.29C247.424 624.444 247.428 623.684 247.668 623.01C247.916 622.321 248.342 621.739 248.946 621.263C249.547 620.776 250.265 620.419 251.099 620.193C251.678 620.035 252.239 619.951 252.783 619.94C253.339 619.925 253.871 619.961 254.379 620.046C254.887 620.132 255.354 620.247 255.779 620.393L255.249 622.627ZM259.755 617.63L265.513 629.039L267.731 627.92L261.972 616.511L259.755 617.63ZM278.867 621.281C278.226 621.805 277.512 622.173 276.723 622.385C275.944 622.589 275.15 622.642 274.341 622.544C273.534 622.43 272.759 622.165 272.015 621.75C271.272 621.335 270.608 620.77 270.022 620.055C269.467 619.377 269.067 618.642 268.822 617.85C268.569 617.049 268.475 616.243 268.539 615.43C268.603 614.618 268.82 613.842 269.192 613.103C269.565 612.365 270.094 611.714 270.781 611.151C271.71 610.391 272.667 609.94 273.653 609.8C274.641 609.642 275.568 609.752 276.434 610.128L275.867 612.361C275.213 612.074 274.552 611.987 273.884 612.1C273.226 612.205 272.632 612.474 272.103 612.907C271.685 613.249 271.377 613.649 271.177 614.107C270.978 614.565 270.879 615.049 270.879 615.561C270.879 616.073 270.973 616.585 271.161 617.098C271.358 617.604 271.639 618.08 272.004 618.525C272.392 618.999 272.819 619.378 273.285 619.663C273.76 619.941 274.25 620.122 274.753 620.206C275.265 620.283 275.77 620.265 276.268 620.152C276.757 620.03 277.216 619.795 277.643 619.445C278.144 619.034 278.516 618.513 278.758 617.88C278.98 617.314 279.1 616.674 279.116 615.96L278.556 615.277L276.565 616.907L275.413 615.501L278.992 612.57L283.155 617.653L281.567 618.953L280.648 617.83C280.504 619.276 279.91 620.426 278.867 621.281ZM290.066 610.622L283.255 606.042L293.702 605.216L294.857 603.498L284.268 596.376L282.881 598.437L289.857 603.128L279.18 603.908L278.075 605.551L288.679 612.684L290.066 610.622ZM299.52 587.564L301.587 588.25L298.791 596.672L286.662 592.646L289.407 584.377L291.474 585.064L289.512 590.974L292.433 591.944L294.129 586.836L296.042 587.472L294.347 592.579L297.507 593.629L299.52 587.564ZM290.87 580.406L303.624 581.216L303.781 578.737L299.506 578.465L299.663 575.986L304.105 573.635L304.279 570.904L299.298 573.51C299.124 573.03 298.862 572.605 298.513 572.234C298.164 571.863 297.749 571.572 297.27 571.361C296.779 571.138 296.264 571.009 295.725 570.974C295.198 570.941 294.677 571.01 294.161 571.182C293.646 571.341 293.173 571.594 292.742 571.939C292.312 572.273 291.961 572.683 291.69 573.171C291.419 573.647 291.265 574.178 291.228 574.765L290.87 580.406ZM297.53 575.219L297.332 578.327L293.201 578.065L293.391 575.065C293.41 574.765 293.517 574.496 293.713 574.256C293.909 574.003 294.169 573.804 294.491 573.656C294.801 573.507 295.159 573.446 295.566 573.471C295.95 573.496 296.292 573.59 296.595 573.753C296.897 573.917 297.136 574.124 297.313 574.376C297.477 574.627 297.549 574.908 297.53 575.219Z" fill="#C0D6FB"/>
<circle cx="240" cy="-0.000195503" r="80" transform="rotate(-30 240 -0.000195503)" fill="#FFF4CB"/>
<path fill-rule="evenodd" clip-rule="evenodd" d="M209.215 -5.32031L191.895 4.67969L201.895 22.0002L184.574 32.0002C190.097 41.566 202.329 44.8436 211.895 39.3207C221.461 33.7979 224.738 21.566 219.215 12.0002L209.215 -5.32031ZM230 -17.3203L212.68 -7.32031L222.68 10.0002L231.34 5.0002L241.34 22.3207L258.66 12.3207L248.66 -4.9998L257.321 -9.9998L247.321 -27.3203L230 -17.3203ZM268.105 -39.3203L250.785 -29.3203L260.785 -11.9998L270.785 5.3207L288.105 -4.6793C297.671 -10.2021 300.949 -22.434 295.426 -31.9998C289.903 -41.5657 277.671 -44.8432 268.105 -39.3203Z" fill="#FDDF9B"/>
<path fill-rule="evenodd" clip-rule="evenodd" d="M248.464 -63.6449L247.828 -50.8808L245.365 -51.0035L245.637 -56.4507L239.848 -56.7391L239.577 -51.2919L237.096 -51.4155L237.732 -64.1797L240.213 -64.0561L239.955 -58.8965L245.744 -58.608L246.001 -63.7676L248.464 -63.6449ZM227.701 -60.5866L231.697 -61.4404L231.242 -63.5703L220.839 -61.3475L221.294 -59.2176L225.29 -60.0713L227.505 -49.7034L229.917 -50.2186L227.701 -60.5866ZM202.611 -46.319L207.361 -39.6252L205.335 -38.1876L197.939 -48.61L199.554 -49.7559L209.817 -46.709L204.952 -53.5643L206.978 -55.0018L214.363 -44.5942L212.675 -43.3962L202.611 -46.319ZM202.969 -35.7871L192.902 -43.6608L191.383 -41.7184L195.452 -38.5356L191.881 -33.9703L187.812 -37.153L186.282 -35.1964L196.348 -27.3228L197.878 -29.2794L193.582 -32.6395L197.153 -37.2049L201.449 -33.8447L202.969 -35.7871ZM192.498 -18.8695C192.15 -18.0003 191.667 -17.2759 191.048 -16.6962C190.433 -16.1277 189.739 -15.7007 188.966 -15.4151C188.186 -15.1451 187.384 -15.0133 186.56 -15.0196C185.724 -15.0304 184.927 -15.1871 184.17 -15.4898C183.378 -15.8059 182.684 -16.2512 182.087 -16.8259C181.483 -17.4161 181.004 -18.0788 180.652 -18.814C180.293 -19.5648 180.092 -20.3558 180.049 -21.1869C180 -22.0337 180.144 -22.8805 180.482 -23.7274C180.825 -24.5855 181.31 -25.2966 181.936 -25.8606C182.566 -26.4358 183.271 -26.8584 184.051 -27.1284C184.831 -27.3984 185.633 -27.5302 186.457 -27.5239C187.282 -27.5176 188.073 -27.3631 188.831 -27.0604C189.611 -26.7487 190.305 -26.3034 190.914 -25.7243C191.511 -25.1496 191.989 -24.4869 192.348 -23.7361C192.701 -23.0009 192.896 -22.2122 192.934 -21.3699C192.977 -20.5387 192.832 -19.7053 192.498 -18.8695ZM185.105 -17.83C185.617 -17.6252 186.144 -17.5051 186.686 -17.4697C187.227 -17.4343 187.745 -17.4858 188.24 -17.6242C188.728 -17.7781 189.168 -18.0223 189.56 -18.3568C189.945 -18.7068 190.247 -19.1548 190.465 -19.7009C190.688 -20.2581 190.774 -20.7985 190.725 -21.3221C190.665 -21.8502 190.503 -22.3348 190.24 -22.7759C189.965 -23.2214 189.623 -23.6101 189.213 -23.942C188.796 -24.2894 188.348 -24.5588 187.869 -24.7502C187.356 -24.955 186.833 -25.0673 186.298 -25.0871C185.756 -25.1225 185.242 -25.0633 184.754 -24.9093C184.259 -24.7709 183.819 -24.5267 183.434 -24.1767C183.042 -23.8422 182.739 -23.4076 182.525 -22.8727C182.298 -22.3044 182.215 -21.7561 182.275 -21.2281C182.329 -20.7156 182.487 -20.2388 182.75 -19.7977C183.014 -19.3566 183.348 -18.9645 183.754 -18.6216C184.164 -18.2897 184.614 -18.0259 185.105 -17.83ZM186.221 -3.83904C186.349 -3.97935 186.516 -4.23542 186.723 -4.60725C186.919 -4.98067 187.052 -5.435 187.124 -5.97024C187.186 -6.43411 187.159 -6.82506 187.044 -7.14309C186.918 -7.46271 186.704 -7.7213 186.403 -7.91887C186.105 -8.12833 185.703 -8.29104 185.198 -8.407C184.694 -8.53486 184.085 -8.6465 183.372 -8.74193L176.735 -9.62939L177.064 -12.0915L183.505 -11.2303C184.456 -11.103 185.317 -10.9334 186.088 -10.7214C186.859 -10.5094 187.509 -10.2106 188.039 -9.82498C188.568 -9.43939 188.945 -8.91073 189.17 -8.23899C189.397 -7.57914 189.441 -6.73182 189.303 -5.69703C189.226 -5.12611 189.092 -4.62341 188.901 -4.18893C188.71 -3.75445 188.458 -3.3644 188.145 -3.01877L186.221 -3.83904ZM260.712 -47.1146L261.382 -49.1872L255.301 -51.1513L256.325 -54.3201L261.446 -52.6658L262.066 -54.5842L256.944 -56.2385L257.89 -59.1675L263.817 -57.2531L264.486 -59.3257L256.196 -62.0036L252.268 -49.8423L260.712 -47.1146ZM216.511 60.2466L219.697 47.8701L224.194 49.028C225.543 49.375 226.598 49.9441 227.361 50.7353C228.127 51.5149 228.615 52.4336 228.826 53.4916C229.04 54.538 229 55.6306 228.707 56.7694C228.384 58.0245 227.853 59.0526 227.114 59.8536C226.375 60.6546 225.48 61.1927 224.431 61.4676C223.392 61.7456 222.252 61.7245 221.008 61.4044L216.511 60.2466ZM226.284 56.1457C226.49 55.3438 226.526 54.6033 226.391 53.9242C226.259 53.2335 225.963 52.6494 225.504 52.1717C225.048 51.6825 224.43 51.3376 223.651 51.1372L221.56 50.5987L219.459 58.7566L221.551 59.2952C222.341 59.4986 223.055 59.4963 223.69 59.2883C224.329 59.0687 224.868 58.6868 225.305 58.1427C225.757 57.5899 226.083 56.9243 226.284 56.1457ZM243.151 64.174L243.12 61.9962L236.731 62.0854L236.684 58.7558L242.066 58.6806L242.038 56.6648L236.656 56.74L236.613 53.6623L242.841 53.5753L242.81 51.3975L234.099 51.5192L234.277 64.2979L243.151 64.174ZM255.249 52.6265C255.146 52.5675 254.965 52.4985 254.708 52.4194C254.461 52.3371 254.165 52.2748 253.817 52.2325C253.482 52.187 253.122 52.1668 252.738 52.1718C252.35 52.1652 251.971 52.2124 251.601 52.3132C250.952 52.4895 250.493 52.745 250.224 53.0795C249.966 53.4109 249.896 53.7966 250.016 54.2366C250.107 54.5724 250.284 54.8103 250.546 54.9505C250.808 55.0906 251.166 55.1735 251.621 55.199C252.076 55.2246 252.638 55.2334 253.307 55.2254C254.171 55.2018 254.938 55.2543 255.607 55.3832C256.285 55.4973 256.843 55.7434 257.282 56.1215C257.729 56.4849 258.055 57.0429 258.259 57.7956C258.439 58.4556 258.472 59.0561 258.358 59.597C258.24 60.1263 258.007 60.5939 257.657 61C257.308 61.406 256.88 61.7525 256.373 62.0395C255.864 62.3149 255.302 62.5361 254.688 62.703C254.075 62.87 253.444 62.9732 252.795 63.0128C252.147 63.0524 251.507 63.0336 250.877 62.9563C250.244 62.8675 249.644 62.7198 249.078 62.5131L249.575 60.158C249.707 60.2339 249.931 60.3224 250.244 60.4237C250.555 60.5133 250.924 60.593 251.354 60.6628C251.78 60.7209 252.235 60.7465 252.718 60.7394C253.201 60.7324 253.674 60.6659 254.137 60.5399C254.786 60.3635 255.248 60.1196 255.524 59.8082C255.8 59.4969 255.883 59.1386 255.772 58.7333C255.671 58.3628 255.46 58.1095 255.137 57.9735C254.814 57.8376 254.394 57.7589 253.878 57.7375C253.36 57.7045 252.751 57.6836 252.052 57.6747C251.216 57.6658 250.502 57.599 249.908 57.4744C249.312 57.3383 248.829 57.0964 248.461 56.7489C248.093 56.4013 247.824 55.9149 247.654 55.2896C247.424 54.4443 247.428 53.6844 247.668 53.01C247.916 52.3208 248.342 51.7385 248.946 51.2632C249.547 50.7763 250.265 50.4194 251.099 50.1926C251.678 50.0351 252.239 49.9508 252.783 49.9396C253.339 49.9252 253.871 49.9608 254.379 50.0464C254.887 50.132 255.354 50.2475 255.779 50.393L255.249 52.6265ZM259.755 47.63L265.513 59.0392L267.731 57.9199L261.972 46.5108L259.755 47.63ZM278.867 51.2807C278.226 51.8053 277.512 52.1734 276.723 52.3848C275.944 52.5886 275.15 52.6417 274.341 52.5441C273.534 52.4296 272.759 52.1648 272.015 51.7498C271.272 51.3347 270.608 50.7697 270.022 50.0548C269.467 49.3771 269.067 48.6423 268.822 47.8504C268.569 47.0492 268.475 46.2425 268.539 45.4303C268.603 44.618 268.82 43.8424 269.192 43.1035C269.565 42.3645 270.094 41.7138 270.781 41.1512C271.71 40.3909 272.667 39.9404 273.653 39.7999C274.641 39.6424 275.568 39.7518 276.434 40.1279L275.867 42.361C275.213 42.0742 274.552 41.9871 273.884 42.0997C273.226 42.2047 272.632 42.4738 272.103 42.9072C271.685 43.2493 271.377 43.6492 271.177 44.1069C270.978 44.5646 270.879 45.0493 270.879 45.561C270.879 46.0726 270.973 46.5851 271.161 47.0984C271.358 47.604 271.639 48.0797 272.004 48.5253C272.392 48.9988 272.819 49.3782 273.285 49.6633C273.76 49.9409 274.25 50.1218 274.753 50.206C275.265 50.2826 275.77 50.2647 276.268 50.1522C276.757 50.0304 277.216 49.7946 277.643 49.4449C278.144 49.0343 278.516 48.5128 278.758 47.8803C278.98 47.3139 279.1 46.6739 279.116 45.9603L278.556 45.2765L276.565 46.9073L275.413 45.5008L278.992 42.5699L283.155 47.653L281.567 48.9531L280.648 47.8304C280.504 49.2763 279.91 50.4264 278.867 51.2807ZM290.066 40.6224L283.255 36.0416L293.702 35.2156L294.857 33.498L284.268 26.3755L282.881 28.4367L289.857 33.1281L279.18 33.9081L278.075 35.5511L288.679 42.6836L290.066 40.6224ZM299.52 17.5641L301.587 18.2504L298.791 26.6724L286.662 22.6457L289.407 14.3775L291.474 15.0637L289.512 20.9745L292.433 21.9443L294.129 16.8364L296.042 17.4716L294.347 22.5795L297.507 23.6287L299.52 17.5641ZM290.87 10.4057L303.624 11.2156L303.781 8.73657L299.506 8.4651L299.663 5.98609L304.105 3.63485L304.279 0.90435L299.298 3.50993C299.124 3.02995 298.862 2.60452 298.513 2.23364C298.164 1.86277 297.749 1.57192 297.27 1.36111C296.779 1.13756 296.264 1.00867 295.725 0.974449C295.198 0.940987 294.677 1.01009 294.161 1.18174C293.646 1.34142 293.173 1.59396 292.742 1.93935C292.312 2.27277 291.961 2.68338 291.69 3.17116C291.419 3.64696 291.265 4.17827 291.228 4.76508L290.87 10.4057ZM297.53 5.21935L297.332 8.32709L293.201 8.06474L293.391 5.06478C293.41 4.76538 293.517 4.49564 293.713 4.25555C293.909 4.00349 294.169 3.8035 294.491 3.65562C294.801 3.50697 295.159 3.44557 295.566 3.47143C295.95 3.49576 296.292 3.58967 296.595 3.75315C296.897 3.91663 297.136 4.12421 297.313 4.3759C297.477 4.62682 297.549 4.90797 297.53 5.21935Z" fill="#FDDF9B"/>
<circle cx="240" cy="760" r="80" transform="rotate(-30 240 760)" fill="#FFF4CB"/>
<path fill-rule="evenodd" clip-rule="evenodd" d="M209.215 754.68L191.895 764.68L201.895 782L184.574 792C190.097 801.566 202.329 804.844 211.895 799.321C221.461 793.798 224.738 781.566 219.215 772L209.215 754.68ZM230 742.68L212.68 752.68L222.68 770L231.34 765L241.34 782.321L258.66 772.321L248.66 755L257.321 750L247.321 732.68L230 742.68ZM268.105 720.68L250.785 730.68L260.785 748L270.785 765.321L288.105 755.321C297.671 749.798 300.949 737.566 295.426 728C289.903 718.434 277.671 715.157 268.105 720.68Z" fill="#FDDF9B"/>
<path fill-rule="evenodd" clip-rule="evenodd" d="M248.464 696.355L247.828 709.119L245.365 708.997L245.637 703.549L239.848 703.261L239.577 708.708L237.096 708.584L237.732 695.82L240.213 695.944L239.955 701.104L245.744 701.392L246.001 696.232L248.464 696.355ZM227.701 699.413L231.697 698.56L231.242 696.43L220.839 698.653L221.294 700.782L225.29 699.929L227.505 710.297L229.917 709.781L227.701 699.413ZM202.611 713.681L207.361 720.375L205.335 721.812L197.939 711.39L199.554 710.244L209.817 713.291L204.952 706.436L206.978 704.998L214.363 715.406L212.675 716.604L202.611 713.681ZM202.969 724.213L192.902 716.339L191.383 718.282L195.452 721.464L191.881 726.03L187.812 722.847L186.282 724.804L196.348 732.677L197.878 730.721L193.582 727.36L197.153 722.795L201.449 726.155L202.969 724.213ZM192.498 741.131C192.15 742 191.667 742.724 191.048 743.304C190.433 743.872 189.739 744.299 188.966 744.585C188.186 744.855 187.384 744.987 186.56 744.98C185.724 744.97 184.927 744.813 184.17 744.51C183.378 744.194 182.684 743.749 182.087 743.174C181.483 742.584 181.004 741.921 180.652 741.186C180.293 740.435 180.092 739.644 180.049 738.813C180 737.966 180.144 737.119 180.482 736.273C180.825 735.414 181.31 734.703 181.936 734.139C182.566 733.564 183.271 733.142 184.051 732.872C184.831 732.602 185.633 732.47 186.457 732.476C187.282 732.482 188.073 732.637 188.831 732.94C189.611 733.251 190.305 733.697 190.914 734.276C191.511 734.85 191.989 735.513 192.348 736.264C192.701 736.999 192.896 737.788 192.934 738.63C192.977 739.461 192.832 740.295 192.498 741.131ZM185.105 742.17C185.617 742.375 186.144 742.495 186.686 742.53C187.227 742.566 187.745 742.514 188.24 742.376C188.728 742.222 189.168 741.978 189.56 741.643C189.945 741.293 190.247 740.845 190.465 740.299C190.688 739.742 190.774 739.202 190.725 738.678C190.665 738.15 190.503 737.665 190.24 737.224C189.965 736.779 189.623 736.39 189.213 736.058C188.796 735.711 188.348 735.441 187.869 735.25C187.356 735.045 186.833 734.933 186.298 734.913C185.756 734.877 185.242 734.937 184.754 735.091C184.259 735.229 183.819 735.473 183.434 735.823C183.042 736.158 182.739 736.592 182.525 737.127C182.298 737.696 182.215 738.244 182.275 738.772C182.329 739.284 182.487 739.761 182.75 740.202C183.014 740.643 183.348 741.035 183.754 741.378C184.164 741.71 184.614 741.974 185.105 742.17ZM186.221 756.161C186.349 756.021 186.516 755.765 186.723 755.393C186.919 755.019 187.052 754.565 187.124 754.03C187.186 753.566 187.159 753.175 187.044 752.857C186.918 752.537 186.704 752.279 186.403 752.081C186.105 751.872 185.703 751.709 185.198 751.593C184.694 751.465 184.085 751.353 183.372 751.258L176.735 750.371L177.064 747.909L183.505 748.77C184.456 748.897 185.317 749.067 186.088 749.279C186.859 749.491 187.509 749.789 188.039 750.175C188.568 750.561 188.945 751.089 189.17 751.761C189.397 752.421 189.441 753.268 189.303 754.303C189.226 754.874 189.092 755.377 188.901 755.811C188.71 756.246 188.458 756.636 188.145 756.981L186.221 756.161ZM260.712 712.885L261.382 710.813L255.301 708.849L256.325 705.68L261.446 707.334L262.066 705.416L256.944 703.761L257.89 700.832L263.817 702.747L264.486 700.674L256.196 697.996L252.268 710.158L260.712 712.885ZM216.511 820.247L219.697 807.87L224.194 809.028C225.543 809.375 226.598 809.944 227.361 810.735C228.127 811.515 228.615 812.434 228.826 813.492C229.04 814.538 229 815.631 228.707 816.769C228.384 818.025 227.853 819.053 227.114 819.854C226.375 820.655 225.48 821.193 224.431 821.468C223.392 821.746 222.252 821.725 221.008 821.404L216.511 820.247ZM226.284 816.146C226.49 815.344 226.526 814.603 226.391 813.924C226.259 813.234 225.963 812.649 225.504 812.172C225.048 811.682 224.43 811.338 223.651 811.137L221.56 810.599L219.459 818.757L221.551 819.295C222.341 819.499 223.055 819.496 223.69 819.288C224.329 819.069 224.868 818.687 225.305 818.143C225.757 817.59 226.083 816.924 226.284 816.146ZM243.151 824.174L243.12 821.996L236.731 822.085L236.684 818.756L242.066 818.681L242.038 816.665L236.656 816.74L236.613 813.662L242.841 813.575L242.81 811.397L234.099 811.519L234.277 824.298L243.151 824.174ZM255.249 812.627C255.146 812.568 254.965 812.498 254.708 812.419C254.461 812.337 254.165 812.275 253.817 812.233C253.482 812.187 253.122 812.167 252.738 812.172C252.35 812.165 251.971 812.212 251.601 812.313C250.952 812.49 250.493 812.745 250.224 813.08C249.966 813.411 249.896 813.797 250.016 814.237C250.107 814.572 250.284 814.81 250.546 814.95C250.808 815.091 251.166 815.173 251.621 815.199C252.076 815.225 252.638 815.233 253.307 815.225C254.171 815.202 254.938 815.254 255.607 815.383C256.285 815.497 256.843 815.743 257.282 816.122C257.729 816.485 258.055 817.043 258.259 817.796C258.439 818.456 258.472 819.056 258.358 819.597C258.24 820.126 258.007 820.594 257.657 821C257.308 821.406 256.88 821.753 256.373 822.04C255.864 822.315 255.302 822.536 254.688 822.703C254.075 822.87 253.444 822.973 252.795 823.013C252.147 823.052 251.507 823.034 250.877 822.956C250.244 822.867 249.644 822.72 249.078 822.513L249.575 820.158C249.707 820.234 249.931 820.322 250.244 820.424C250.555 820.513 250.924 820.593 251.354 820.663C251.78 820.721 252.235 820.746 252.718 820.739C253.201 820.732 253.674 820.666 254.137 820.54C254.786 820.363 255.248 820.12 255.524 819.808C255.8 819.497 255.883 819.139 255.772 818.733C255.671 818.363 255.46 818.11 255.137 817.974C254.814 817.838 254.394 817.759 253.878 817.737C253.36 817.705 252.751 817.684 252.052 817.675C251.216 817.666 250.502 817.599 249.908 817.474C249.312 817.338 248.829 817.096 248.461 816.749C248.093 816.401 247.824 815.915 247.654 815.29C247.424 814.444 247.428 813.684 247.668 813.01C247.916 812.321 248.342 811.739 248.946 811.263C249.547 810.776 250.265 810.419 251.099 810.193C251.678 810.035 252.239 809.951 252.783 809.94C253.339 809.925 253.871 809.961 254.379 810.046C254.887 810.132 255.354 810.247 255.779 810.393L255.249 812.627ZM259.755 807.63L265.513 819.039L267.731 817.92L261.972 806.511L259.755 807.63ZM278.867 811.281C278.226 811.805 277.512 812.173 276.723 812.385C275.944 812.589 275.15 812.642 274.341 812.544C273.534 812.43 272.759 812.165 272.015 811.75C271.272 811.335 270.608 810.77 270.022 810.055C269.467 809.377 269.067 808.642 268.822 807.85C268.569 807.049 268.475 806.243 268.539 805.43C268.603 804.618 268.82 803.842 269.192 803.103C269.565 802.365 270.094 801.714 270.781 801.151C271.71 800.391 272.667 799.94 273.653 799.8C274.641 799.642 275.568 799.752 276.434 800.128L275.867 802.361C275.213 802.074 274.552 801.987 273.884 802.1C273.226 802.205 272.632 802.474 272.103 802.907C271.685 803.249 271.377 803.649 271.177 804.107C270.978 804.565 270.879 805.049 270.879 805.561C270.879 806.073 270.973 806.585 271.161 807.098C271.358 807.604 271.639 808.08 272.004 808.525C272.392 808.999 272.819 809.378 273.285 809.663C273.76 809.941 274.25 810.122 274.753 810.206C275.265 810.283 275.77 810.265 276.268 810.152C276.757 810.03 277.216 809.795 277.643 809.445C278.144 809.034 278.516 808.513 278.758 807.88C278.98 807.314 279.1 806.674 279.116 805.96L278.556 805.277L276.565 806.907L275.413 805.501L278.992 802.57L283.155 807.653L281.567 808.953L280.648 807.83C280.504 809.276 279.91 810.426 278.867 811.281ZM290.066 800.622L283.255 796.042L293.702 795.216L294.857 793.498L284.268 786.376L282.881 788.437L289.857 793.128L279.18 793.908L278.075 795.551L288.679 802.684L290.066 800.622ZM299.52 777.564L301.587 778.25L298.791 786.672L286.662 782.646L289.407 774.377L291.474 775.064L289.512 780.974L292.433 781.944L294.129 776.836L296.042 777.472L294.347 782.579L297.507 783.629L299.52 777.564ZM290.87 770.406L303.624 771.216L303.781 768.737L299.506 768.465L299.663 765.986L304.105 763.635L304.279 760.904L299.298 763.51C299.124 763.03 298.862 762.605 298.513 762.234C298.164 761.863 297.749 761.572 297.27 761.361C296.779 761.138 296.264 761.009 295.725 760.974C295.198 760.941 294.677 761.01 294.161 761.182C293.646 761.341 293.173 761.594 292.742 761.939C292.312 762.273 291.961 762.683 291.69 763.171C291.419 763.647 291.265 764.178 291.228 764.765L290.87 770.406ZM297.53 765.219L297.332 768.327L293.201 768.065L293.391 765.065C293.41 764.765 293.517 764.496 293.713 764.256C293.909 764.003 294.169 763.804 294.491 763.656C294.801 763.507 295.159 763.446 295.566 763.471C295.95 763.496 296.292 763.59 296.595 763.753C296.897 763.917 297.136 764.124 297.313 764.376C297.477 764.627 297.549 764.908 297.53 765.219Z" fill="#FDDF9B"/>
<circle cx="80" cy="282" r="80" transform="rotate(-30 80 282)" fill="#FFF4CB"/>
<path fill-rule="evenodd" clip-rule="evenodd" d="M49.2155 276.68L31.895 286.68L41.895 304L24.5745 314C30.0973 323.566 42.3291 326.844 51.895 321.321C61.4608 315.798 64.7383 303.566 59.2155 294L49.2155 276.68ZM70.0001 264.68L52.6796 274.68L62.6796 292L71.3398 287L81.3398 304.321L98.6603 294.321L88.6603 277L97.3206 272L87.3206 254.68L70.0001 264.68ZM108.105 242.68L90.7847 252.68L100.785 270L110.785 287.321L128.105 277.321C137.671 271.798 140.949 259.566 135.426 250C129.903 240.434 117.671 237.157 108.105 242.68Z" fill="#FDDF9B"/>
<path fill-rule="evenodd" clip-rule="evenodd" d="M88.4643 218.355L87.8283 231.119L85.3654 230.997L85.6368 225.549L79.848 225.261L79.5766 230.708L77.0957 230.584L77.7317 217.82L80.2126 217.944L79.9555 223.104L85.7443 223.392L86.0014 218.232L88.4643 218.355ZM67.7014 221.413L71.6972 220.56L71.2421 218.43L60.8389 220.653L61.294 222.782L65.2898 221.929L67.5051 232.297L69.9167 231.781L67.7014 221.413ZM42.611 235.681L47.3612 242.375L45.3355 243.812L37.9393 233.39L39.554 232.244L49.8166 235.291L44.9518 228.436L46.9775 226.998L54.3633 237.406L52.6752 238.604L42.611 235.681ZM42.9686 246.213L32.9021 238.339L31.3828 240.282L35.452 243.464L31.8811 248.03L27.812 244.847L26.2816 246.804L36.3481 254.677L37.8785 252.721L33.5825 249.36L37.1533 244.795L41.4493 248.155L42.9686 246.213ZM32.4977 263.131C32.1505 264 31.6672 264.724 31.048 265.304C30.4333 265.872 29.7393 266.299 28.9662 266.585C28.1864 266.855 27.3843 266.987 26.5598 266.98C25.7241 266.97 24.9274 266.813 24.1697 266.51C23.3785 266.194 22.6841 265.749 22.0867 265.174C21.4825 264.584 21.0042 263.921 20.6518 263.186C20.2927 262.435 20.0918 261.644 20.0491 260.813C19.9997 259.966 20.1442 259.119 20.4825 258.273C20.8253 257.414 21.3096 256.703 21.9355 256.139C22.5659 255.564 23.271 255.142 24.0508 254.872C24.8306 254.602 25.6327 254.47 26.4572 254.476C27.2817 254.482 28.0728 254.637 28.8306 254.94C29.6107 255.251 30.305 255.697 30.9136 256.276C31.511 256.85 31.9893 257.513 32.3484 258.264C32.7008 258.999 32.8962 259.788 32.9344 260.63C32.9771 261.461 32.8316 262.295 32.4977 263.131ZM25.1045 264.17C25.6171 264.375 26.1442 264.495 26.6857 264.53C27.2272 264.566 27.7453 264.514 28.2399 264.376C28.7278 264.222 29.1678 263.978 29.5598 263.643C29.9452 263.293 30.2469 262.845 30.4651 262.299C30.6876 261.742 30.7743 261.202 30.7251 260.678C30.6646 260.15 30.5029 259.665 30.2397 259.224C29.9654 258.779 29.6232 258.39 29.2131 258.058C28.7962 257.711 28.3482 257.441 27.869 257.25C27.3564 257.045 26.8327 256.933 26.2979 256.913C25.7564 256.877 25.2416 256.937 24.7537 257.091C24.2591 257.229 23.8191 257.473 23.4337 257.823C23.0417 258.158 22.7388 258.592 22.5252 259.127C22.2981 259.696 22.2148 260.244 22.2752 260.772C22.3289 261.284 22.4874 261.761 22.7505 262.202C23.0136 262.643 23.3481 263.035 23.7538 263.378C24.1639 263.71 24.6142 263.974 25.1045 264.17ZM26.2211 278.161C26.3488 278.021 26.5163 277.765 26.7234 277.393C26.9186 277.019 27.052 276.565 27.1235 276.03C27.1856 275.566 27.1592 275.175 27.0443 274.857C26.9175 274.537 26.7039 274.279 26.4035 274.081C26.1046 273.872 25.7026 273.709 25.1975 273.593C24.694 273.465 24.0854 273.353 23.3718 273.258L16.7349 272.371L17.0641 269.909L23.5048 270.77C24.4563 270.897 25.3174 271.067 26.0881 271.279C26.8588 271.491 27.5089 271.789 28.0385 272.175C28.5681 272.561 28.9453 273.089 29.1703 273.761C29.3968 274.421 29.4409 275.268 29.3026 276.303C29.2262 276.874 29.0924 277.377 28.9011 277.811C28.7099 278.246 28.4579 278.636 28.1454 278.981L26.2211 278.161ZM100.712 234.885L101.382 232.813L95.3011 230.849L96.3247 227.68L101.446 229.334L102.066 227.416L96.9444 225.761L97.8905 222.832L103.817 224.747L104.486 222.674L96.1962 219.996L92.2679 232.158L100.712 234.885ZM56.5109 342.247L59.6972 329.87L64.1945 331.028C65.5425 331.375 66.598 331.944 67.3608 332.735C68.1266 333.515 68.615 334.434 68.8259 335.492C69.0398 336.538 69.0001 337.631 68.7069 338.769C68.3838 340.025 67.8527 341.053 67.1136 341.854C66.3746 342.655 65.4802 343.193 64.4305 343.468C63.3924 343.746 62.2517 343.725 61.0082 343.404L56.5109 342.247ZM66.2839 338.146C66.4903 337.344 66.5261 336.603 66.3911 335.924C66.2592 335.234 65.9635 334.649 65.5041 334.172C65.0476 333.682 64.4301 333.338 63.6515 333.137L61.5597 332.599L59.4594 340.757L61.5512 341.295C62.3415 341.499 63.0545 341.496 63.6905 341.288C64.3294 341.069 64.8676 340.687 65.3051 340.143C65.7572 339.59 66.0835 338.924 66.2839 338.146ZM83.1506 346.174L83.1202 343.996L76.7308 344.085L76.6843 340.756L82.0658 340.681L82.0376 338.665L76.6562 338.74L76.6132 335.662L82.8406 335.575L82.8101 333.397L74.099 333.519L74.2775 346.298L83.1506 346.174ZM95.249 334.627C95.1459 334.568 94.9654 334.498 94.7076 334.419C94.4614 334.337 94.1646 334.275 93.8173 334.233C93.4816 334.187 93.1217 334.167 92.7375 334.172C92.3502 334.165 91.9713 334.212 91.6008 334.313C90.9523 334.49 90.4933 334.745 90.2236 335.08C89.9656 335.411 89.8964 335.797 90.0161 336.237C90.1074 336.572 90.2841 336.81 90.5461 336.95C90.808 337.091 91.1663 337.173 91.621 337.199C92.0756 337.225 92.6377 337.233 93.307 337.225C94.1711 337.202 94.9378 337.254 95.6071 337.383C96.2848 337.497 96.843 337.743 97.2816 338.122C97.7287 338.485 98.0546 339.043 98.2593 339.796C98.4389 340.456 98.4716 341.056 98.3576 341.597C98.2405 342.126 98.007 342.594 97.6573 343C97.3077 343.406 96.8796 343.753 96.3732 344.04C95.8636 344.315 95.302 344.536 94.6883 344.703C94.0746 344.87 93.4436 344.973 92.7952 345.013C92.1469 345.052 91.5075 345.034 90.8771 344.956C90.2436 344.867 89.6438 344.72 89.0777 344.513L89.5749 342.158C89.7075 342.234 89.9306 342.322 90.2441 342.424C90.5545 342.513 90.9244 342.593 91.3538 342.663C91.78 342.721 92.2347 342.746 92.7178 342.739C93.2008 342.732 93.674 342.666 94.1371 342.54C94.7856 342.363 95.2478 342.12 95.5237 341.808C95.7997 341.497 95.8825 341.139 95.7723 340.733C95.6715 340.363 95.4596 340.11 95.1365 339.974C94.8135 339.838 94.3942 339.759 93.8785 339.737C93.3596 339.705 92.7508 339.684 92.0519 339.675C91.2163 339.666 90.5017 339.599 89.9082 339.474C89.3115 339.338 88.8291 339.096 88.461 338.749C88.0929 338.401 87.8237 337.915 87.6537 337.29C87.4237 336.444 87.4284 335.684 87.6678 335.01C87.9155 334.321 88.3417 333.739 88.9461 333.263C89.5474 332.776 90.2648 332.419 91.0985 332.193C91.6775 332.035 92.2391 331.951 92.7832 331.94C93.3389 331.925 93.8709 331.961 94.3792 332.046C94.8875 332.132 95.3542 332.247 95.7793 332.393L95.249 334.627ZM99.7545 329.63L105.513 341.039L107.731 339.92L101.972 328.511L99.7545 329.63ZM118.867 333.281C118.226 333.805 117.512 334.173 116.723 334.385C115.944 334.589 115.15 334.642 114.341 334.544C113.534 334.43 112.759 334.165 112.015 333.75C111.272 333.335 110.608 332.77 110.022 332.055C109.467 331.377 109.067 330.642 108.822 329.85C108.569 329.049 108.475 328.243 108.539 327.43C108.603 326.618 108.82 325.842 109.192 325.103C109.565 324.365 110.094 323.714 110.781 323.151C111.71 322.391 112.667 321.94 113.653 321.8C114.641 321.642 115.568 321.752 116.434 322.128L115.867 324.361C115.213 324.074 114.552 323.987 113.884 324.1C113.226 324.205 112.632 324.474 112.103 324.907C111.685 325.249 111.377 325.649 111.177 326.107C110.978 326.565 110.879 327.049 110.879 327.561C110.879 328.073 110.973 328.585 111.161 329.098C111.358 329.604 111.639 330.08 112.004 330.525C112.392 330.999 112.819 331.378 113.285 331.663C113.76 331.941 114.25 332.122 114.753 332.206C115.265 332.283 115.77 332.265 116.268 332.152C116.757 332.03 117.216 331.795 117.643 331.445C118.144 331.034 118.516 330.513 118.758 329.88C118.98 329.314 119.1 328.674 119.116 327.96L118.556 327.277L116.565 328.907L115.413 327.501L118.992 324.57L123.155 329.653L121.567 330.953L120.648 329.83C120.504 331.276 119.91 332.426 118.867 333.281ZM130.066 322.622L123.255 318.042L133.702 317.216L134.857 315.498L124.268 308.376L122.881 310.437L129.857 315.128L119.18 315.908L118.075 317.551L128.679 324.684L130.066 322.622ZM139.52 299.564L141.587 300.25L138.791 308.672L126.662 304.646L129.407 296.377L131.474 297.064L129.512 302.974L132.433 303.944L134.129 298.836L136.042 299.472L134.347 304.579L137.507 305.629L139.52 299.564ZM130.87 292.406L143.624 293.216L143.781 290.737L139.506 290.465L139.663 287.986L144.105 285.635L144.279 282.904L139.298 285.51C139.124 285.03 138.862 284.605 138.513 284.234C138.164 283.863 137.749 283.572 137.27 283.361C136.779 283.138 136.264 283.009 135.725 282.974C135.198 282.941 134.677 283.01 134.161 283.182C133.646 283.341 133.173 283.594 132.742 283.939C132.312 284.273 131.961 284.683 131.69 285.171C131.419 285.647 131.265 286.178 131.228 286.765L130.87 292.406ZM137.53 287.219L137.332 290.327L133.201 290.065L133.391 287.065C133.41 286.765 133.517 286.496 133.713 286.256C133.909 286.003 134.169 285.804 134.491 285.656C134.801 285.507 135.159 285.446 135.566 285.471C135.95 285.496 136.292 285.59 136.595 285.753C136.897 285.917 137.136 286.124 137.313 286.376C137.477 286.627 137.549 286.908 137.53 287.219Z" fill="#FDDF9B"/>
<circle cx="240" cy="190" r="80" transform="rotate(-30 240 190)" fill="#E8E8E8"/>
<path fill-rule="evenodd" clip-rule="evenodd" d="M209.215 184.68L191.895 194.68L201.895 212L184.574 222C190.097 231.566 202.329 234.844 211.895 229.321C221.461 223.798 224.738 211.566 219.215 202L209.215 184.68ZM230 172.68L212.68 182.68L222.68 200L231.34 195L241.34 212.321L258.66 202.321L248.66 185L257.321 180L247.321 162.68L230 172.68ZM268.105 150.68L250.785 160.68L260.785 178L270.785 195.321L288.105 185.321C297.671 179.798 300.949 167.566 295.426 158C289.903 148.434 277.671 145.157 268.105 150.68Z" fill="#D1D1D1"/>
<path fill-rule="evenodd" clip-rule="evenodd" d="M248.464 126.355L247.828 139.119L245.365 138.997L245.637 133.549L239.848 133.261L239.577 138.708L237.096 138.584L237.732 125.82L240.213 125.944L239.955 131.104L245.744 131.392L246.001 126.232L248.464 126.355ZM227.701 129.413L231.697 128.56L231.242 126.43L220.839 128.653L221.294 130.782L225.29 129.929L227.505 140.297L229.917 139.781L227.701 129.413ZM202.611 143.681L207.361 150.375L205.335 151.812L197.939 141.39L199.554 140.244L209.817 143.291L204.952 136.436L206.978 134.998L214.363 145.406L212.675 146.604L202.611 143.681ZM202.969 154.213L192.902 146.339L191.383 148.282L195.452 151.464L191.881 156.03L187.812 152.847L186.282 154.804L196.348 162.677L197.878 160.721L193.582 157.36L197.153 152.795L201.449 156.155L202.969 154.213ZM192.498 171.131C192.15 172 191.667 172.724 191.048 173.304C190.433 173.872 189.739 174.299 188.966 174.585C188.186 174.855 187.384 174.987 186.56 174.98C185.724 174.97 184.927 174.813 184.17 174.51C183.378 174.194 182.684 173.749 182.087 173.174C181.483 172.584 181.004 171.921 180.652 171.186C180.293 170.435 180.092 169.644 180.049 168.813C180 167.966 180.144 167.119 180.482 166.273C180.825 165.414 181.31 164.703 181.936 164.139C182.566 163.564 183.271 163.142 184.051 162.872C184.831 162.602 185.633 162.47 186.457 162.476C187.282 162.482 188.073 162.637 188.831 162.94C189.611 163.251 190.305 163.697 190.914 164.276C191.511 164.85 191.989 165.513 192.348 166.264C192.701 166.999 192.896 167.788 192.934 168.63C192.977 169.461 192.832 170.295 192.498 171.131ZM185.105 172.17C185.617 172.375 186.144 172.495 186.686 172.53C187.227 172.566 187.745 172.514 188.24 172.376C188.728 172.222 189.168 171.978 189.56 171.643C189.945 171.293 190.247 170.845 190.465 170.299C190.688 169.742 190.774 169.202 190.725 168.678C190.665 168.15 190.503 167.665 190.24 167.224C189.965 166.779 189.623 166.39 189.213 166.058C188.796 165.711 188.348 165.441 187.869 165.25C187.356 165.045 186.833 164.933 186.298 164.913C185.756 164.877 185.242 164.937 184.754 165.091C184.259 165.229 183.819 165.473 183.434 165.823C183.042 166.158 182.739 166.592 182.525 167.127C182.298 167.696 182.215 168.244 182.275 168.772C182.329 169.284 182.487 169.761 182.75 170.202C183.014 170.643 183.348 171.035 183.754 171.378C184.164 171.71 184.614 171.974 185.105 172.17ZM186.221 186.161C186.349 186.021 186.516 185.765 186.723 185.393C186.919 185.019 187.052 184.565 187.124 184.03C187.186 183.566 187.159 183.175 187.044 182.857C186.918 182.537 186.704 182.279 186.403 182.081C186.105 181.872 185.703 181.709 185.198 181.593C184.694 181.465 184.085 181.353 183.372 181.258L176.735 180.371L177.064 177.909L183.505 178.77C184.456 178.897 185.317 179.067 186.088 179.279C186.859 179.491 187.509 179.789 188.039 180.175C188.568 180.561 188.945 181.089 189.17 181.761C189.397 182.421 189.441 183.268 189.303 184.303C189.226 184.874 189.092 185.377 188.901 185.811C188.71 186.246 188.458 186.636 188.145 186.981L186.221 186.161ZM260.712 142.885L261.382 140.813L255.301 138.849L256.325 135.68L261.446 137.334L262.066 135.416L256.944 133.761L257.89 130.832L263.817 132.747L264.486 130.674L256.196 127.996L252.268 140.158L260.712 142.885ZM216.511 250.247L219.697 237.87L224.194 239.028C225.543 239.375 226.598 239.944 227.361 240.735C228.127 241.515 228.615 242.434 228.826 243.492C229.04 244.538 229 245.631 228.707 246.769C228.384 248.025 227.853 249.053 227.114 249.854C226.375 250.655 225.48 251.193 224.431 251.468C223.392 251.746 222.252 251.725 221.008 251.404L216.511 250.247ZM226.284 246.146C226.49 245.344 226.526 244.603 226.391 243.924C226.259 243.234 225.963 242.649 225.504 242.172C225.048 241.682 224.43 241.338 223.651 241.137L221.56 240.599L219.459 248.757L221.551 249.295C222.341 249.499 223.055 249.496 223.69 249.288C224.329 249.069 224.868 248.687 225.305 248.143C225.757 247.59 226.083 246.924 226.284 246.146ZM243.151 254.174L243.12 251.996L236.731 252.085L236.684 248.756L242.066 248.681L242.038 246.665L236.656 246.74L236.613 243.662L242.841 243.575L242.81 241.397L234.099 241.519L234.277 254.298L243.151 254.174ZM255.249 242.627C255.146 242.568 254.965 242.498 254.708 242.419C254.461 242.337 254.165 242.275 253.817 242.233C253.482 242.187 253.122 242.167 252.738 242.172C252.35 242.165 251.971 242.212 251.601 242.313C250.952 242.49 250.493 242.745 250.224 243.08C249.966 243.411 249.896 243.797 250.016 244.237C250.107 244.572 250.284 244.81 250.546 244.95C250.808 245.091 251.166 245.173 251.621 245.199C252.076 245.225 252.638 245.233 253.307 245.225C254.171 245.202 254.938 245.254 255.607 245.383C256.285 245.497 256.843 245.743 257.282 246.122C257.729 246.485 258.055 247.043 258.259 247.796C258.439 248.456 258.472 249.056 258.358 249.597C258.24 250.126 258.007 250.594 257.657 251C257.308 251.406 256.88 251.753 256.373 252.04C255.864 252.315 255.302 252.536 254.688 252.703C254.075 252.87 253.444 252.973 252.795 253.013C252.147 253.052 251.507 253.034 250.877 252.956C250.244 252.867 249.644 252.72 249.078 252.513L249.575 250.158C249.707 250.234 249.931 250.322 250.244 250.424C250.555 250.513 250.924 250.593 251.354 250.663C251.78 250.721 252.235 250.746 252.718 250.739C253.201 250.732 253.674 250.666 254.137 250.54C254.786 250.363 255.248 250.12 255.524 249.808C255.8 249.497 255.883 249.139 255.772 248.733C255.671 248.363 255.46 248.11 255.137 247.974C254.814 247.838 254.394 247.759 253.878 247.737C253.36 247.705 252.751 247.684 252.052 247.675C251.216 247.666 250.502 247.599 249.908 247.474C249.312 247.338 248.829 247.096 248.461 246.749C248.093 246.401 247.824 245.915 247.654 245.29C247.424 244.444 247.428 243.684 247.668 243.01C247.916 242.321 248.342 241.739 248.946 241.263C249.547 240.776 250.265 240.419 251.099 240.193C251.678 240.035 252.239 239.951 252.783 239.94C253.339 239.925 253.871 239.961 254.379 240.046C254.887 240.132 255.354 240.247 255.779 240.393L255.249 242.627ZM259.755 237.63L265.513 249.039L267.731 247.92L261.972 236.511L259.755 237.63ZM278.867 241.281C278.226 241.805 277.512 242.173 276.723 242.385C275.944 242.589 275.15 242.642 274.341 242.544C273.534 242.43 272.759 242.165 272.015 241.75C271.272 241.335 270.608 240.77 270.022 240.055C269.467 239.377 269.067 238.642 268.822 237.85C268.569 237.049 268.475 236.243 268.539 235.43C268.603 234.618 268.82 233.842 269.192 233.103C269.565 232.365 270.094 231.714 270.781 231.151C271.71 230.391 272.667 229.94 273.653 229.8C274.641 229.642 275.568 229.752 276.434 230.128L275.867 232.361C275.213 232.074 274.552 231.987 273.884 232.1C273.226 232.205 272.632 232.474 272.103 232.907C271.685 233.249 271.377 233.649 271.177 234.107C270.978 234.565 270.879 235.049 270.879 235.561C270.879 236.073 270.973 236.585 271.161 237.098C271.358 237.604 271.639 238.08 272.004 238.525C272.392 238.999 272.819 239.378 273.285 239.663C273.76 239.941 274.25 240.122 274.753 240.206C275.265 240.283 275.77 240.265 276.268 240.152C276.757 240.03 277.216 239.795 277.643 239.445C278.144 239.034 278.516 238.513 278.758 237.88C278.98 237.314 279.1 236.674 279.116 235.96L278.556 235.277L276.565 236.907L275.413 235.501L278.992 232.57L283.155 237.653L281.567 238.953L280.648 237.83C280.504 239.276 279.91 240.426 278.867 241.281ZM290.066 230.622L283.255 226.042L293.702 225.216L294.857 223.498L284.268 216.376L282.881 218.437L289.857 223.128L279.18 223.908L278.075 225.551L288.679 232.684L290.066 230.622ZM299.52 207.564L301.587 208.25L298.791 216.672L286.662 212.646L289.407 204.377L291.474 205.064L289.512 210.974L292.433 211.944L294.129 206.836L296.042 207.472L294.347 212.579L297.507 213.629L299.52 207.564ZM290.87 200.406L303.624 201.216L303.781 198.737L299.506 198.465L299.663 195.986L304.105 193.635L304.279 190.904L299.298 193.51C299.124 193.03 298.862 192.605 298.513 192.234C298.164 191.863 297.749 191.572 297.27 191.361C296.779 191.138 296.264 191.009 295.725 190.974C295.198 190.941 294.677 191.01 294.161 191.182C293.646 191.341 293.173 191.594 292.742 191.939C292.312 192.273 291.961 192.683 291.69 193.171C291.419 193.647 291.265 194.178 291.228 194.765L290.87 200.406ZM297.53 195.219L297.332 198.327L293.201 198.065L293.391 195.065C293.41 194.765 293.517 194.496 293.713 194.256C293.909 194.003 294.169 193.804 294.491 193.656C294.801 193.507 295.159 193.446 295.566 193.471C295.95 193.496 296.292 193.59 296.595 193.753C296.897 193.917 297.136 194.124 297.313 194.376C297.477 194.627 297.549 194.908 297.53 195.219Z" fill="#D1D1D1"/>
<circle cx="80" cy="472" r="80" transform="rotate(-30 80 472)" fill="#E8E8E8"/>
<path fill-rule="evenodd" clip-rule="evenodd" d="M49.2155 466.68L31.895 476.68L41.895 494L24.5745 504C30.0973 513.566 42.3291 516.844 51.895 511.321C61.4608 505.798 64.7383 493.566 59.2155 484L49.2155 466.68ZM70.0001 454.68L52.6796 464.68L62.6796 482L71.3398 477L81.3398 494.321L98.6603 484.321L88.6603 467L97.3206 462L87.3206 444.68L70.0001 454.68ZM108.105 432.68L90.7847 442.68L100.785 460L110.785 477.321L128.105 467.321C137.671 461.798 140.949 449.566 135.426 440C129.903 430.434 117.671 427.157 108.105 432.68Z" fill="#D1D1D1"/>
<path fill-rule="evenodd" clip-rule="evenodd" d="M88.4643 408.355L87.8283 421.119L85.3654 420.997L85.6368 415.549L79.848 415.261L79.5766 420.708L77.0957 420.584L77.7317 407.82L80.2126 407.944L79.9555 413.104L85.7443 413.392L86.0014 408.232L88.4643 408.355ZM67.7014 411.413L71.6972 410.56L71.2421 408.43L60.8389 410.653L61.294 412.782L65.2898 411.929L67.5051 422.297L69.9167 421.781L67.7014 411.413ZM42.611 425.681L47.3612 432.375L45.3355 433.812L37.9393 423.39L39.554 422.244L49.8166 425.291L44.9518 418.436L46.9775 416.998L54.3633 427.406L52.6752 428.604L42.611 425.681ZM42.9686 436.213L32.9021 428.339L31.3828 430.282L35.452 433.464L31.8811 438.03L27.812 434.847L26.2816 436.804L36.3481 444.677L37.8785 442.721L33.5825 439.36L37.1533 434.795L41.4493 438.155L42.9686 436.213ZM32.4977 453.131C32.1505 454 31.6672 454.724 31.048 455.304C30.4333 455.872 29.7393 456.299 28.9662 456.585C28.1864 456.855 27.3843 456.987 26.5598 456.98C25.7241 456.97 24.9274 456.813 24.1697 456.51C23.3785 456.194 22.6841 455.749 22.0867 455.174C21.4825 454.584 21.0042 453.921 20.6518 453.186C20.2927 452.435 20.0918 451.644 20.0491 450.813C19.9997 449.966 20.1442 449.119 20.4825 448.273C20.8253 447.414 21.3096 446.703 21.9355 446.139C22.5659 445.564 23.271 445.142 24.0508 444.872C24.8306 444.602 25.6327 444.47 26.4572 444.476C27.2817 444.482 28.0728 444.637 28.8306 444.94C29.6107 445.251 30.305 445.697 30.9136 446.276C31.511 446.85 31.9893 447.513 32.3484 448.264C32.7008 448.999 32.8962 449.788 32.9344 450.63C32.9771 451.461 32.8316 452.295 32.4977 453.131ZM25.1045 454.17C25.6171 454.375 26.1442 454.495 26.6857 454.53C27.2272 454.566 27.7453 454.514 28.2399 454.376C28.7278 454.222 29.1678 453.978 29.5598 453.643C29.9452 453.293 30.2469 452.845 30.4651 452.299C30.6876 451.742 30.7743 451.202 30.7251 450.678C30.6646 450.15 30.5029 449.665 30.2397 449.224C29.9654 448.779 29.6232 448.39 29.2131 448.058C28.7962 447.711 28.3482 447.441 27.869 447.25C27.3564 447.045 26.8327 446.933 26.2979 446.913C25.7564 446.877 25.2416 446.937 24.7537 447.091C24.2591 447.229 23.8191 447.473 23.4337 447.823C23.0417 448.158 22.7388 448.592 22.5252 449.127C22.2981 449.696 22.2148 450.244 22.2752 450.772C22.3289 451.284 22.4874 451.761 22.7505 452.202C23.0136 452.643 23.3481 453.035 23.7538 453.378C24.1639 453.71 24.6142 453.974 25.1045 454.17ZM26.2211 468.161C26.3488 468.021 26.5163 467.765 26.7234 467.393C26.9186 467.019 27.052 466.565 27.1235 466.03C27.1856 465.566 27.1592 465.175 27.0443 464.857C26.9175 464.537 26.7039 464.279 26.4035 464.081C26.1046 463.872 25.7026 463.709 25.1975 463.593C24.694 463.465 24.0854 463.353 23.3718 463.258L16.7349 462.371L17.0641 459.909L23.5048 460.77C24.4563 460.897 25.3174 461.067 26.0881 461.279C26.8588 461.491 27.5089 461.789 28.0385 462.175C28.5681 462.561 28.9453 463.089 29.1703 463.761C29.3968 464.421 29.4409 465.268 29.3026 466.303C29.2262 466.874 29.0924 467.377 28.9011 467.811C28.7099 468.246 28.4579 468.636 28.1454 468.981L26.2211 468.161ZM100.712 424.885L101.382 422.813L95.3011 420.849L96.3247 417.68L101.446 419.334L102.066 417.416L96.9444 415.761L97.8905 412.832L103.817 414.747L104.486 412.674L96.1962 409.996L92.2679 422.158L100.712 424.885ZM56.5109 532.247L59.6972 519.87L64.1945 521.028C65.5425 521.375 66.598 521.944 67.3608 522.735C68.1266 523.515 68.615 524.434 68.8259 525.492C69.0398 526.538 69.0001 527.631 68.7069 528.769C68.3838 530.025 67.8527 531.053 67.1136 531.854C66.3746 532.655 65.4802 533.193 64.4305 533.468C63.3924 533.746 62.2517 533.725 61.0082 533.404L56.5109 532.247ZM66.2839 528.146C66.4903 527.344 66.5261 526.603 66.3911 525.924C66.2592 525.234 65.9635 524.649 65.5041 524.172C65.0476 523.682 64.4301 523.338 63.6515 523.137L61.5597 522.599L59.4594 530.757L61.5512 531.295C62.3415 531.499 63.0545 531.496 63.6905 531.288C64.3294 531.069 64.8676 530.687 65.3051 530.143C65.7572 529.59 66.0835 528.924 66.2839 528.146ZM83.1506 536.174L83.1202 533.996L76.7308 534.085L76.6843 530.756L82.0658 530.681L82.0376 528.665L76.6562 528.74L76.6132 525.662L82.8406 525.575L82.8101 523.397L74.099 523.519L74.2775 536.298L83.1506 536.174ZM95.249 524.627C95.1459 524.568 94.9654 524.498 94.7076 524.419C94.4614 524.337 94.1646 524.275 93.8173 524.233C93.4816 524.187 93.1217 524.167 92.7375 524.172C92.3502 524.165 91.9713 524.212 91.6008 524.313C90.9523 524.49 90.4933 524.745 90.2236 525.08C89.9656 525.411 89.8964 525.797 90.0161 526.237C90.1074 526.572 90.2841 526.81 90.5461 526.95C90.808 527.091 91.1663 527.173 91.621 527.199C92.0756 527.225 92.6377 527.233 93.307 527.225C94.1711 527.202 94.9378 527.254 95.6071 527.383C96.2848 527.497 96.843 527.743 97.2816 528.122C97.7287 528.485 98.0546 529.043 98.2593 529.796C98.4389 530.456 98.4716 531.056 98.3576 531.597C98.2405 532.126 98.007 532.594 97.6573 533C97.3077 533.406 96.8796 533.753 96.3732 534.04C95.8636 534.315 95.302 534.536 94.6883 534.703C94.0746 534.87 93.4436 534.973 92.7952 535.013C92.1469 535.052 91.5075 535.034 90.8771 534.956C90.2436 534.867 89.6438 534.72 89.0777 534.513L89.5749 532.158C89.7075 532.234 89.9306 532.322 90.2441 532.424C90.5545 532.513 90.9244 532.593 91.3538 532.663C91.78 532.721 92.2347 532.746 92.7178 532.739C93.2008 532.732 93.674 532.666 94.1371 532.54C94.7856 532.363 95.2478 532.12 95.5237 531.808C95.7997 531.497 95.8825 531.139 95.7723 530.733C95.6715 530.363 95.4596 530.11 95.1365 529.974C94.8135 529.838 94.3942 529.759 93.8785 529.737C93.3596 529.705 92.7508 529.684 92.0519 529.675C91.2163 529.666 90.5017 529.599 89.9082 529.474C89.3115 529.338 88.8291 529.096 88.461 528.749C88.0929 528.401 87.8237 527.915 87.6537 527.29C87.4237 526.444 87.4284 525.684 87.6678 525.01C87.9155 524.321 88.3417 523.739 88.9461 523.263C89.5474 522.776 90.2648 522.419 91.0985 522.193C91.6775 522.035 92.2391 521.951 92.7832 521.94C93.3389 521.925 93.8709 521.961 94.3792 522.046C94.8875 522.132 95.3542 522.247 95.7793 522.393L95.249 524.627ZM99.7545 519.63L105.513 531.039L107.731 529.92L101.972 518.511L99.7545 519.63ZM118.867 523.281C118.226 523.805 117.512 524.173 116.723 524.385C115.944 524.589 115.15 524.642 114.341 524.544C113.534 524.43 112.759 524.165 112.015 523.75C111.272 523.335 110.608 522.77 110.022 522.055C109.467 521.377 109.067 520.642 108.822 519.85C108.569 519.049 108.475 518.243 108.539 517.43C108.603 516.618 108.82 515.842 109.192 515.103C109.565 514.365 110.094 513.714 110.781 513.151C111.71 512.391 112.667 511.94 113.653 511.8C114.641 511.642 115.568 511.752 116.434 512.128L115.867 514.361C115.213 514.074 114.552 513.987 113.884 514.1C113.226 514.205 112.632 514.474 112.103 514.907C111.685 515.249 111.377 515.649 111.177 516.107C110.978 516.565 110.879 517.049 110.879 517.561C110.879 518.073 110.973 518.585 111.161 519.098C111.358 519.604 111.639 520.08 112.004 520.525C112.392 520.999 112.819 521.378 113.285 521.663C113.76 521.941 114.25 522.122 114.753 522.206C115.265 522.283 115.77 522.265 116.268 522.152C116.757 522.03 117.216 521.795 117.643 521.445C118.144 521.034 118.516 520.513 118.758 519.88C118.98 519.314 119.1 518.674 119.116 517.96L118.556 517.277L116.565 518.907L115.413 517.501L118.992 514.57L123.155 519.653L121.567 520.953L120.648 519.83C120.504 521.276 119.91 522.426 118.867 523.281ZM130.066 512.622L123.255 508.042L133.702 507.216L134.857 505.498L124.268 498.376L122.881 500.437L129.857 505.128L119.18 505.908L118.075 507.551L128.679 514.684L130.066 512.622ZM139.52 489.564L141.587 490.25L138.791 498.672L126.662 494.646L129.407 486.377L131.474 487.064L129.512 492.974L132.433 493.944L134.129 488.836L136.042 489.472L134.347 494.579L137.507 495.629L139.52 489.564ZM130.87 482.406L143.624 483.216L143.781 480.737L139.506 480.465L139.663 477.986L144.105 475.635L144.279 472.904L139.298 475.51C139.124 475.03 138.862 474.605 138.513 474.234C138.164 473.863 137.749 473.572 137.27 473.361C136.779 473.138 136.264 473.009 135.725 472.974C135.198 472.941 134.677 473.01 134.161 473.182C133.646 473.341 133.173 473.594 132.742 473.939C132.312 474.273 131.961 474.683 131.69 475.171C131.419 475.647 131.265 476.178 131.228 476.765L130.87 482.406ZM137.53 477.219L137.332 480.327L133.201 480.065L133.391 477.065C133.41 476.765 133.517 476.496 133.713 476.256C133.909 476.003 134.169 475.804 134.491 475.656C134.801 475.507 135.159 475.446 135.566 475.471C135.95 475.496 136.292 475.59 136.595 475.753C136.897 475.917 137.136 476.124 137.313 476.376C137.477 476.627 137.549 476.908 137.53 477.219Z" fill="#D1D1D1"/>
</g>
<defs>
<clipPath id="clip0_308_506">
<rect width="320" height="760" fill="white"/>
</clipPath>
</defs>
</svg>
