<svg width="583" height="192" viewBox="0 0 583 192" fill="none" xmlns="http://www.w3.org/2000/svg">
<path fill-rule="evenodd" clip-rule="evenodd" d="M69.1123 121.945L42.307 142.588C35.605 147.75 36.994 158.229 44.8092 161.466L115.922 190.922C123.738 194.159 132.13 187.732 131.04 179.343L125.626 137.647L93.1029 151.119C87.4902 153.443 81.0555 150.778 78.7307 145.165L69.1123 121.945Z" fill="#E60026"/>
<path fill-rule="evenodd" clip-rule="evenodd" d="M99.08 40.4036L54.8345 58.7307C49.2218 61.0555 46.5565 67.4902 48.8814 73.1029L59.6381 99.0719C56.5194 99.6809 53.297 100 50 100C22.3858 100 0 77.6142 0 50C0 22.3858 22.3858 0 50 0C74.332 0 94.6045 17.3804 99.08 40.4036Z" fill="#FFCC33"/>
<path d="M69.1123 121.945L103.478 95.4787C110.2 90.3014 120.005 94.3628 121.098 102.777L125.626 137.647L93.1029 151.119C87.4902 153.443 81.0555 150.778 78.7307 145.165L69.1123 121.945Z" fill="#790083"/>
<path fill-rule="evenodd" clip-rule="evenodd" d="M69.1123 121.945L59.6381 99.0719C82.6406 94.58 100 74.3173 100 50C100 46.7177 99.6837 43.5093 99.08 40.4036L126.897 28.8814C132.51 26.5565 138.944 29.2218 141.269 34.8345L171.119 106.897C173.443 112.51 170.778 118.944 165.165 121.269L125.626 137.647L121.098 102.777C120.005 94.3628 110.2 90.3014 103.478 95.4787L69.1123 121.945Z" fill="#0070FF"/>
<path d="M54.8345 58.7307L99.08 40.4036C99.6837 43.5093 100 46.7177 100 50C100 74.3173 82.6406 94.58 59.6381 99.0719L48.8814 73.1029C46.5565 67.4902 49.2218 61.0555 54.8345 58.7307Z" fill="#2C7900"/>
<path d="M245.884 127.768C242.625 127.768 239.923 127.365 237.776 126.56C235.63 125.794 233.924 125.027 232.659 124.26C231.394 123.494 230.435 123.11 229.784 123.11C229.324 123.11 228.864 123.34 228.404 123.8C227.944 124.26 227.484 124.797 227.024 125.41C226.602 126.024 226.142 126.56 225.644 127.02C225.145 127.519 224.609 127.768 224.034 127.768C223.305 127.768 222.692 127.519 222.194 127.02C221.695 126.56 221.35 125.832 221.159 124.835L217.364 105.573C217.21 104.806 217.268 104.135 217.536 103.56C217.843 102.985 218.36 102.602 219.089 102.41C219.817 102.219 220.43 102.276 220.929 102.583C221.427 102.851 221.925 103.426 222.424 104.308C224.57 108.793 226.794 112.358 229.094 115.003C231.432 117.609 233.905 119.507 236.511 120.695C239.118 121.845 241.878 122.42 244.791 122.42C248.586 122.42 251.653 121.404 253.991 119.373C256.33 117.303 257.518 114.447 257.556 110.805C257.556 108.467 257.058 106.339 256.061 104.423C255.103 102.506 253.282 100.666 250.599 98.9028C247.915 97.1395 244.025 95.3761 238.926 93.6128C233.253 91.6195 228.73 89.377 225.356 86.8853C221.983 84.3553 219.549 81.5186 218.054 78.3753C216.559 75.232 215.811 71.7053 215.811 67.7953C215.811 63.3103 216.885 59.3236 219.031 55.8353C221.216 52.347 224.225 49.6061 228.059 47.6128C231.93 45.6195 236.415 44.6228 241.514 44.6228C244.695 44.6228 247.321 44.987 249.391 45.7153C251.5 46.4053 253.205 47.1145 254.509 47.8428C255.85 48.5711 256.905 48.9353 257.671 48.9353C258.4 48.9353 259.051 48.5711 259.626 47.8428C260.24 47.1145 260.853 46.3861 261.466 45.6578C262.118 44.9295 262.865 44.5653 263.709 44.5653C264.437 44.5653 265.012 44.8145 265.434 45.3128C265.894 45.8111 266.315 46.7503 266.699 48.1303L272.046 67.5653C272.315 68.4853 272.334 69.252 272.104 69.8653C271.912 70.4403 271.414 70.862 270.609 71.1303C269.88 71.3603 269.21 71.322 268.596 71.0153C268.021 70.7086 267.542 70.1528 267.159 69.3478C264.859 64.5945 262.425 60.8186 259.856 58.0203C257.288 55.1837 254.585 53.152 251.749 51.9253C248.95 50.6986 246.018 50.0853 242.951 50.0853C239.271 50.0853 236.262 51.2161 233.924 53.4778C231.585 55.7395 230.416 58.7295 230.416 62.4478C230.416 64.8245 230.895 67.0095 231.854 69.0028C232.85 70.9578 234.671 72.8553 237.316 74.6953C239.961 76.497 243.795 78.337 248.816 80.2153C254.643 82.4003 259.224 84.7195 262.559 87.1728C265.932 89.6261 268.328 92.3478 269.746 95.3378C271.165 98.2895 271.855 101.663 271.816 105.458C271.816 109.636 270.762 113.412 268.654 116.785C266.584 120.159 263.613 122.842 259.741 124.835C255.87 126.79 251.25 127.768 245.884 127.768ZM297.546 77.4553V118.108C297.546 119.219 297.68 120.024 297.948 120.523C298.217 120.983 298.677 121.328 299.328 121.558L301.513 122.075C302.012 122.305 302.376 122.612 302.606 122.995C302.874 123.34 303.008 123.781 303.008 124.318C303.008 124.969 302.797 125.487 302.376 125.87C301.992 126.215 301.437 126.388 300.708 126.388H280.238C279.51 126.388 278.935 126.215 278.513 125.87C278.13 125.487 277.938 124.969 277.938 124.318C277.938 123.781 278.072 123.34 278.341 122.995C278.609 122.65 278.992 122.344 279.491 122.075L281.733 121.558C282.347 121.328 282.787 120.983 283.056 120.523C283.324 120.024 283.458 119.239 283.458 118.165V86.7128C283.458 85.8311 283.343 85.2178 283.113 84.8728C282.883 84.4895 282.5 84.2403 281.963 84.1253L279.088 83.9528C278.552 83.7611 278.168 83.512 277.938 83.2053C277.708 82.8603 277.593 82.4578 277.593 81.9978C277.593 81.4611 277.747 81.0203 278.053 80.6753C278.398 80.292 278.973 79.947 279.778 79.6403L291.336 75.9028C292.371 75.5195 293.157 75.2703 293.693 75.1553C294.268 75.002 294.805 74.9253 295.303 74.9253C296.032 74.9253 296.587 75.1553 296.971 75.6153C297.354 76.0753 297.546 76.6886 297.546 77.4553ZM290.013 67.4503C287.368 67.4503 285.241 66.6645 283.631 65.0928C282.059 63.4828 281.273 61.432 281.273 58.9403C281.273 56.4486 282.078 54.417 283.688 52.8453C285.298 51.2736 287.407 50.4878 290.013 50.4878C292.697 50.4878 294.843 51.2736 296.453 52.8453C298.063 54.417 298.868 56.4486 298.868 58.9403C298.868 61.432 298.044 63.4828 296.396 65.0928C294.786 66.6645 292.658 67.4503 290.013 67.4503ZM327.678 123.398C330.093 123.398 331.972 122.804 333.313 121.615C334.655 120.389 335.326 118.855 335.326 117.015C335.326 115.75 335.038 114.619 334.463 113.623C333.888 112.588 332.873 111.649 331.416 110.805C329.998 109.962 328.004 109.138 325.436 108.333C320.529 106.914 316.696 105.362 313.936 103.675C311.176 101.95 309.221 99.9953 308.071 97.8103C306.921 95.6253 306.346 93.0761 306.346 90.1628C306.346 85.4861 307.956 81.7295 311.176 78.8928C314.434 76.0561 319.111 74.6378 325.206 74.6378C327.468 74.6378 329.327 74.8678 330.783 75.3278C332.278 75.7495 333.486 76.1711 334.406 76.5928C335.326 77.0145 336.035 77.2253 336.533 77.2253C337.032 77.2253 337.568 77.0145 338.143 76.5928C338.718 76.1711 339.313 75.7495 339.926 75.3278C340.578 74.8678 341.191 74.6378 341.766 74.6378C342.264 74.6378 342.724 74.8103 343.146 75.1553C343.568 75.462 343.893 76.1136 344.123 77.1103L346.711 87.9203C347.056 89.1086 347.152 90.1053 346.998 90.9103C346.883 91.7153 346.5 92.252 345.848 92.5203C345.158 92.7886 344.468 92.7886 343.778 92.5203C343.127 92.2136 342.533 91.677 341.996 90.9103C340.348 87.882 338.68 85.5053 336.993 83.7803C335.307 82.017 333.563 80.752 331.761 79.9853C329.959 79.2186 328.043 78.8353 326.011 78.8353C323.213 78.8353 321.123 79.487 319.743 80.7903C318.363 82.0553 317.673 83.6653 317.673 85.6203C317.673 86.962 317.999 88.1886 318.651 89.3003C319.341 90.412 320.51 91.4278 322.158 92.3478C323.845 93.2678 326.222 94.1303 329.288 94.9353C333.275 96.0086 336.553 97.3311 339.121 98.9028C341.689 100.474 343.587 102.353 344.813 104.538C346.078 106.723 346.711 109.253 346.711 112.128C346.711 115.233 345.925 117.954 344.353 120.293C342.82 122.593 340.673 124.394 337.913 125.698C335.192 127.001 332.048 127.653 328.483 127.653C326.145 127.653 324.228 127.384 322.733 126.848C321.277 126.311 320.127 125.794 319.283 125.295C318.478 124.759 317.903 124.49 317.558 124.49C317.137 124.49 316.658 124.739 316.121 125.238C315.623 125.736 315.086 126.234 314.511 126.733C313.936 127.269 313.361 127.538 312.786 127.538C312.249 127.538 311.789 127.346 311.406 126.963C311.061 126.618 310.812 126.004 310.658 125.123L308.588 114.773C308.358 113.393 308.301 112.358 308.416 111.668C308.531 110.939 308.953 110.46 309.681 110.23C310.333 110.039 310.965 110.115 311.578 110.46C312.192 110.767 312.786 111.38 313.361 112.3C315.623 116.325 317.903 119.181 320.203 120.868C322.503 122.554 324.995 123.398 327.678 123.398ZM354.819 81.1928L351.484 80.4453C350.833 80.2153 350.392 79.9086 350.162 79.5253C349.97 79.1036 349.874 78.6245 349.874 78.0878C349.874 77.4361 350.104 76.8995 350.564 76.4778C351.024 76.0561 351.619 75.8453 352.347 75.8453H355.797C356.257 75.8453 356.659 75.7111 357.004 75.4428C357.388 75.1745 357.809 74.6378 358.269 73.8328L364.537 65.7253C365.074 64.9203 365.629 64.3261 366.204 63.9428C366.818 63.5211 367.45 63.3103 368.102 63.3103C368.754 63.3103 369.29 63.5403 369.712 64.0003C370.134 64.422 370.344 65.0928 370.344 66.0128V111.265C370.344 113.834 370.843 115.769 371.839 117.073C372.836 118.338 374.235 118.97 376.037 118.97C376.995 118.97 377.819 118.817 378.509 118.51C379.199 118.165 379.813 117.744 380.349 117.245C380.924 116.709 381.423 116.153 381.844 115.578C382.304 115.003 382.745 114.504 383.167 114.083C383.512 114.006 383.799 114.102 384.029 114.37C384.298 114.639 384.413 115.137 384.374 115.865C384.144 118.089 383.416 120.082 382.189 121.845C381.001 123.57 379.41 124.95 377.417 125.985C375.462 126.982 373.162 127.48 370.517 127.48C365.955 127.48 362.467 126.33 360.052 124.03C357.637 121.73 356.429 118.127 356.429 113.22V84.0678C356.429 83.2245 356.334 82.592 356.142 82.1703C355.95 81.7103 355.509 81.3845 354.819 81.1928ZM365.169 80.9053L365.342 75.8453H382.189C382.956 75.8453 383.531 76.0178 383.914 76.3628C384.336 76.6695 384.547 77.1295 384.547 77.7428C384.547 78.6628 384.144 79.4295 383.339 80.0428C382.573 80.6178 381.327 80.9053 379.602 80.9053H365.169ZM434.01 95.0503C434.01 96.6986 433.569 97.9636 432.688 98.8453C431.806 99.727 430.541 100.168 428.893 100.168H396.75V96.3728H417.393C418.926 96.3728 419.693 95.587 419.693 94.0153C419.693 89.262 418.849 85.6778 417.163 83.2628C415.476 80.8095 413.368 79.5828 410.838 79.5828C408.729 79.5828 406.87 80.2345 405.26 81.5378C403.689 82.8411 402.443 84.777 401.523 87.3453C400.641 89.8753 400.2 93.0378 400.2 96.8328C400.2 103.848 401.734 109.157 404.8 112.76C407.905 116.325 411.969 118.108 416.99 118.108C420.364 118.108 423.277 117.264 425.73 115.578C428.184 113.891 429.851 111.706 430.733 109.023C431.116 108.563 431.461 108.256 431.768 108.103C432.074 107.911 432.362 107.815 432.63 107.815C433.014 107.815 433.32 107.969 433.55 108.275C433.819 108.582 433.934 109.042 433.895 109.655C433.742 112.875 432.707 115.846 430.79 118.568C428.912 121.289 426.363 123.474 423.143 125.123C419.923 126.733 416.185 127.538 411.93 127.538C406.947 127.538 402.596 126.464 398.878 124.318C395.198 122.171 392.323 119.162 390.253 115.29C388.221 111.419 387.205 106.914 387.205 101.778C387.205 96.5262 388.221 91.8687 390.253 87.8053C392.284 83.7036 395.198 80.5028 398.993 78.2028C402.826 75.8645 407.388 74.6953 412.678 74.6953C417.009 74.6953 420.766 75.577 423.948 77.3403C427.168 79.1036 429.64 81.5378 431.365 84.6428C433.129 87.7095 434.01 91.1786 434.01 95.0503ZM458.196 77.4553V118.165C458.196 119.277 458.311 120.101 458.541 120.638C458.81 121.174 459.27 121.558 459.921 121.788L462.164 122.305C463.007 122.765 463.429 123.436 463.429 124.318C463.429 125.698 462.7 126.388 461.244 126.388H440.889C440.16 126.388 439.585 126.215 439.164 125.87C438.78 125.487 438.589 124.969 438.589 124.318C438.589 123.781 438.723 123.34 438.991 122.995C439.26 122.65 439.643 122.344 440.141 122.075L442.326 121.558C442.978 121.328 443.419 120.983 443.649 120.523C443.917 120.024 444.051 119.258 444.051 118.223V86.7128C444.051 85.8695 443.936 85.2561 443.706 84.8728C443.515 84.4895 443.131 84.2403 442.556 84.1253L439.681 83.9528C439.145 83.7611 438.761 83.512 438.531 83.2053C438.301 82.8603 438.186 82.4578 438.186 81.9978C438.186 81.4995 438.34 81.0586 438.646 80.6753C438.991 80.292 439.566 79.947 440.371 79.6403L451.986 75.9028C452.983 75.5195 453.769 75.2703 454.344 75.1553C454.919 75.002 455.455 74.9253 455.954 74.9253C456.682 74.9253 457.238 75.1745 457.621 75.6728C458.005 76.1328 458.196 76.727 458.196 77.4553ZM456.816 89.9328L454.804 87.6328L456.989 85.4478C460.899 81.5378 464.483 78.7778 467.741 77.1678C471 75.5195 474.105 74.6953 477.056 74.6953C481.081 74.6953 484.32 76.0178 486.774 78.6628C489.227 81.2695 490.454 85.0836 490.454 90.1053V118.165C490.454 119.315 490.588 120.159 490.856 120.695C491.125 121.194 491.565 121.558 492.179 121.788L494.076 122.305C494.958 122.804 495.399 123.474 495.399 124.318C495.399 125.698 494.651 126.388 493.156 126.388H473.319C471.9 126.388 471.191 125.698 471.191 124.318C471.191 123.436 471.613 122.765 472.456 122.305L474.584 121.788C475.312 121.519 475.791 121.098 476.021 120.523C476.29 119.948 476.424 119.066 476.424 117.878V92.8653C476.424 89.837 475.715 87.5178 474.296 85.9078C472.878 84.2978 471 83.4928 468.661 83.4928C467.051 83.4928 465.422 83.8761 463.774 84.6428C462.125 85.3711 460.439 86.5403 458.714 88.1503L456.816 89.9328ZM488.959 89.7028L486.946 87.3453L489.074 85.1028C492.562 81.4228 495.744 78.7778 498.619 77.1678C501.494 75.5195 504.369 74.6953 507.244 74.6953C511.115 74.6953 514.105 75.9028 516.214 78.3178C518.36 80.7328 519.721 84.2786 520.296 88.9553L524.034 118.165C524.149 119.277 524.321 120.082 524.551 120.58C524.82 121.04 525.26 121.385 525.874 121.615L527.714 122.075C528.174 122.344 528.538 122.65 528.806 122.995C529.075 123.34 529.209 123.781 529.209 124.318C529.209 124.969 528.998 125.487 528.576 125.87C528.193 126.215 527.618 126.388 526.851 126.388H506.554C505.135 126.388 504.426 125.698 504.426 124.318C504.426 123.474 504.867 122.804 505.749 122.305L507.876 121.788C508.605 121.558 509.122 121.155 509.429 120.58C509.735 120.005 509.831 119.162 509.716 118.05L506.496 92.9228C506.113 89.8178 505.327 87.4795 504.139 85.9078C502.95 84.2978 501.245 83.4928 499.021 83.4928C497.718 83.4928 496.395 83.8378 495.054 84.5278C493.75 85.2178 492.313 86.3103 490.741 87.8053L488.959 89.7028ZM562.052 119.718V118.625L561.075 118.683V86.4828C561.075 83.9528 560.48 81.9978 559.292 80.6178C558.104 79.2378 556.436 78.5478 554.29 78.5478C552.22 78.5478 550.61 79.0461 549.46 80.0428C548.348 81.0011 547.792 82.1895 547.792 83.6078V87.0003C547.792 89.147 547.14 90.8528 545.837 92.1178C544.534 93.3445 542.713 93.9578 540.375 93.9578C538.381 93.9578 536.867 93.4403 535.832 92.4053C534.835 91.3703 534.337 89.9328 534.337 88.0928C534.337 85.8311 535.161 83.6845 536.81 81.6528C538.496 79.6211 540.988 77.9536 544.285 76.6503C547.62 75.347 551.721 74.6953 556.59 74.6953C562.8 74.6953 567.438 76.0178 570.505 78.6628C573.61 81.3078 575.162 84.9878 575.162 89.7028V117.073C575.162 118.069 575.354 118.855 575.737 119.43C576.159 119.967 576.753 120.235 577.52 120.235C578.095 120.235 578.574 120.101 578.957 119.833C579.379 119.564 579.685 119.143 579.877 118.568C579.992 118.414 580.126 118.299 580.28 118.223C580.433 118.108 580.605 118.05 580.797 118.05C581.18 118.05 581.487 118.223 581.717 118.568C581.947 118.874 582.062 119.277 582.062 119.775C582.062 120.887 581.679 122.037 580.912 123.225C580.145 124.414 578.995 125.429 577.462 126.273C575.929 127.078 574.031 127.48 571.77 127.48C568.703 127.48 566.307 126.771 564.582 125.353C562.895 123.896 562.052 122.018 562.052 119.718ZM531.922 114.945C531.922 110.422 533.781 106.819 537.5 104.135C541.256 101.452 546.661 100.11 553.715 100.11C555.708 100.11 557.529 100.302 559.177 100.685C560.864 101.03 562.32 101.49 563.547 102.065L562.57 105.228C561.381 104.653 560.174 104.231 558.947 103.963C557.72 103.656 556.36 103.503 554.865 103.503C552.105 103.503 549.939 104.308 548.367 105.918C546.834 107.489 546.067 109.694 546.067 112.53C546.067 115.252 546.776 117.341 548.195 118.798C549.613 120.216 551.453 120.925 553.715 120.925C555.478 120.925 557.145 120.523 558.717 119.718C560.327 118.874 561.669 117.724 562.742 116.268L563.72 119.2C562.033 121.845 559.656 123.896 556.59 125.353C553.561 126.771 550.265 127.48 546.7 127.48C542.215 127.48 538.63 126.33 535.947 124.03C533.264 121.73 531.922 118.702 531.922 114.945Z" fill="black"/>
</svg>
